<?xml version="1.0" encoding="UTF-8" standalone="no"?>
<svg
   width="79.278999"
   height="100"
   viewBox="40 0 79.278999 100"
   fill="none"
   version="1.1"
   id="svg4"
   sodipodi:docname="astro.svg"
   inkscape:version="1.3.1 (9b9bdc1480, 2023-11-25, custom)"
   xmlns:inkscape="http://www.inkscape.org/namespaces/inkscape"
   xmlns:sodipodi="http://sodipodi.sourceforge.net/DTD/sodipodi-0.dtd"
   xmlns="http://www.w3.org/2000/svg"
   xmlns:svg="http://www.w3.org/2000/svg">
  <sodipodi:namedview
     id="namedview4"
     pagecolor="#ffffff"
     bordercolor="#000000"
     borderopacity="0.25"
     inkscape:showpageshadow="2"
     inkscape:pageopacity="0.0"
     inkscape:pagecheckerboard="0"
     inkscape:deskcolor="#d1d1d1"
     inkscape:zoom="4.3565217"
     inkscape:cx="230"
     inkscape:cy="44.071856"
     inkscape:window-width="2560"
     inkscape:window-height="1044"
     inkscape:window-x="3840"
     inkscape:window-y="0"
     inkscape:window-maximized="1"
     inkscape:current-layer="svg4" />
  <path
     d="m 65.7846,85.175 c -4.5177,-4.13 -5.8365,-12.807 -3.9543,-19.093 3.2636,3.963 7.7855,5.219 12.4694,5.927 7.2308,1.094 14.3321,0.685 21.0493,-2.62 0.7684,-0.378 1.4785,-0.882 2.3182,-1.391 0.6302,1.828 0.7943,3.674 0.5741,5.553 -0.5353,4.576 -2.8125,8.111 -6.4344,10.79 -1.4483,1.072 -2.9808,2.03 -4.4766,3.041 -4.5954,3.105 -5.8386,6.747 -4.1119,12.045 0.041,0.129 0.0777,0.258 0.1706,0.573 -2.3463,-1.05 -4.0601,-2.579 -5.366,-4.589 -1.3792,-2.122 -2.0354,-4.469 -2.0699,-7.008 -0.0173,-1.236 -0.0173,-2.483 -0.1835,-3.701 -0.4058,-2.97 -1.8002,-4.3 -4.427,-4.377 -2.6959,-0.078 -4.8285,1.588 -5.394,4.213 -0.0432,0.201 -0.1058,0.4 -0.1683,0.634 z"
     fill="#000000"
     id="path1" />
  <path
     d="m 65.7846,85.175 c -4.5177,-4.13 -5.8365,-12.807 -3.9543,-19.093 3.2636,3.963 7.7855,5.219 12.4694,5.927 7.2308,1.094 14.3321,0.685 21.0493,-2.62 0.7684,-0.378 1.4785,-0.882 2.3182,-1.391 0.6302,1.828 0.7943,3.674 0.5741,5.553 -0.5353,4.576 -2.8125,8.111 -6.4344,10.79 -1.4483,1.072 -2.9808,2.03 -4.4766,3.041 -4.5954,3.105 -5.8386,6.747 -4.1119,12.045 0.041,0.129 0.0777,0.258 0.1706,0.573 -2.3463,-1.05 -4.0601,-2.579 -5.366,-4.589 -1.3792,-2.122 -2.0354,-4.469 -2.0699,-7.008 -0.0173,-1.236 -0.0173,-2.483 -0.1835,-3.701 -0.4058,-2.97 -1.8002,-4.3 -4.427,-4.377 -2.6959,-0.078 -4.8285,1.588 -5.394,4.213 -0.0432,0.201 -0.1058,0.4 -0.1683,0.634 z"
     fill="url(#paint0_linear_1_33)"
     id="path2"
     style="fill:url(#paint0_linear_1_33)" />
  <path
     d="m 40,65.034 c 0,0 13.3775,-6.5163 26.7924,-6.5163 L 76.9068,27.2155 c 0.3787,-1.5138 1.4843,-2.5426 2.7325,-2.5426 1.2482,0 2.3539,1.0288 2.7326,2.5426 l 10.1143,31.3022 c 15.8878,0 26.7928,6.5163 26.7928,6.5163 0,0 -22.7232,-61.901 -22.7676,-62.0252 C 95.8592,1.1787 94.7583,0 93.274,0 H 66.007 C 64.5227,0 63.4662,1.1787 62.7696,3.0088 62.7205,3.1307 40,65.034 40,65.034 Z"
     fill="#000000"
     id="path3" />
  <defs
     id="defs4">
    <linearGradient
       id="paint0_linear_1_33"
       x1="61.000301"
       y1="136"
       x2="104.622"
       y2="115.39"
       gradientUnits="userSpaceOnUse"
       gradientTransform="translate(0,-36)">
      <stop
         stop-color="#D83333"
         id="stop3" />
      <stop
         offset="1"
         stop-color="#F041FF"
         id="stop4" />
    </linearGradient>
  </defs>
</svg>
