<?xml version="1.0" encoding="UTF-8" standalone="no"?>
<svg
   viewBox="-5.724 -43.601 16.666667 8.5819788"
   fill="#1d63ed"
   version="1.1"
   id="svg18"
   sodipodi:docname="docker.svg"
   width="19.999996"
   height="14.351569"
   inkscape:version="1.3.1 (9b9bdc1480, 2023-11-25, custom)"
   xmlns:inkscape="http://www.inkscape.org/namespaces/inkscape"
   xmlns:sodipodi="http://sodipodi.sourceforge.net/DTD/sodipodi-0.dtd"
   xmlns="http://www.w3.org/2000/svg"
   xmlns:svg="http://www.w3.org/2000/svg">
  <defs
     id="defs18" />
  <sodipodi:namedview
     id="namedview18"
     pagecolor="#ffffff"
     bordercolor="#000000"
     borderopacity="0.25"
     inkscape:showpageshadow="2"
     inkscape:pageopacity="0.0"
     inkscape:pagecheckerboard="0"
     inkscape:deskcolor="#d1d1d1"
     inkscape:zoom="21.824"
     inkscape:cx="25.614003"
     inkscape:cy="10.149377"
     inkscape:window-width="1920"
     inkscape:window-height="1019"
     inkscape:window-x="1920"
     inkscape:window-y="25"
     inkscape:window-maximized="1"
     inkscape:current-layer="svg18" />
  <path
     id="path18"
     d="m 3.9864765,-39.950531 h 1.4711777 c 0.071071,0 0.1287771,-0.05738 0.1291737,-0.128451 v -1.310445 c 0,-0.07135 -0.057819,-0.129173 -0.1291737,-0.129173 H 3.9864765 c -0.070931,0 -0.1284508,0.05752 -0.1284508,0.128451 v 6.94e-4 1.310422 c 0,0.07096 0.057519,0.128474 0.1284508,0.128474 m -2.05176,-3.771204 H 3.405894 c 0.071071,0 0.1287773,-0.0574 0.1291739,-0.128451 v -1.311167 c -3.966e-4,-0.07107 -0.058103,-0.128451 -0.1291739,-0.128451 H 1.9347165 c -0.070955,0 -0.1284507,0.05749 -0.1284507,0.128451 v 1.311144 c 0,0.07096 0.057519,0.128474 0.1284507,0.128474 m 0,1.885966 H 3.405894 c 0.071188,-3.96e-4 0.1287773,-0.05798 0.1291739,-0.129173 v -1.310422 c -3.966e-4,-0.07108 -0.058102,-0.128452 -0.1291739,-0.128452 H 1.9347165 c -0.070955,0 -0.1284507,0.05752 -0.1284507,0.128452 v 1.310422 c 0,0.07105 0.057403,0.128777 0.1284507,0.129173 m -2.0338229,0 H 1.372071 c 0.071047,-3.96e-4 0.1284508,-0.05812 0.1284508,-0.129173 v -1.310422 c 0,-0.07096 -0.057519,-0.128452 -0.1284508,-0.128452 h -1.4711774 c -0.070955,0 -0.1284508,0.05752 -0.1284508,0.128452 v 1.310422 c 0,0.07105 0.057403,0.128777 0.1284508,0.129173 m -2.0581976,0 h 1.47117741 c 0.071048,-3.96e-4 0.12845079,-0.05812 0.12845079,-0.129173 v -1.310422 c 0,-0.07096 -0.057519,-0.128452 -0.12845079,-0.128452 H -2.157304 c -0.071048,0 -0.1287773,0.05738 -0.1291738,0.128452 v 1.310422 c 3.965e-4,0.07119 0.057986,0.128777 0.1291738,0.129173 m 4.0920205,1.885266 H 3.405894 c 0.071071,0 0.1287773,-0.05738 0.1291739,-0.128451 v -1.310445 c 0,-0.07135 -0.057822,-0.129173 -0.1291739,-0.129173 H 1.9347165 c -0.070955,0 -0.1284507,0.05752 -0.1284507,0.128451 v 6.94e-4 1.310422 c 0,0.07096 0.057519,0.128474 0.1284507,0.128474 z m -2.0338229,0 H 1.372071 c 0.070955,0 0.1284508,-0.05752 0.1284508,-0.128451 v -1.310445 c 3.966e-4,-0.07096 -0.056797,-0.128776 -0.127751,-0.129173 -2.332e-4,0 -4.899e-4,0 -7.223e-4,0 h -1.4711782 c -0.070955,0 -0.1284508,0.05752 -0.1284508,0.128451 v 6.94e-4 1.310422 c 2.33e-5,0.07096 0.057543,0.128474 0.1284741,0.128474 z m -2.0581976,0 h 1.47117741 c 0.0709547,0 0.12845079,-0.05752 0.12845079,-0.128451 v -1.310445 c 3.965e-4,-0.07096 -0.056797,-0.128776 -0.127751,-0.129173 -2.3326e-4,0 -4.8986e-4,0 -7.2222e-4,0 H -2.1573265 c -0.071351,0 -0.1291738,0.05782 -0.1291738,0.129173 v 1.310423 c 4.198e-4,0.07108 0.058126,0.128473 0.1291971,0.128473 m -2.0273621,0 h 1.4711776 c 0.070955,0 0.1284508,-0.05752 0.1284508,-0.128451 v -1.310445 c 3.965e-4,-0.07096 -0.056797,-0.128776 -0.1277278,-0.129173 -2.332e-4,0 -4.897e-4,0 -7.222e-4,0 h -1.4711775 c -0.070955,0 -0.1284508,0.05752 -0.1284508,0.128451 v 6.94e-4 1.310422 c 0,0.07096 0.057496,0.128474 0.1284508,0.128474 z m 14.9629593,-0.824585 c -0.0452,-0.0359 -0.467175,-0.354516 -1.357069,-0.354516 -0.234976,10e-4 -0.469462,0.02118 -0.701173,0.06027 -0.172232,-1.180525 -1.1482425,-1.756093 -1.1920009,-1.781914 L 7.2890868,-42.98908 7.131923,-42.762291 c -0.1968167,0.304648 -0.3404986,0.640481 -0.4248417,0.993225 -0.1593334,0.673883 -0.062437,1.30683 0.2798764,1.847946 -0.4133653,0.230358 -1.0764715,0.287061 -1.2106604,0.292076 H -5.202289 c -0.2867575,3.97e-4 -0.5194477,0.23213 -0.5210103,0.518864 -0.012806,0.961783 0.1501429,1.917829 0.4808214,2.821066 0.3781914,0.991801 0.940837,1.722364 1.6728453,2.169457 0.8202702,0.50235 2.1529438,0.789412 3.6635871,0.789412 0.6824428,0.0022 1.3636027,-0.05962 2.0345461,-0.184432 0.9326733,-0.171251 1.8301492,-0.497242 2.6552942,-0.964534 0.6799004,-0.393727 1.291808,-0.894608 1.8120726,-1.483377 0.8697887,-0.984618 1.3879538,-2.081196 1.7733056,-3.055737 h 0.153572 c 0.952313,0 1.537932,-0.381085 1.860866,-0.700427 0.214614,-0.203673 0.382158,-0.451782 0.490875,-0.72697 l 0.06818,-0.199498 z"
     style="stroke-width:0.023325" />
</svg>
