<svg
  xmlns="http://www.w3.org/2000/svg"
  width="32"
  height="32"
  viewBox="0 0 32 32"
  fill="currentColor"
>
  <path
    d="m 15.998662,1.8300623 c -8.0217114,0 -14.5271978,6.5045968 -14.5271978,14.5289847 0,6.418085 4.1624804,11.863999 9.9357178,13.786039 0.726897,0.132888 0.991791,-0.315731 0.991791,-0.70103 0,-0.345164 -0.01251,-1.25847 -0.0196,-2.470556 C 8.3381952,27.851125 7.4855405,25.025599 7.4855405,25.025599 6.8246456,23.347053 5.8721008,22.900213 5.8721008,22.900213 c -1.3191073,-0.900817 0.099897,-0.882977 0.099897,-0.882977 1.4582498,0.102566 2.2252758,1.497496 2.2252758,1.497496 1.2959292,2.219924 3.4007984,1.578656 4.2284824,1.206735 0.131999,-0.938277 0.507485,-1.578656 0.922216,-1.94166 -3.225983,-0.367459 -6.6178649,-1.613439 -6.6178649,-7.180656 0,-1.586683 0.5663561,-2.882605 1.4957094,-3.898477 C 8.075978,11.333215 7.5774104,9.8562356 8.3685176,7.855711 c 0,0 1.219224,-0.3906504 3.9948014,1.4885786 1.158573,-0.3219788 2.401878,-0.48252 3.637156,-0.4887611 1.234382,0.00602 2.47679,0.1667823 3.637149,0.4887611 2.773799,-1.879229 3.991237,-1.4885786 3.991237,-1.4885786 0.792893,2.0005246 0.294325,3.477504 0.145376,3.844963 0.93114,1.015872 1.493034,2.311794 1.493034,3.898477 0,5.581485 -3.397234,6.809625 -6.63303,7.169064 0.52087,0.448619 0.985543,1.335168 0.985543,2.690845 0,1.94166 -0.01786,3.508723 -0.01786,3.984996 0,0.388864 0.262217,0.841055 0.998921,0.699244 5.768783,-1.925606 9.927691,-7.367058 9.927691,-13.784253 0,-8.0243879 -6.505486,-14.5289847 -14.529874,-14.5289847"
  />
</svg>
