<?xml version="1.0" encoding="UTF-8" standalone="no"?>
<!-- Created with Inkscape (http://www.inkscape.org/) -->

<svg
   width="75mm"
   height="30mm"
   viewBox="0 0 75 30"
   version="1.1"
   id="svg5"
   inkscape:version="1.1.2 (0a00cf5339, 2022-02-04)"
   sodipodi:docname="glasses.svg"
   xmlns:inkscape="http://www.inkscape.org/namespaces/inkscape"
   xmlns:sodipodi="http://sodipodi.sourceforge.net/DTD/sodipodi-0.dtd"
   xmlns="http://www.w3.org/2000/svg"
   xmlns:svg="http://www.w3.org/2000/svg">
  <sodipodi:namedview
     id="namedview7"
     pagecolor="#ffffff"
     bordercolor="#666666"
     borderopacity="1.0"
     inkscape:pageshadow="2"
     inkscape:pageopacity="0.0"
     inkscape:pagecheckerboard="0"
     inkscape:document-units="mm"
     showgrid="false"
     inkscape:zoom="0.89953744"
     inkscape:cx="586.4125"
     inkscape:cy="163.41732"
     inkscape:window-width="1920"
     inkscape:window-height="1044"
     inkscape:window-x="0"
     inkscape:window-y="0"
     inkscape:window-maximized="1"
     inkscape:current-layer="svg5" />
  <defs
     id="defs2" />
  <path
     fill="currentColor"
     d="m 56.609989,4.1525578 c -6.76077,-0.0215 -13.05821,0.70939 -17.11121,1.4993 -2.57765,0.50236 -5.25443,0.92879 -7.874262,0.24916 -3.672023,-0.95258 -20.430804,-3.227821 -28.6116095,0.002 -0.897269,0.35423 -0.412347,1.98697 -0.0806,2.89279 0.272015,0.74271 1.393833,0.99998 1.582358,1.7681502 0.804018,3.27612 1.452195,6.82355 2.564252,9.57782 0.785043,1.94432 3.0440935,3.2642 5.0983625,3.68457 3.496751,0.71554 6.850052,0.79126 10.926994,0.6669 2.16958,-0.0662 5.150475,-0.53345 5.999667,-2.53103 1.018904,-2.3968 1.802737,-4.52926 3.056428,-9.99555 0.23261,-1.01419 1.50805,-1.75955 2.54765,-1.80383 1.2195,-0.052 2.72965,0.71066 3.15795,1.85367 1.63422,4.36125 2.65823,6.86069 3.85499,9.53536 1.10082,2.46024 4.32086,3.77226 7.00248,4.04325 5.19813,0.52529 12.44392,0.1931 14.81767,-0.63799 1.89376,-0.66305 3.3061,-0.54203 4.6591,-3.81193 1.00994,-2.44083 1.272,-5.14639 1.93734,-7.75552 0.34142,-1.33892 0.58569,-3.24731 2.36245,-3.4064902 0,-2.16209 -0.11135,-1.89933 -0.11135,-4.08816 -4.98152,-1.25332 -10.52027,-1.72555 -15.77866,-1.74232 z m -39.993247,1.31227 c 4.177393,-0.0284 8.181225,0.571 11.993178,1.66418 1.114647,0.31966 1.736806,1.86564 1.71709,3.0250602 -0.09193,5.40564 -1.172064,7.58161 -2.201889,10.62122 -0.454064,1.3402 -1.907573,2.58993 -3.321594,2.64361 -3.893701,0.14782 -9.587045,0.42571 -13.616752,-0.92652 -1.4990825,-0.50304 -2.6203055,-2.03526 -3.1911675,-3.50986 -1.225982,-3.16681 -1.752766,-6.86059 -1.598353,-10.4040502 0.05003,-1.14811 1.387744,-2.14245 2.516881,-2.3563 2.6273295,-0.4976 5.1961675,-0.74032 7.7026065,-0.75734 z m 36.590457,0.10644 c 3.93499,-0.0405 7.7258,0.31177 10.64398,0.8447 1.75965,0.32136 4.19041,1.35285 4.35579,3.13396 0.3321,3.5765602 0.45232,7.5510202 -1.11294,10.8224002 -0.73114,1.52809 -1.94438,3.26884 -3.61013,3.57692 -5.58921,1.03369 -10.49428,1.16521 -16.29237,0.22701 -1.79542,-0.29052 -3.57414,-1.56537 -4.44806,-3.1604 -1.48357,-2.70769 -2.96937,-6.1748 -2.94139,-10.80027 0.008,-1.2203702 0.72627,-2.7845002 1.89612,-3.1321002 3.49478,-1.03839 7.574,-1.47174 11.509,-1.51222 z"
     id="path4" />
</svg>
