<?xml version="1.0" encoding="UTF-8" standalone="no"?>
<svg
  viewBox="0 0 21 21"
  version="1.1"
  width="21"
  height="21"
  xmlns="http://www.w3.org/2000/svg"
>
  <path
    fill="currentColor"
    d="M 1.5820312 0 C 0.72603125 0 -1.4802974e-16 0.67771875 0 1.5117188 L 0 19.488281 C 0 20.323281 0.47603125 21 1.3320312 21 L 19.228516 21 C 20.085516 21 21 20.323281 21 19.488281 L 21 1.5117188 C 21 0.67771875 20.335516 -1.4802974e-16 19.478516 0 L 1.5820312 0 z M 4.5 2.625 C 5.536 2.625 6.375 3.464 6.375 4.5 C 6.375 5.536 5.536 6.375 4.5 6.375 C 3.464 6.375 2.625 5.536 2.625 4.5 C 2.625 3.464 3.464 2.625 4.5 2.625 z M 14.136719 7.875 C 17.157719 7.875 18 9.4782188 18 12.449219 L 18 18 L 15 18 L 15 12.996094 C 15 11.666094 14.468563 10.5 13.226562 10.5 C 11.718562 10.5 11 11.521266 11 13.197266 L 11 18 L 8 18 L 8 8 L 10.826172 8 L 10.826172 9.4414062 L 10.857422 9.4414062 C 11.288422 8.6644062 12.562719 7.875 14.136719 7.875 z M 3 8 L 6 8 L 6 18 L 3 18 L 3 8 z "
    id="path1074"
  />
</svg>
