<?xml version="1.0" encoding="UTF-8" standalone="no"?>
<svg
   aria-label="Mastodon"
   role="img"
   viewBox="0 0 512 512"
   fill="#fff"
   version="1.1"
   id="svg8"
   sodipodi:docname="mastodon.svg"
   inkscape:version="1.1.2 (0a00cf5339, 2022-02-04)"
   xmlns:inkscape="http://www.inkscape.org/namespaces/inkscape"
   xmlns:sodipodi="http://sodipodi.sourceforge.net/DTD/sodipodi-0.dtd"
   xmlns="http://www.w3.org/2000/svg"
   xmlns:svg="http://www.w3.org/2000/svg">
  <defs
     id="defs12" />
  <sodipodi:namedview
     id="namedview10"
     pagecolor="#ffffff"
     bordercolor="#666666"
     borderopacity="1.0"
     inkscape:pageshadow="2"
     inkscape:pageopacity="0.0"
     inkscape:pagecheckerboard="0"
     showgrid="false"
     inkscape:zoom="0.98608247"
     inkscape:cx="196.23105"
     inkscape:cy="238.82384"
     inkscape:window-width="1920"
     inkscape:window-height="1017"
     inkscape:window-x="0"
     inkscape:window-y="27"
     inkscape:window-maximized="1"
     inkscape:current-layer="svg8" />
  <path
     id="path4"
     d="M 260.35744,5.4827305 C 196.31472,5.1188514 130.81649,13.124191 94.428585,30.590386 c 0,0 -71.320296,32.021357 -71.320296,139.729564 v 85.87546 c 2.911032,104.79717 20.377228,211.04985 117.896821,235.79363 48.03203,13.09964 129.54094,26.19929 203.77227,-8.7331 L 341.86635,443.957 c 0,0 -39.29894,10.18862 -84.41994,10.18862 -107.70821,2.91103 -97.51959,-56.76514 -101.88614,-75.68685 0,0 74.23133,24.74378 199.40572,8.7331 61.13169,-8.7331 116.44131,-46.57652 123.71889,-81.50891 11.64413,-55.30962 10.18861,-135.36301 10.18861,-135.36301 0,-107.708207 -71.3203,-139.729564 -71.3203,-139.729564 C 386.98735,14.579707 324.40015,5.8466096 260.35744,5.4827305 Z M 183.21508,90.266552 c 56.76513,0 72.77581,53.854098 72.77581,53.854098 0,0 14.55516,-53.854098 72.77581,-53.854098 65.49823,0 75.68685,61.131688 75.68685,87.330978 V 310.04951 H 353.51048 V 181.96408 c 0,-26.1993 -11.64413,-39.29894 -33.47688,-39.29894 -26.19929,0 -39.29893,16.01068 -39.29893,48.03203 v 68.40927 h -49.48756 v -68.40927 c 0,-32.02135 -13.09964,-48.03203 -39.29894,-48.03203 -21.83274,0 -33.47687,13.09964 -33.47687,39.29894 V 310.04951 H 107.52823 V 177.59753 c 0,-26.19929 7.27758,-87.330978 75.68685,-87.330978 z"
     style="fill:#3088d4;fill-opacity:1;stroke-width:1.45552" />
</svg>
