<?xml version="1.0" encoding="UTF-8" standalone="no"?>
<svg
   viewBox="0 0 49.999995 999.99997"
   width="1000"
   version="1.1"
   id="svg12"
   sodipodi:docname="me-ricknmorty-face.svg"
   height="1000"
   inkscape:version="1.2.2 (732a01da63, 2022-12-09, custom)"
   xmlns:inkscape="http://www.inkscape.org/namespaces/inkscape"
   xmlns:sodipodi="http://sodipodi.sourceforge.net/DTD/sodipodi-0.dtd"
   xmlns="http://www.w3.org/2000/svg"
   xmlns:svg="http://www.w3.org/2000/svg">
  <defs
     id="defs16">
    <rect
       x="442.21545"
       y="-59.027443"
       width="184.59726"
       height="58.997711"
       id="rect238" />
  </defs>
  <sodipodi:namedview
     id="namedview14"
     pagecolor="#ffffff"
     bordercolor="#000000"
     borderopacity="0.25"
     inkscape:showpageshadow="2"
     inkscape:pageopacity="0.0"
     inkscape:pagecheckerboard="0"
     inkscape:deskcolor="#d1d1d1"
     showgrid="false"
     inkscape:zoom="0.3275"
     inkscape:cx="705.34351"
     inkscape:cy="714.50382"
     inkscape:window-width="2560"
     inkscape:window-height="1019"
     inkscape:window-x="1920"
     inkscape:window-y="25"
     inkscape:window-maximized="1"
     inkscape:current-layer="svg12" />
  <path
     id="rect346"
     style="fill:#ffffff;stroke-width:5.09886"
     d="m -300.64967,0 h 651.29932 c 96.59009,0 174.35033,77.760248 174.35033,174.35033 v 651.29931 c 0,96.59012 -77.76024,174.35032 -174.35033,174.35032 h -651.29932 c -96.59007,0 -174.35032,-77.7602 -174.35032,-174.35032 V 174.35033 C -474.99999,77.760248 -397.23974,0 -300.64967,0 Z" />
  <path
     style="fill:#f4dfcf;stroke-width:9.90779"
     d="m -24.97479,219.03389 c -87.29383,-0.49195 -156.84159,40.92395 -183.6907,111.41883 -9.6668,82.05501 -13.0175,52.1253 -9.66928,82.05511 l 33.26271,297.3273 c 12.2011,109.06704 56.80025,199.7337 158.4729,213.87119 l 160.92368,-47.90928 h -0.009 c 43.59302,-39.73207 70.74293,-99.84626 79.75632,-167.85233 l 11.0938,-83.68884 c 11.51221,8.50717 28.86415,17.88457 45.10703,13.0743 27.55127,-8.159 41.07317,-42.67381 44.23305,-71.60697 3.16007,-28.93317 -4.55638,-72.59983 -29.80995,-85.40796 -13.03186,-6.60942 -28.70236,-4.20199 -40.82825,-0.32794 -30.9863,-81.20587 -29.98968,-145.78011 -56.57594,-181.53461 -37.21005,-50.04133 -100.60628,-75.49498 -203.7652,-79.23891 -2.85195,-0.10347 -5.68487,-0.16494 -8.50095,-0.18062 z"
     id="path2375" />
  <path
     style="fill:#ffffff;stroke-width:9.90779"
     d="m 40.68547,463.57207 c -14.71133,15.42882 -22.95696,36.14296 -22.97618,57.71973 -0.002,45.66228 36.10078,82.68018 80.63731,82.68116 44.53851,0.002 80.64424,-37.01711 80.64206,-82.68116 -0.002,-17.90975 -5.67674,-35.3344 -16.16975,-49.65287 0.3755,0.59245 0.74902,1.19615 1.12087,1.81409 -36.33668,6.58404 -97.60701,1.47569 -125.27995,-6.81537 0.51025,-1.0067 1.19993,-2.03253 2.02564,-3.06558 z m -249.19511,6.1253 c -10.2366,13.69273 -15.79118,30.4601 -15.80574,47.71239 2e-4,43.37666 34.29657,78.54045 76.60406,78.54133 42.30897,0.002 76.60802,-35.1629 76.60832,-78.54133 -0.002,-15.65322 -4.56688,-30.94852 -13.10736,-43.92345 -2.68946,13.87661 -114.21429,3.68419 -124.29928,-3.78894 z"
     id="path3" />
  <path
     style="fill:#c29f8b;stroke-width:9.90779"
     d="m -54.62324,799.66707 c 0,11.27918 -10.93499,53.3686 -10.93499,53.3686 0,0 -94.29603,-24.6386 -94.68234,-121.0871 -6.1966,-10.73308 -11.02851,-17.52942 -18.58694,-29.8019 -2.5445,89.37127 26.38098,132.65348 50.15344,161.74888 21.71779,26.58072 51.87074,48.21586 84.51153,58.83489 31.14809,10.13331 66.687,10.83265 98.24358,2.05362 40.69005,-11.31992 78.61257,-36.51653 107.11052,-67.68849 22.02186,-24.08823 37.39821,-62.3479 47.71346,-93.3125 9.88536,-29.67352 15.79375,-92.49141 15.79375,-92.49141 L 142.092,738.7331 c 0,0 -31.91891,105.72582 -85.9757,116.62029 -23.90711,4.81824 -70.76117,1.51786 -70.76117,1.51786 0,0 0.68166,-49.86601 -15.59787,-57.0853 -7.76302,-3.44274 -17.23166,-4.50197 -24.3805,-0.11888 z"
     id="path16354-4-1" />
  <path
     style="fill:#593731;stroke-width:9.90779"
     d="m 13.77512,413.91285 c 0,0 56.70603,-26.09403 87.19267,-28.68017 32.51764,-2.75842 83.53998,12.86074 83.53998,12.86074 7.93602,1.18746 14.31404,6.82952 14.10805,14.85119 -0.20604,8.02177 -6.82941,14.31388 -14.85123,14.10803 0,0 -51.62354,-15.73891 -84.42781,-12.88348 -30.20328,2.6292 -86.30454,28.70292 -86.30454,28.70292 -7.61421,2.53227 -14.31393,-6.82952 -14.10804,-14.8513 0.20608,-8.02157 7.22859,-11.60064 14.85092,-14.10793 z M -210.3087,391.18903 c 0,0 36.80641,-14.11038 67.07103,-9.63362 32.28074,4.77503 76.77388,30.26255 76.77388,30.26255 7.45142,2.97597 12.36437,9.93053 10.32377,17.69034 -2.0406,7.75988 -9.93054,12.36431 -17.69049,10.32378 0,0 -45.05094,-25.74179 -77.63288,-30.48832 -29.99848,-4.37025 -66.21181,9.85939 -66.21181,9.85939 -7.9917,0.71737 -12.36449,-9.93044 -10.32388,-17.69043 2.0406,-7.7599 9.69652,-9.63216 17.69038,-10.32369 z m 190.09548,310.3642 c -16.14161,-0.0586 -31.92397,3.49661 -37.63192,13.73918 -0.0991,0.16783 -0.17933,0.35233 -0.26553,0.53197 -0.25859,-0.43724 -0.53205,-0.86186 -0.82532,-1.25373 -8.65759,-11.5013 -20.44028,-10.1849 -42.26279,-4.21469 -21.82242,5.97021 -51.36764,60.86993 -51.36764,60.86993 0,0 88.75949,-33.86242 95.38272,-42.64541 0.31011,0.26652 0.65391,0.49591 1.03546,0.67456 61.96238,28.99562 167.9138,56.68611 167.9138,56.68611 0,0 -76.33497,-78.45843 -106.7264,-82.37388 -9.49727,-1.22357 -17.91381,-1.98966 -25.2509,-2.01359 z m 8.54058,-638.422986 c -67.60099,0 -122.40294,26.06348 -122.40363,58.214586 4.9e-4,1.32147 0.099,2.64247 0.28536,3.96072 -16.50869,10.17484 -25.47402,22.66185 -25.4979,35.5139 0.001,3.95827 0.85105,7.9062 2.53619,11.78249 -18.89547,10.52623 -29.28751,23.90997 -29.31149,37.75057 0.0198,0.33277 0.0496,0.66573 0.0793,0.99733 -4.81933,11.10374 -7.66573,28.69861 -7.66989,47.41049 0.003,1.09161 0.0198,2.18274 0.0397,3.27211 -5.23744,5.79716 -10.69592,19.65053 -14.68448,37.2662 -4.16978,9.98363 -7.83604,23.73062 -10.24848,38.42975 -3.89751,23.77444 -3.7912,45.18656 -0.31312,55.44115 1.35043,-5.84627 4.7252,-16.19493 10.20577,-62.71673 26.84913,-70.49497 96.39688,-111.91046 183.69081,-111.41892 2.81588,0.0198 5.649,0.0784 8.50085,0.18063 103.15892,3.74383 166.55505,29.19758 203.7652,79.23902 26.58656,35.75439 25.58944,100.32873 56.57594,181.53449 5.84814,-1.86856 12.52538,-3.36503 19.32922,-3.70431 10.87743,-43.27477 20.181,-103.75663 17.69506,-143.8076 C 277.34521,275.26974 265.97795,228.51056 253.59921,220.16426 246.30284,204.75349 236.57135,189.22272 225.13315,174.73441 207.5135,152.42531 186.7514,133.73024 166.4103,121.85785 151.37219,109.01175 126.67088,99.347773 97.26794,94.806892 76.32692,75.366209 34.26574,63.136783 -11.66224,63.135129 Z"
     id="path6" />
  <path
     style="opacity:0.2;fill:#0000ed;stroke-width:9.90779"
     d="m 9.61288,457.3396 195.62053,0.005 -0.19523,9.78783 c 0,0 1.64993,5.84557 -1.32982,24.47691 -2.97975,18.63145 -3.29453,85.78675 -18.18895,100.23943 -24.50831,23.77933 -55.28267,22.10706 -81.63719,20.82482 C 77.52774,611.39116 45.43465,608.01109 28.3952,585.98828 11.35555,563.96564 16.65412,498.24561 13.06038,479.16197 9.46654,460.07852 10.91624,466.8238 9.61248,457.33992 Z m -254.60901,1.92798 170.02277,0.005 c -4.34495,9.81225 -6.32571,20.10763 -6.32571,20.10763 0,0 -2.06626,91.87916 -21.5658,110.92484 -19.49975,19.04617 -51.20742,17.56042 -72.52366,14.71758 -21.31613,-2.84285 -40.51349,-1.14726 -58.20021,-24.26795 C -251.27556,557.634 -244.99613,459.2678 -244.99613,459.2678 Z"
     id="path8" />
  <path
     style="fill:#000000;stroke-width:9.90779"
     d="m -13.19061,62.822262 c -34.26913,0 -65.33122,6.562657 -88.13173,17.406433 -22.80041,10.843788 -37.92935,26.313975 -37.92994,44.461805 5.9e-4,0.83005 0.11591,1.66625 0.18135,2.49672 -15.73252,10.33403 -25.37029,23.09351 -25.39595,36.97166 7.9e-4,3.51475 1.06023,6.97998 2.21934,10.40049 -17.87963,10.68123 -28.96115,24.21297 -28.98721,39.12537 v 0.16107 0.16098 c 0,0.13078 0.0297,0.32114 0.0397,0.48411 -4.88829,11.89961 -7.64254,29.08903 -7.64641,47.61927 0.002,0.87556 0.0298,1.70847 0.0397,2.53206 -5.83051,7.30828 -10.7181,20.16452 -14.54161,36.97671 -4.27083,10.34145 -7.91916,24.11245 -10.33992,38.86311 -3.28888,20.06233 -3.2984,37.27782 -1.22064,49.44517 -0.0694,0.0297 -0.14863,0.0198 -0.21695,0.0586 -3.86571,1.85996 -7.27219,5.26315 -8.5595,10.15835 -1.28752,4.89655 -0.60138,10.21886 1.68471,14.62729 2.28612,4.40843 6.83833,8.13928 12.49357,7.63134 l 0.52512,-0.0586 0.48447,-0.18153 c 0,0 1.22767,-0.34944 1.29128,-0.37279 l 1.82083,16.27663 h -55.94678 c 0,0 -6.71617,122.80591 16.44815,153.0868 19.07658,24.93751 38.47526,29.86666 60.31968,32.91137 l 8.75122,78.16506 -0.0694,2.4816 c -2.56789,90.19058 26.99694,134.81291 50.9734,164.15818 22.15096,27.11058 52.81664,49.12656 86.21507,59.99184 5.13608,1.67108 10.39205,3.06275 15.71677,4.23188 2.41254,0.66969 4.87501,1.23474 7.36909,1.45259 20.53649,3.57922 41.95685,3.50711 62.38782,-0.21181 0.39235,-0.0721 0.78866,-0.14331 1.18021,-0.21722 0.98781,-0.18748 1.96838,-0.38037 2.95073,-0.58587 1.08837,-0.22354 2.17188,-0.46059 3.25321,-0.70575 0.68066,-0.15593 1.36063,-0.30556 2.03773,-0.4687 1.82451,-0.43805 3.6407,-0.90044 5.44242,-1.4023 2.30485,-0.64085 4.59225,-1.33912 6.87489,-2.06794 0.60438,-0.19199 1.20806,-0.38848 1.81065,-0.58587 1.67361,-0.55252 3.34277,-1.1319 5.00351,-1.72994 1.89981,-0.67961 3.78704,-1.39789 5.66941,-2.13356 0.35767,-0.14061 0.71733,-0.2713 1.0743,-0.41372 19.8583,-7.885 38.70414,-18.85095 55.7853,-31.95804 h 0.005 l 7.11684,-5.66426 c 0,0 17.64432,-15.62334 25.47669,-24.19048 22.74909,-24.8837 38.10789,-63.46716 48.4818,-94.60802 2.5993,-7.80226 4.01432,-19.18299 6.01222,-29.5471 l 1.09966,0.22191 c 0,-0.0397 1e-4,-0.0793 0.0198,-0.11095 2.1687,-9.85148 3.97192,-19.89895 5.33135,-30.15734 l 9.90627,-74.7402 c 11.75555,7.90123 27.27872,15.70495 43.40259,10.9301 14.96249,-4.43107 25.90471,-15.93949 33.42579,-29.75889 7.52097,-13.81952 11.76277,-30.07193 13.38656,-44.94099 1.63636,-14.98199 0.49339,-33.48518 -4.35803,-50.17155 -4.85142,-16.68646 -13.44432,-31.8007 -27.42852,-38.89337 -7.65284,-3.88126 -15.81842,-4.7315 -23.78197,-4.25705 0.38244,-1.56695 0.70647,-3.4153 1.0844,-5.01865 l 6.9807,-1.66954 -1.35676,-23.81212 -0.14169,0.0198 c 7.31113,-37.44716 12.40223,-79.1458 10.48112,-110.09285 -1.78954,-28.78178 -5.53646,-54.94942 -10.4408,-75.1235 -2.45226,-10.08711 -5.19612,-18.66034 -8.19123,-25.4111 -2.77407,-6.25355 -5.6497,-10.97978 -9.3867,-13.89085 -7.38504,-15.43312 -17.12782,-30.9113 -28.53829,-45.3647 C 208.73357,153.377 187.9154,134.61287 167.23882,122.43404 l -0.0496,-0.0306 C 151.52427,109.04401 126.63848,99.482541 97.26081,94.808821 75.55986,75.294615 35.09928,64.061029 -9.271,63.365256 l 0.0595,-0.539676 z m -0.0397,7.308581 h 0.0198 0.0198 c 45.28041,0.0016 86.72107,12.389287 106.436,30.692017 l 0.82635,0.76668 1.0945,0.16143 c 28.93629,4.46871 53.1008,14.07649 67.32576,26.22819 l 0.25165,0.21181 0.29231,0.16143 c 19.83462,11.57677 40.33178,29.98902 57.70195,51.98225 h -0.0198 c 11.27641,14.28299 20.87374,29.59537 28.03894,44.72914 l 0.42408,0.91844 0.82634,0.55442 c 2.00048,1.3487 4.97281,5.3181 7.702,11.46977 2.72919,6.15154 5.37069,14.39869 7.75241,24.19551 4.76315,19.59343 8.48203,45.41798 10.24918,73.84233 1.87969,30.27963 -3.28581,72.75872 -10.67284,110.41564 l -23.95843,2.43622 c -2.28759,-7.51959 -4.43054,-14.93797 -6.36532,-22.15274 -4.35318,-16.33382 -7.38584,-29.02736 -10.58714,-43.34212 -0.87087,-3.88732 -2.01285,-8.4035 -2.85491,-12.13553 -0.58155,-2.57687 -1.25323,-4.53883 -1.83096,-7.04123 -1.83847,-7.83925 -4.20168,-18.39972 -6.22909,-25.44643 -0.9135,-3.17606 -1.85919,-6.25658 -2.85492,-9.26565 -4.2426,-12.81817 -9.34916,-24.14017 -16.4228,-33.65275 -1.18853,-1.59878 -2.40005,-3.1708 -3.64179,-4.72107 -3.72561,-4.65039 -7.7006,-9.08556 -11.91863,-13.30074 -3.45295,-3.45063 -7.92828,-6.03228 -11.72196,-9.1899 -3.94031,-3.27602 -7.88736,-6.60523 -12.20615,-9.56823 -9.29724,-6.38317 -19.76665,-11.88673 -30.89385,-16.83647 -3.81498,-1.69511 -7.15667,-3.76532 -11.19745,-5.29607 -1.30981,-0.49592 -2.29305,-1.24114 -3.62654,-1.71999 h -0.0297 l -0.0397,-0.0198 c -4.34634,-1.55934 -8.82444,-3.02185 -13.42689,-4.39828 0,-0.002 -6.9e-4,0.002 -0.0297,0 -4.62108,-1.38159 -9.36471,-2.67828 -14.25409,-3.87872 0,0 -0.0595,0.001 -0.0693,0 -3.70271,-0.90877 -8.5049,-1.11157 -12.36268,-1.91671 -10.07638,-2.10515 -21.21547,-3.61139 -32.38675,-5.02373 -7.13556,-0.89894 -13.01849,-2.57589 -20.61942,-3.19784 -6.02738,-0.49294 -12.21626,-0.89989 -18.54632,-1.22054 -3.16533,-0.16008 -6.36405,-0.29573 -9.60358,-0.4139 -2.88683,-0.10446 -5.75928,-0.18649 -8.61489,-0.20199 h -0.0595 -0.0595 c -2.81053,-0.0198 -5.59332,0.0198 -8.36284,0.0883 0.18231,-0.005 0.16546,-0.006 -0.0396,0 -0.24968,0.007 -0.42108,0.0198 -0.51918,0.0198 -2.5983,0.0685 -5.17917,0.17666 -7.75251,0.32313 -0.54394,0.0297 -1.00019,0.0883 -1.36678,0.11123 -2.25609,0.14061 -4.52398,0.2841 -6.78413,0.48411 -0.98681,0.0883 -1.87366,0.20397 -2.70849,0.28788 -1.67827,0.16783 -3.40519,0.32602 -5.13469,0.53495 -1.13364,0.13664 -2.19238,0.29474 -3.22814,0.43336 -1.61051,0.21569 -3.25886,0.44607 -4.90255,0.70079 -1.01129,0.15711 -1.95203,0.33278 -2.85492,0.48411 -1.53184,0.2567 -3.09657,0.50854 -4.68072,0.80715 -1.30267,0.24498 -2.54857,0.50457 -3.75266,0.75154 -1.27335,0.26157 -2.57483,0.53098 -3.8989,0.82671 -1.2133,0.27139 -2.39074,0.55143 -3.53568,0.8267 -1.0097,0.243 -2.03624,0.51142 -3.06685,0.772 -0.31903,0.0784 -0.63311,0.14836 -0.95312,0.23236 -1.17635,0.30646 -2.31445,0.62274 -3.42977,0.93312 -1.26413,0.35143 -2.55025,0.70565 -3.85362,1.09453 -1.23123,0.36702 -2.44157,0.75847 -3.61147,1.12978 -1.18259,0.37577 -2.36656,0.75848 -3.57095,1.16521 -1.17764,0.39731 -2.32516,0.80328 -3.45008,1.20543 -1.23332,0.4412 -2.48417,0.89304 -3.73246,1.36695 -1.07587,0.40804 -2.11282,0.8277 -3.13729,1.23569 -1.22667,0.48898 -2.46454,0.98582 -3.70222,1.50818 -1.08371,0.4577 -2.15662,0.91657 -3.20783,1.382 -1.16793,0.51728 -2.32862,1.04671 -3.50042,1.59389 -1.06121,0.49583 -2.10697,1.0066 -3.14243,1.51317 -1.14068,0.55829 -2.28682,1.1168 -3.42987,1.70476 -1.03952,0.53495 -2.07458,1.06937 -3.08686,1.61411 -1.10223,0.59344 -2.19357,1.20044 -3.28353,1.81574 -0.98284,0.55441 -1.96035,1.11641 -2.92536,1.68466 -1.15544,0.68024 -2.30424,1.37174 -3.44512,2.07812 -0.86492,0.53585 -1.72385,1.07892 -2.58751,1.6342 -1.13345,0.72909 -2.24103,1.47149 -3.33396,2.20919 -0.92736,0.62571 -1.85998,1.27179 -2.78417,1.92175 -0.9779,0.68709 -1.94401,1.36471 -2.89515,2.06298 -0.94223,0.69106 -1.88802,1.41313 -2.83471,2.13852 -0.9779,0.74965 -1.92061,1.49209 -2.85482,2.23955 -0.86591,0.69205 -1.75228,1.40551 -2.63288,2.13863 -0.97988,0.81598 -1.92091,1.62746 -2.85492,2.4412 -0.82436,0.71936 -1.66509,1.45568 -2.49665,2.20919 -0.8917,0.80814 -1.75794,1.62259 -2.60267,2.42109 -0.83617,0.79066 -1.68818,1.59409 -2.54718,2.44121 -0.87484,0.86285 -1.71355,1.72458 -2.53204,2.5674 -0.76388,0.7857 -1.55481,1.58677 -2.35041,2.4412 -0.87285,0.93698 -1.69234,1.88056 -2.49675,2.78418 -0.69358,0.77795 -1.41225,1.57232 -2.13859,2.4211 -0.21893,0.25472 -0.41416,0.50358 -0.62616,0.75649 -0.0297,0.0297 -0.0496,0.0586 -0.0694,0.0883 -0.60732,0.72711 -1.21499,1.4632 -1.79053,2.16889 -0.64103,0.78668 -1.31813,1.59447 -1.9974,2.4614 -0.83915,1.07132 -1.64013,2.13873 -2.42106,3.18778 -0.56081,0.75262 -1.16644,1.5406 -1.77547,2.39074 -0.84906,1.18376 -1.64745,2.37278 -2.42611,3.52062 -0.50034,0.73883 -1.04477,1.51708 -1.59891,2.36565 -0.78173,1.19684 -1.5031,2.37689 -2.20923,3.52061 -0.49042,0.79453 -1.02278,1.62894 -1.55859,2.53198 -0.0595,0.0981 -0.106,0.1855 -0.16152,0.28212 -0.0595,0.11321 -0.13079,0.23038 -0.19722,0.3426 -0.54891,0.94678 -1.07706,1.89744 -1.58385,2.79941 h -0.0198 c -0.5033,0.89692 -1.03318,1.83722 -1.5786,2.85485 -0.65194,1.21567 -1.25244,2.41007 -1.83105,3.55595 -0.43896,0.8697 -0.93034,1.78471 -1.4173,2.79423 -0.83717,1.73738 -1.62775,3.47504 -2.39085,5.20529 -0.14863,0.33574 -0.34873,0.78966 -0.59047,1.35182 -0.96601,2.24424 -1.90665,4.51658 -2.78418,6.81928 l -0.16152,0.4138 -0.0397,0.44409 c -4.63891,39.3773 -7.44667,50.0881 -9.1294,56.84958 -1.52549,-10.81249 -1.84532,-26.20627 1.20052,-44.78461 2.37558,-14.47494 6.01302,-28.0357 10.01704,-37.62227 l 0.12087,-0.28789 0.0793,-0.30258 c 3.92109,-17.31827 9.67551,-31.04211 13.82022,-35.62994 l 0.96799,-1.05921 -0.0198,-1.41733 c 0,-1.1249 -0.0298,-2.20695 -0.0298,-3.24829 0,-18.33463 2.89267,-35.65972 7.35898,-45.94974 l 0.37253,-0.84717 -0.0892,-0.9126 c -0.0198,-0.18351 -0.0298,-0.43336 -0.0496,-0.68123 v -0.0198 c 0.0298,-12.01411 9.20262,-24.39174 27.43873,-34.55057 l 2.89524,-1.61908 -1.3317,-3.01624 c -1.50291,-3.45718 -2.2235,-6.90335 -2.22429,-10.33995 0.0297,-11.15521 7.89826,-22.61661 23.76672,-32.39686 l 2.02771,-1.25594 -0.34278,-2.36557 c -0.16449,-1.1454 -0.25165,-2.30006 -0.25165,-3.45002 2e-4,-14.00329 12.27808,-27.648807 33.77879,-37.874498 21.49507,-10.222918 51.64812,-16.681652 84.96927,-16.685159 z m -8.0551,152.133587 h 0.0198 0.0496 c 2.7594,0.0198 5.53397,0.0784 8.33242,0.18153 17.56139,0.63733 32.37833,2.78302 47.63448,4.68572 11.32169,1.41498 22.48674,2.91508 32.61365,5.03887 15.00459,3.13917 29.4055,6.64787 41.95001,11.36894 4.37853,1.64718 7.95157,3.84945 12.04485,5.68949 10.34637,4.6541 20.11997,9.71512 28.75517,15.63097 4.26737,2.91947 8.11534,6.17626 11.98927,9.40688 9.50342,7.93042 18.67324,16.09605 25.98606,25.93054 11.73235,15.77777 18.03983,38.7377 24.43261,66.38258 1.26631,5.41874 3.02414,11.88712 4.32761,17.71405 3.12113,13.95235 6.58538,28.55524 10.8797,44.54764 0.86393,3.23726 1.13671,5.1796 2.07795,8.49388 1.1494,4.04592 2.39084,8.17911 3.67201,12.33728 l -7.66167,0.77696 c 0.23381,-7.66239 0.24174,-12.37263 0.24174,-12.37263 l -196.5046,-0.005 c 5.6383,-2.43632 6.71498,-3.11935 15.23247,-6.39567 17.67593,-6.79896 39.23232,-13.85006 53.49036,-15.0912 15.66089,-1.36316 36.59181,1.75259 53.43489,5.29605 16.84288,3.54336 29.60258,7.42959 29.60258,7.42959 l 0.47951,0.14647 0.48447,0.0198 c 9.9786,0.25571 18.34044,-7.68513 18.59676,-17.66369 0.1288,-4.99844 -1.83353,-9.2797 -5.00352,-12.49364 -3.17048,-3.21375 -7.54872,-5.3551 -12.21121,-6.05269 l 0.46861,0.0883 c -0.001,-4.9e-4 -0.78371,-0.18937 -0.80751,-0.19721 -0.7025,-0.21569 -10.72662,-3.21189 -25.34552,-6.46117 -13.18672,-3.0239 -27.31002,-5.1098 -42.87797,-5.85093 -2.00037,-0.10447 -3.94289,-0.7857 -5.89125,-0.80715 -3.41292,-0.0388 -6.73886,0.0487 -9.92628,0.32313 -16.08305,1.36433 -37.90527,8.65123 -56.01743,15.54527 -18.02409,6.86057 -32.17315,13.35334 -32.31106,13.41669 -3.88612,1.29288 -7.80523,2.88863 -11.05626,5.518 -3.33604,2.69742 -5.86737,6.80806 -5.99716,11.86829 -0.10404,4.08663 1.36836,7.96683 3.54083,11.3588 h -57.24808 c 2.26323,-2.21418 4.17473,-4.8133 5.03373,-8.08034 1.27176,-4.83535 0.34083,-9.46057 -2.00741,-13.31578 -2.34813,-3.85529 -6.12338,-6.94205 -10.50132,-8.69065 -0.38145,-0.22056 -10.90408,-6.33573 -25.94067,-13.26541 -15.3059,-7.05401 -34.82466,-14.72021 -51.65446,-17.20972 -15.89273,-2.35091 -33.11369,0.11024 -46.36838,3.15742 -11.21815,2.57873 -16.77342,4.79847 -19.08104,5.65934 1.70413,-6.92937 4.45442,-17.88983 8.88735,-55.23559 3.20961,-8.38778 7.05581,-16.32972 11.45465,-23.85252 0.12681,-0.21966 0.24768,-0.4714 0.37252,-0.6861 4.38071,-7.40774 9.35074,-14.35411 14.80882,-20.87158 0.19911,-0.24102 0.39731,-0.50069 0.59543,-0.73693 11.24421,-13.26414 24.69408,-24.56817 39.91724,-33.81928 0.33386,-0.20298 0.6678,-0.40407 1.00375,-0.60516 15.25378,-9.12793 32.27966,-16.20859 50.78179,-20.96742 0.31111,-0.0784 0.63311,-0.15413 0.94916,-0.23237 18.74299,-4.72897 38.93311,-7.17651 60.2744,-7.05636 z m -135.70217,161.64121 h 0.005 0.005 0.005 c 3.74354,0.0297 7.45112,0.28591 11.041,0.81698 30.90228,4.57113 75.49687,29.81444 75.49687,29.81444 l 0.21697,0.14647 0.25265,0.0883 c 6.14697,2.45496 9.68423,7.5275 8.14595,13.37638 -0.77082,2.93333 -2.62575,5.24706 -5.00866,6.63773 -2.34091,1.36627 -5.20861,1.77495 -8.09037,1.05921 -0.59744,-0.34458 -10.91983,-6.30694 -25.97604,-13.22509 -15.48304,-7.11404 -35.20938,-14.84641 -52.19394,-17.32071 -11.09807,-1.61673 -22.35862,-0.52611 -32.88621,1.15009 -2.73741,0.43435 -4.58064,0.64806 -7.12694,1.18024 -8.54216,1.74273 -11.43701,2.56994 -16.40267,4.2015 -1.58565,0.4851 -4.47306,1.04243 -5.72996,1.45773 l -2.81439,0.92826 0.0198,0.20199 c -0.24571,0.0981 -2.13403,0.63536 -2.20933,0.66573 -2.28513,0.16693 -3.91198,-1.02251 -5.28093,-3.66186 -1.38797,-2.67623 -1.86265,-6.54841 -1.10967,-9.41195 0.75397,-2.86471 2.19466,-4.26338 4.66566,-5.45241 2.46673,-1.18689 5.9929,-1.84338 9.80025,-2.17387 l 0.51917,-0.0388 0.48447,-0.18153 c 0,0 20.51678,-7.70777 42.89819,-9.76499 0,-4.9e-4 10e-5,5.9e-4 0.0198,0 3.72829,-0.34161 7.50958,-0.5271 11.25283,-0.49394 z M 104.8959,387.396 h 0.005 0.005 c 12.01295,-0.15223 26.10454,2.33715 39.04477,4.74125 3.79863,0.71161 7.95839,0.82085 11.43443,1.58385 14.0593,3.134 25.72379,6.37274 26.13744,6.49649 0,0.002 0.51421,0.1416 0.51421,0.1416 0,0 0.0198,0 0.0198,0 l 0.25265,0.0685 0.27247,0.0388 c 6.54675,0.97948 11.15573,5.11626 11.00068,11.16212 -0.0694,3.03259 -1.33884,5.7056 -3.33912,7.60616 -1.96738,1.86895 -4.66843,2.93304 -7.64145,2.89516 -0.7025,-0.2128 -12.69509,-3.88282 -29.3857,-7.39426 -17.16983,-3.61226 -38.4501,-6.91444 -55.59358,-5.42225 -15.94494,1.38813 -37.53294,8.66518 -55.45755,15.56039 -17.56188,6.75524 -30.8567,12.93882 -31.40826,13.19484 H 7.29166 c -0.96601,-0.40827 -1.90299,-1.14654 -2.85998,-2.25993 -1.9652,-2.28659 -3.32444,-5.96786 -3.24825,-8.92773 0.0693,-2.96134 1.15594,-4.64093 3.28868,-6.36533 2.13244,-1.72439 5.42112,-3.17138 9.05875,-4.36802 l 0.20212,-0.0685 0.17636,-0.0883 c 0,0 14.06484,-6.46605 31.92773,-13.26542 17.86278,-6.79936 39.64646,-13.87446 54.05016,-15.09638 1.62011,-0.13763 3.29423,-0.21569 5.00866,-0.23723 z m -274.29136,24.58389 c 5.14559,-0.28212 10.29475,-0.18937 15.23248,0.52999 25.93909,3.77888 56.17378,19.5133 67.43166,25.56238 l -121.31041,-0.005 -2.05288,-18.39505 c 1.12274,-0.37865 2.35339,-0.6852 3.89394,-1.1652 4.12242,-1.21822 8.60646,-2.40118 14.23377,-3.57607 2.35151,-0.4851 4.84163,-0.83554 7.34392,-1.23577 4.94071,-0.77497 10.08194,-1.43323 15.22752,-1.71492 z M 9.61186,457.3396 h 31.98321 c -1.83957,1.83858 -3.71996,3.6678 -5.2304,5.6239 l -0.86297,-0.74667 c -0.0693,0.0784 -0.0991,0.1855 -0.16149,0.26256 l -0.0297,-0.0297 c -0.9442,1.18004 -1.78399,2.39708 -2.44117,3.69211 l -0.46962,0.93796 C 23.97183,477.22096 17.9712,489.0504 14.59989,501.68079 14.3205,492.12877 13.98561,484.07225 13.06142,479.15988 9.46758,460.07624 10.9153,466.82397 9.61154,457.34008 Z m 43.14033,0 87.93497,0.005 c 3.8117,3.26236 8.36877,7.65694 13.04355,13.90102 -16.93414,2.30943 -37.35669,3.12736 -58.00969,1.80569 -20.41935,-1.30703 -38.16552,-4.35787 -51.64433,-7.71714 2.50656,-2.64334 5.38189,-5.37335 8.67553,-7.99453 z m 99.2081,0.005 h 53.26843 l -0.19117,9.78521 c 0,0 1.64815,5.84665 -1.33161,24.47789 -2.97985,18.63134 -3.29373,85.78451 -18.18824,100.23708 -24.50822,23.77933 -55.28566,22.10853 -81.64018,20.82619 -26.35444,-1.28244 -58.44733,-4.65947 -75.48678,-26.6821 -5.24269,-6.77575 -8.36145,-17.69921 -10.28454,-30.11702 12.76217,31.03978 42.73679,52.89443 77.7061,52.89521 46.55949,0.002 84.29078,-38.7293 84.28831,-86.31596 -0.002,-16.11549 -5.17769,-31.47403 -13.42183,-45.09238 l 0.57469,-0.10059 -2.73385,-4.52946 c -0.3864,-0.6422 -0.77479,-1.27013 -1.16515,-1.88641 h -0.0198 c -0.0496,-0.0685 -0.0694,-0.14647 -0.11095,-0.21182 l -0.34377,0.23237 c -3.60444,-5.54905 -7.32698,-9.85919 -10.92498,-13.51762 z m -396.96358,1.92176 h 0.005 31.99322 l 0.37847,3.41471 -1.12987,1.52323 c -10.71266,14.32949 -16.5183,31.84599 -16.53376,49.87901 2e-4,25.73104 12.32722,47.79633 30.46505,62.88207 l 2.84472,25.4716 c -12.95424,-2.11748 -25.10521,-6.64001 -36.61326,-21.68359 -17.6868,-23.12069 -11.40924,-121.48697 -11.40924,-121.48697 z m 46.14644,0 99.00133,0.005 c 3.67429,4.26583 7.8295,9.30176 10.76368,14.21363 -0.39433,0.17378 -0.82433,0.33963 -1.38203,0.52413 -0.39929,0.13178 -0.51719,0.24688 -0.9888,0.3728 0,0.002 -1.9e-4,-0.002 -0.0198,0 -2.18782,0.58469 -5.98517,0.93311 -9.42187,1.33163 -1.85583,0.2147 -3.00542,0.56613 -5.13469,0.71639 -6.59827,0.46455 -15.70339,-0.0487 -23.97865,-0.16107 -6.91531,-0.0883 -12.85907,0.29185 -20.06954,-0.14647 -0.0198,-0.001 -0.0297,10e-4 -0.0496,0 -15.53466,-0.94481 -30.72146,-2.65944 -41.85916,-4.7766 -0.0198,-0.002 -0.0595,0.002 -0.0793,0 -0.68367,-0.14547 -1.24154,-0.27725 -1.88128,-0.42354 -4.51982,-0.9341 -8.3449,-1.92262 -10.75358,-2.87495 l -0.21695,-2.01252 c 1.66777,-2.19631 3.73829,-4.51774 6.0678,-6.76892 z m 108.12062,0.005 h 15.75719 c -2.47793,5.5957 -4.1032,11.11985 -5.11448,15.03079 -0.0991,-0.17766 -0.16347,-0.36793 -0.26255,-0.54459 l 0.0595,-0.31232 -0.55484,-1.10967 c -0.0891,-0.17864 -0.27147,-0.30546 -0.36362,-0.48411 l -4.30739,-7.46493 -0.26751,1.10966 c -1.61695,-2.35898 -3.23647,-4.06131 -4.94793,-6.22424 z m 52.72886,2.49674 c 7.66345,-0.01 15.34364,4.92407 21.11867,13.61844 13.05524,19.65493 -0.87089,93.62571 20.66985,121.46678 21.54133,27.84105 60.82675,33.40358 94.14405,35.02469 33.31749,1.62123 70.94346,2.44657 101.92678,-27.6152 18.82969,-18.27108 21.35566,-84.83648 24.27617,-122.8639 l 18.62708,-4.44874 c 0.48248,1.29297 0.91051,2.55687 1.40719,3.85852 l -1.02386,7.68182 5.47264,-1.7199 c 11.63873,-3.68459 26.25743,-5.69741 37.83919,0.17666 11.26917,5.71547 19.1606,18.84735 23.69112,34.42951 4.53012,15.58216 5.6497,33.37557 4.12588,47.32674 -1.53609,14.06391 -5.62136,29.52651 -12.53905,42.23743 -6.91779,12.71101 -16.50949,22.53046 -29.09827,26.2585 -14.39448,4.2628 -30.92299,-4.35651 -42.05583,-12.61479 l -4.9733,-3.69717 -6.67802,50.27237 -83.41068,68.11775 -0.32295,1.05914 c 0,0 -8.49283,22.09459 -17.9158,42.757 l -3.26343,-3.33902 c 0,0 -19.15574,-19.70562 -42.16689,-39.9224 C 60.33779,729.72396 47.86869,719.47767 36.24848,711.44029 24.62867,703.403 14.07988,697.46012 5.14289,696.30867 c -9.11523,-1.17428 -17.15774,-1.84415 -24.46283,-1.93688 l -0.14664,-0.11122 h -1.09451 c -0.90358,-0.002 -1.68164,0.32412 -2.58255,0.3426 20.71087,-13.80361 31.68519,-28.28722 36.4522,-39.70545 5.06574,-12.13279 4.07546,-21.1439 4.07546,-21.1439 -0.24473,-1.99601 -2.05883,-3.41763 -4.05525,-3.17762 -1.99829,0.24498 -3.42075,2.0619 -3.17771,4.06026 0,0 0.90161,6.72676 -3.57115,17.44184 -4.47365,10.71489 -14.36555,25.05981 -36.70426,38.93369 -11.49041,7.1362 -28.82293,9.59663 -40.65368,5.00851 -5.91572,-2.29402 -10.45426,-6.11086 -12.94765,-11.96912 -2.49328,-5.85816 -2.99115,-14.04644 0.28237,-25.25472 12.08459,-41.37246 28.97711,-135.8973 28.97711,-135.8973 0.35767,-1.98295 -0.95709,-3.88039 -2.94063,-4.23684 -1.98917,-0.3563 -3.89453,0.97512 -4.2419,2.96582 0,0 -17.04044,94.87614 -28.79549,135.12055 -3.59998,12.3245 -3.31909,22.36932 0,30.16749 2.35596,5.53538 6.52752,9.35017 11.20755,12.37261 -6.7666,0.2147 -13.88047,1.33251 -23.29778,3.90899 -6.62601,1.81272 -12.82746,6.78814 -18.88417,12.99806 -6.05651,6.20994 -11.86959,13.77098 -16.99794,21.10866 -10.21737,14.61889 -17.60647,28.34132 -17.66374,28.44743 -2.4057,-9.41078 -3.88314,-19.71315 -3.92912,-31.15601 v -0.96799 l -0.48447,-0.82734 v -0.0198 c -2.29473,-3.97458 -4.70459,-7.57553 -6.8193,-10.93012 -3.41075,-5.41503 -6.65326,-10.65213 -10.93519,-17.55271 l -8.87715,-79.24447 c 2.30494,0.29275 4.60146,0.57785 6.96555,0.89304 27.91757,3.72334 66.43653,4.15818 91.97524,-20.78578 25.53842,-24.94405 19.69909,-112.89432 31.25182,-131.02992 5.41538,-8.50111 12.16276,-12.35495 18.9247,-12.36255 z m 75.93568,9.96167 c 28.80174,8.03894 84.51174,12.54586 121.13881,6.58726 8.63887,13.06268 13.72749,28.2763 13.72947,44.13399 0.002,43.74133 -34.46758,79.03424 -76.98482,79.03259 -42.51574,-8.9e-4 -76.98679,-35.29293 -76.98471,-79.03259 0.0198,-18.82568 7.29151,-36.49492 19.10125,-50.72125 z m 221.3355,1.28613 c -0.31006,1.28909 -0.57469,2.81894 -0.88872,4.08058 -2.49834,0.42453 -4.83765,1.01549 -7.17747,1.62913 -0.45969,-1.20054 -0.76686,-2.30406 -1.21043,-3.49544 z m -470.0595,1.09455 1.23064,0.59533 c 2.34676,1.13584 7.74658,1.69306 11.29335,2.58244 0.11393,0.0297 0.24273,0.0586 0.35865,0.0883 1.42513,0.32493 2.26145,0.75253 3.84341,1.05931 0.0198,0.005 0.0595,-0.005 0.0793,0 0.41119,0.0784 1.1072,0.10347 1.52817,0.18153 4.04464,0.78669 6.26369,1.90378 11.18228,2.5673 12.43393,1.67715 27.09582,2.8774 41.26401,3.42477 1.89783,0.0784 3.74641,0.10158 5.61898,0.15124 l -4.36803,10.49635 -10.22906,-9.80023 3.27857,13.78486 -14.03204,-1.92164 10.75347,9.22016 -12.48357,6.70333 14.12291,1.13992 -6.15856,12.7559 12.09013,-7.3842 2.51686,13.94131 5.44243,-13.07878 10.23392,9.80023 -3.28343,-13.77988 14.03205,1.91667 -10.75368,-9.22017 12.48377,-6.70332 -14.12291,-1.13494 6.15856,-12.75591 -12.09022,7.37913 -2.04279,-11.3134 c 11.53381,0.26454 22.43115,0.0784 31.12085,-0.75163 5.24021,-0.50168 9.67581,-1.22797 13.17463,-2.29996 1.05112,-0.32214 1.88347,-0.7994 2.78418,-1.22065 1.69343,3.36143 2.75237,6.97876 3.9846,10.52661 -0.74308,14.81137 -2.60406,41.2074 -7.19759,63.86563 -13.02324,20.48184 -35.45062,34.06222 -61.05107,34.06134 -10.03962,-2e-4 -19.59545,-2.09041 -28.30129,-5.85093 -0.0991,-0.0388 -0.17937,-0.10447 -0.27248,-0.14647 -26.07562,-11.39871 -44.37077,-37.89946 -44.37107,-68.90947 0,-14.3458 4.69915,-27.97567 12.18593,-39.9728 z m 310.22399,6.82435 -5.72985,13.76983 -10.76864,-10.31471 3.45503,14.50617 -14.77354,-2.01759 11.32347,9.70955 -13.13936,7.05128 14.8644,1.19547 -6.48146,13.42675 12.72572,-7.76761 2.64805,14.67775 5.72994,-13.76983 10.76864,10.3148 -3.45513,-14.50625 14.77364,2.01759 -11.32357,-9.70448 13.14432,-7.05636 -14.8643,-1.19545 6.48146,-13.42677 -12.73087,7.7726 z m -192.90739,91.55659 c -2.56353,7.83329 -5.65713,14.16239 -9.39166,17.80989 -19.49974,19.04627 -51.20484,17.56091 -72.52097,14.71807 -4.82825,-0.64419 -9.53523,-1.05941 -14.15313,-1.57877 l -2.16375,-19.33299 c 3.19951,2.01369 6.48442,3.83529 9.96165,5.38185 0.24075,0.10645 0.44382,0.25869 0.68664,0.36315 9.60398,4.15876 19.80332,7.09149 30.87354,7.09179 22.25212,7.7e-4 42.20514,-9.44817 56.70841,-24.45281 z m 309.87605,110.15834 c -0.50925,5.04697 -2.62367,19.58845 -4.96834,35.95283 -2.57492,16.69015 -5.4562,34.87325 -9.39166,46.68616 -10.2566,30.78804 -25.65879,68.71769 -46.95352,92.01042 -8.29943,9.07797 -17.43022,17.62262 -27.18648,25.47164 -2.46306,1.98204 -4.95862,3.93367 -7.50026,5.8207 -0.15855,0.1169 -0.31115,0.23579 -0.4696,0.35369 v 0.005 c -2.65707,1.96233 -5.37486,3.84818 -8.11059,5.69954 -1.52113,1.02951 -3.04078,2.05813 -4.58481,3.05159 -0.18919,0.12087 -0.3755,0.24173 -0.56478,0.3626 -2.07924,1.32972 -4.1768,2.62734 -6.29479,3.88896 -0.36657,0.21902 -0.73612,0.42903 -1.10462,0.64535 -1.71731,1.01013 -3.44908,1.99214 -5.19016,2.95567 -0.52711,0.29204 -1.05489,0.58587 -1.58377,0.8725 -1.91496,1.04006 -3.8445,2.05514 -5.78533,3.03643 -0.16744,0.0901 -0.32597,0.17756 -0.49341,0.26229 -0.25562,0.12799 -0.5162,0.24607 -0.77181,0.37225 -1.84086,0.91549 -3.69619,1.79718 -5.55835,2.65814 -0.66977,0.30916 -1.34003,0.61561 -2.01247,0.91747 -1.5783,0.70936 -3.16463,1.39861 -4.75641,2.06794 -0.58654,0.24697 -1.17189,0.50566 -1.76031,0.74721 -2.0838,0.85357 -4.17503,1.66505 -6.27963,2.44633 -0.64995,0.24066 -1.30555,0.46689 -1.95698,0.70034 -1.52599,0.54891 -3.05961,1.07466 -4.59492,1.58374 -0.81937,0.2722 -1.63874,0.5417 -2.46158,0.80219 -1.75189,0.55342 -3.51319,1.08666 -5.27578,1.58879 -0.3646,0.10366 -0.72426,0.22173 -1.08945,0.32268 -0.75795,0.21091 -1.52709,0.39569 -2.28998,0.59579 -0.89269,0.23344 -1.78389,0.4732 -2.68332,0.69042 -0.96997,0.23435 -1.94895,0.45247 -2.92556,0.6706 -0.83324,0.18657 -1.66837,0.37135 -2.50676,0.54531 -0.95907,0.19829 -1.92002,0.38397 -2.88514,0.56514 -0.84215,0.15863 -1.6857,0.30375 -2.53192,0.44886 -0.93133,0.15954 -1.86415,0.32539 -2.79944,0.4696 -0.96799,0.14962 -1.94301,0.27671 -2.91535,0.40921 -1.4186,0.19198 -2.84115,0.36774 -4.26707,0.52458 -1.14376,0.12618 -2.28196,0.25598 -3.42987,0.35873 -0.88476,0.0811 -1.77587,0.1316 -2.6632,0.19739 -0.96898,0.0721 -1.93885,0.14782 -2.91031,0.2019 -0.87783,0.0451 -1.75387,0.0901 -2.63288,0.12078 -1.01158,0.0361 -2.02376,0.0811 -3.03643,0.10005 -0.89963,0.018 -1.80262,0.0361 -2.70353,0.0451 -0.91548,0.008 -1.83274,0.002 -2.74891,-0.005 -0.97591,-0.008 -1.94994,-0.009 -2.92546,-0.027 0,-9e-5 -2e-4,2.7e-4 -0.0198,0 -0.537,-0.009 -1.07262,-0.036 -1.60902,-0.0631 -1.12315,-0.0361 -2.24252,-0.0721 -3.36428,-0.12619 -0.96997,-0.0451 -1.94132,-0.12979 -2.9102,-0.19739 -0.88377,-0.0631 -1.76596,-0.11628 -2.64805,-0.19109 -1.00791,-0.0901 -2.01583,-0.19288 -3.02137,-0.29834 -0.82432,-0.0901 -1.64914,-0.17035 -2.47148,-0.2677 -0.98285,-0.11627 -1.96105,-0.24066 -2.94053,-0.37225 -0.84711,-0.11357 -1.69283,-0.23976 -2.53717,-0.36775 -1.03477,-0.15683 -2.07142,-0.30916 -3.10192,-0.48492 -0.47954,-0.0811 -0.95313,-0.17666 -1.43246,-0.26229 -1.17566,-0.21091 -2.3523,-0.42092 -3.52062,-0.65617 l -0.72129,-0.14692 c -5.7788,-1.19067 -11.46367,-2.67355 -16.99784,-4.47389 -31.88324,-10.37269 -61.51565,-31.64141 -82.80046,-57.69196 -22.16028,-27.12228 -47.58624,-67.288 -48.5574,-145.42524 3.47722,5.42323 7.15983,11.05364 10.66282,17.08874 0.15855,11.80568 1.5674,22.695 4.16621,32.50278 0.56776,2.14473 1.67005,3.74701 2.33536,5.80039 l -0.1417,0.26752 0.212,-0.0892 c 7.9e-4,0.002 0.0198,-0.002 0.0198,0 5.66119,17.37146 14.14966,32.00293 24.32155,43.327 5.70557,6.35186 11.78101,11.82103 17.84019,16.49343 12.11827,9.34479 24.23427,15.59707 33.33008,19.5148 0,0.002 0.0198,-10e-4 0.0198,0 9.07987,3.9087 15.15183,5.51297 15.15183,5.51297 l 3.53568,0.91251 0.9125,-3.53578 c 0,0 2.74584,-10.57395 5.49276,-22.5664 2.44444,-10.66976 4.43233,-21.02315 4.95318,-28.21034 0.71931,-0.23678 1.50063,-1.00474 2.20914,-1.1702 1.56503,-0.51719 3.10964,-1.02595 4.84717,-1.10967 4.54656,-0.11691 8.9355,0.6212 12.85184,2.27987 2.62565,1.18863 5.2947,4.67884 7.33887,9.90607 2.05486,5.25467 3.47454,11.93498 4.38318,18.45061 1.81689,13.03127 1.66936,25.28994 1.66936,25.28994 l -0.0496,3.44512 3.44512,0.23678 c 0,0 46.59586,3.48545 71.7239,-1.5788 14.56608,-2.93566 27.28486,-11.95479 38.21757,-23.76671 10.93261,-11.81202 20.0843,-26.41892 27.5496,-40.49734 2.26114,-4.2646 1.54382,-4.19653 3.48534,-8.30735 l 0.48447,0.12582 -0.38343,-0.37847 c 10.48626,-22.27173 18.61458,-44.15489 18.90438,-45.10742 z m -236.98677,18.89946 c 7.09236,0.0198 15.39298,0.77885 24.81079,1.99232 6.25853,0.80616 16.63224,6.13614 27.87248,13.91097 11.24065,7.77483 23.55152,17.88194 34.92889,27.87757 16.88965,14.83894 24.47532,22.79774 30.99472,29.33012 -20.19606,-5.44639 -98.88313,-27.02726 -152.97598,-52.34031 -0.0595,-0.0298 -0.12881,-0.0685 -0.21698,-0.14647 l -2.86998,-2.45633 2.86998,-5.96192 c 0.0991,-0.20695 0.15456,-0.31827 0.15654,-0.32313 2.2453,-4.02923 6.70101,-7.05586 12.84174,-9.04369 6.14072,-1.98782 13.78861,-2.86627 21.5877,-2.83963 z m -41.22874,2.47655 c 2.48447,0.26544 4.84044,0.85005 7.3792,0.75649 -1.13335,0.92043 -2.58097,1.48212 -3.52062,2.58243 -1.17764,-1.33699 -2.52113,-2.3272 -3.85858,-3.33907 z m -16.20601,1.85614 c 0.81244,-0.0198 1.58762,-0.01 2.33031,0.0297 5.94138,0.31827 9.67214,2.15571 13.48227,7.2178 0.1823,0.24498 0.39829,0.5563 0.61031,0.9126 l 3.37429,5.72474 -2.22429,2.98095 c 0,-0.0198 -2.00206,1.70888 -4.92287,3.39451 -2.9208,1.68574 -6.85398,3.69054 -11.42938,5.87114 -9.1507,4.36109 -20.83363,9.40454 -32.31116,14.17323 -17.74924,7.37454 -27.95313,11.24481 -34.87331,13.91613 2.89555,-5.06523 4.88354,-9.09096 11.55542,-18.63727 4.98587,-7.13338 10.62557,-14.41247 16.24643,-20.17537 5.62047,-5.76289 11.31049,-9.88378 15.59569,-11.05621 9.46409,-2.58917 16.88033,-4.20327 22.56629,-4.35289 z m 20.65469,23.29259 h 0.005 c 30.64021,14.27063 71.27537,27.99653 104.99848,38.4294 -0.15555,0.0694 -0.3012,0.15854 -0.44386,0.25165 -1.24897,1.57246 -0.99226,3.85858 0.57465,5.11448 7.66434,6.14499 9.81452,10.60704 9.87089,12.97797 0.0595,2.37082 -1.54462,4.27212 -4.87748,6.20899 -6.66594,3.87373 -18.16805,5.36673 -18.16805,5.36673 -2.00235,0.21695 -3.44938,2.01741 -3.23319,4.01997 0.21698,2.00454 2.01583,3.45215 4.01997,3.2332 0,0 12.12609,-1.12077 21.03812,-6.29984 4.45631,-2.58959 8.64857,-6.82545 8.50897,-12.69045 -0.12186,-5.08337 -3.78724,-10.2893 -10.08777,-15.95881 30.06745,9.08204 55.64421,15.99418 55.64421,15.99418 l 5.09427,1.32645 c -1.6227,3.3731 -0.99761,3.30473 -2.83461,6.76888 -7.27199,13.71441 -16.2396,27.58595 -26.49561,38.66133 -5.12775,5.53784 -10.5686,10.38105 -16.29676,14.14808 -5.72827,3.76712 -11.73504,6.46133 -17.96632,7.71714 -21.32792,4.29838 -61.56865,1.89307 -66.62973,1.57881 0,-2.77339 0.16645,-10.97363 -1.48785,-22.83371 -0.81145,-5.81248 -2.27571,-11.62417 -4.07555,-17.05333 0.0792,0.0892 1.29633,0.91846 1.29633,0.91846 1.342,1.49022 3.63109,1.62011 5.12964,0.28834 1.49934,-1.34329 1.62943,-3.64923 0.28831,-5.14986 0,0 -7.22097,-8.1723 -18.23869,-12.9627 -0.11889,-0.0496 -0.29426,-0.0198 -0.41414,-0.0694 -0.0198,-0.008 -0.0198,-0.0297 -0.0298,-0.0397 -5.19503,-2.30395 -11.07736,-3.02651 -16.91213,-2.58245 -1.63815,0.10005 -3.16602,0.84113 -4.84717,1.20032 -2.00533,0.56081 -4.1569,0.35071 -6.01232,1.48795 l -1.7402,1.05923 v 1.38213 c -3.69014,1.77597 -7.35502,2.06865 -10.9654,5.56836 -1.44436,1.39699 -1.48993,3.70064 -0.10106,5.14985 1.39868,1.44604 3.70639,1.48231 5.1548,0.0892 1.58465,-1.5358 2.9755,-1.26175 4.52438,-2.38063 -0.88873,6.31927 -1.9659,13.53162 -3.9846,22.34436 -2.245,9.80114 -3.76871,15.66168 -4.48405,18.45051 -4.61117,-1.36112 -22.20784,-6.88162 -42.404,-22.45542 -11.50388,-8.87091 -22.97289,-20.57038 -31.58977,-35.93255 -3.43918,-6.13131 -5.9711,-13.31373 -8.32241,-20.66479 l 2.23945,-0.83716 c 0,0 19.94242,-7.78729 39.70046,-15.853 -2.98422,2.52648 -7.5834,4.95309 -8.62499,7.7223 -1.93529,5.14312 0.15358,10.18646 3.13729,13.52765 5.96743,6.68218 15.70665,9.84057 15.70665,9.84057 1.89892,0.68268 3.98817,-0.30816 4.66557,-2.20922 0.68069,-1.90447 -0.3161,-3.9961 -2.2244,-4.66557 0,0 -8.80819,-3.43808 -12.71065,-7.808 -1.95124,-2.18485 -2.6208,-3.78278 -1.7401,-6.12328 0.88079,-2.34041 4.25191,-6.14152 12.5442,-10.39036 1.79836,-0.91944 2.50993,-3.12282 1.58376,-4.91781 -0.0694,-0.0297 -0.13475,-0.0496 -0.20217,-0.0694 9.21461,-3.89474 18.64015,-7.88885 26.12229,-11.45465 4.67735,-2.22914 8.73289,-4.29114 11.93379,-6.13845 1.97025,-1.13701 3.03078,-2.23321 4.35792,-3.28362 z m 2.36053,28.39205 c -13.62138,0.10599 -29.09828,0.64896 -46.67601,1.74515 -2.01455,0.12682 -3.54242,1.86464 -3.40966,3.87878 0.12682,2.00653 1.85186,3.53152 3.85847,3.40966 69.84529,-4.35703 105.78982,0.20208 123.79706,5.57856 9.00387,2.68827 13.48871,5.56112 15.60075,7.45489 1.05627,0.94718 1.5249,1.63537 1.72504,1.9872 0.19914,0.3517 0.0693,-0.0198 0.0693,-0.0198 0.35668,1.98314 2.25382,3.30276 4.23675,2.94567 1.98324,-0.35666 3.30285,-2.25391 2.94568,-4.23685 0,0 -0.28535,-1.2237 -0.89765,-2.29998 -0.61229,-1.07638 -1.63012,-2.39996 -3.21803,-3.82331 -3.17504,-2.84679 -8.64888,-6.10446 -18.37482,-9.00832 -9.72595,-2.90386 -23.72183,-5.46026 -44.08355,-6.74876 -10.18091,-0.64401 -21.94815,-0.96898 -35.56942,-0.86295 z"
     id="path10" />
</svg>
