<?xml version="1.0" encoding="UTF-8" standalone="no"?>
<svg
  viewBox="0 0 135.35093 212.4139"
  version="1.1"
  id="svg26"
  width="2000px"
  sodipodi:docname="me-ricknmorty.svg"
  inkscape:version="1.1.2 (0a00cf5339, 2022-02-04)"
  xmlns:inkscape="http://www.inkscape.org/namespaces/inkscape"
  xmlns:sodipodi="http://sodipodi.sourceforge.net/DTD/sodipodi-0.dtd"
  xmlns="http://www.w3.org/2000/svg"
  xmlns:svg="http://www.w3.org/2000/svg"
>
  <defs id="defs30" />
  <sodipodi:namedview
    id="namedview28"
    pagecolor="#ffffff"
    bordercolor="#666666"
    borderopacity="1.0"
    inkscape:pageshadow="2"
    inkscape:pageopacity="0.0"
    inkscape:pagecheckerboard="0"
    showgrid="false"
    inkscape:zoom="9.5073675"
    inkscape:cx="71.050162"
    inkscape:cy="66.632535"
    inkscape:window-width="2560"
    inkscape:window-height="1017"
    inkscape:window-x="1920"
    inkscape:window-y="27"
    inkscape:window-maximized="1"
    inkscape:current-layer="svg26"
  />
  <path
    style="fill: currentColor"
    d="m 69.807615,96.340662 c -2.31304,0.0173 -4.69118,0.23374 -6.64743,0.92349 -17.28209,8.749128 -56.13566,38.561728 -57.72541,42.697418 -1.58976,4.13569 -1.23471,4.6718 -0.33086,7.56509 2.96871,3.16311 8.14392,8.92437 13.44326,14.32199 0.0121,0.10456 0.0249,0.20925 0.0399,0.31481 0.0485,0.3404 0.33223,0.474 0.73276,0.4744 8e-5,8e-5 4e-4,-8e-5 5e-4,0 0.94978,7.5e-4 2.56133,-0.75169 3.28966,-1.30496 1.64044,-1.24615 5.94629,-2.48488 5.94629,-2.48488 l -0.19462,-11.73494 c 0,0 -0.21203,0.10468 -0.56588,0.30361 -3.71485,-4.99621 -5.6568,-5.17314 -5.6568,-5.17314 l 40.62076,-31.64074 9.64661,94.06928 52.199035,1.14196 -1.52781,-22.93174 c 0.75012,0.0451 1.50712,0.09 2.29414,0.13478 2.87728,-0.75521 4.89934,-4.02961 5.64948,-6.90823 -3.24535,-18.73923 -9.4464,-61.09303 -12.39471,-71.90874 -0.63989,-2.34737 -1.03761,-2.65944 -2.9189,-3.32031 -5.78129,-2.030908 -21.836485,-4.296838 -21.836485,-4.296838 -0.44955,2.86932 -3.46839,8.845548 -9.89281,14.136608 -8.13368,-7.0291 -6.28957,-10.15778 -6.60607,-14.040268 -1.72402,-0.0542 -4.59069,-0.36093 -7.56461,-0.33865 z"
    id="path2"
  />
  <path
    style="fill: #f4dfcf"
    d="m 81.869895,150.07237 c -0.9915,-0.0132 -1.92349,0.30183 -2.52138,0.95998 -1.65987,1.82723 -7.81566,2.97097 -7.81566,2.97097 0,0 -6.812,7.87281 -11.56415,9.01505 -0.51847,0.12461 -1.88721,0.69997 -0.81208,2.24695 0.46372,0.66723 2.33404,0.70454 2.33404,0.70454 0,0 -0.74582,0.49446 0.22819,1.42319 1.78607,1.70304 6.56642,2.69986 9.34981,2.24988 -1.52967,2.25869 3.67855,0.64405 5.53711,0.79164 -0.21499,1.92284 2.87742,0.557 4.18395,0.0686 2.01512,-0.75328 3.64087,-1.9799 4.95322,-3.50861 1.67543,0.84195 4.26419,2.08766 6.21877,2.77487 1.11382,-1.89756 1.08965,-6.03004 1.25923,-8.74938 -1.34434,-0.5886 -2.94964,-1.20215 -4.32605,-1.70493 -0.007,-0.40652 -0.0396,-0.80784 -0.1012,-1.19499 -0.38949,-2.44718 -2.11583,-4.87501 -3.38649,-6.40269 -0.88916,-1.06902 -2.26252,-1.6281 -3.53731,-1.64507 z m -41.98506,-2.66146 c 0,0 -7.31101,0.29204 -11.30143,1.76184 l -1.34535,-1.09477 c -1.61569,0.90569 -3.97293,3.38945 -5.72733,6.18569 l 1.69227,1.9662 c -0.2609,0.99639 -0.38614,2.0155 -0.35276,3.03956 0.10082,3.09162 1.36306,6.20432 5.76481,7.27218 0.11281,2.7194 3.11426,1.94568 5.21061,1.98372 2.26981,1.11949 4.56291,-1.29757 6.63233,-2.25328 1.83789,0.81037 4.58029,-1.51383 5.73028,-3.41762 0.75301,-1.24662 0.23501,-4.36302 0.23501,-4.36302 z M 77.825595,21.866318 c -8.94357,-0.05036 -16.069,4.192797 -18.81979,11.415268 -0.9904,8.406831 -1.33369,5.340426 -0.99065,8.406846 l 3.40789,30.462282 c 1.25004,11.174321 5.81939,20.463454 16.23613,21.911904 l 0.35909,8.322192 c 0.73466,1.99653 2.37693,4.35567 6.00565,7.49161 6.42442,-5.29106 9.44326,-11.267292 9.89282,-14.136612 0,0 0.25545,0.0368 0.44179,0.0637 l -0.21212,-6.64938 h -9.4e-4 c 4.46628,-4.070699 7.247885,-10.229619 8.171335,-17.197096 l 1.1366,-8.574223 c 1.17947,0.871583 2.95724,1.832333 4.62138,1.339509 2.82274,-0.835925 4.2081,-4.372096 4.53185,-7.336406 0.32376,-2.964303 -0.46682,-7.438116 -3.05414,-8.750359 -1.33517,-0.677152 -2.94067,-0.430505 -4.18301,-0.03357 -3.17466,-8.319834 -3.07255,-14.935712 -5.796405,-18.598891 -3.81231,-5.126915 -10.30749,-7.734741 -20.8765,-8.118312 -0.29219,-0.0106 -0.58244,-0.01686 -0.87095,-0.01849 z"
    id="path4"
  />
  <path
    style="fill: #ffffff"
    d="m 84.507125,47.26508 c -1.50723,1.580744 -2.35202,3.702978 -2.35399,5.913596 -2.3e-4,4.678272 3.69865,8.470896 8.26159,8.47099 4.56313,1.79e-4 8.2623,-3.792539 8.26207,-8.47099 -2.3e-4,-1.834917 -0.5816,-3.62014 -1.65665,-5.087115 0.0385,0.06073 0.0767,0.122553 0.11484,0.185863 -3.72283,0.674561 -10.0002,0.151186 -12.83539,-0.698268 0.0523,-0.103148 0.12293,-0.208235 0.20753,-0.314076 z m -25.53096,0.627565 c -1.04878,1.402864 -1.61786,3.120746 -1.61936,4.888305 2e-5,4.444097 3.51382,8.046761 7.84837,8.046846 4.33471,1.6e-4 7.84878,-3.60257 7.84881,-8.046846 -2.3e-4,-1.603728 -0.46789,-3.170791 -1.3429,-4.50012 -0.27554,1.421715 -11.70167,0.377461 -12.73492,-0.388185 z"
    id="path6"
  />
  <path
    style="fill: #a7a3a0"
    d="m 73.621315,157.81955 5.43347,-0.61863 -5.2866,4.1145 -1.73376,-1.11913 z m -9.13231,-32.78965 c -0.0272,9.5e-4 -0.0443,0.007 -0.0443,0.007 l -4.78537,3.45558 6.33165,14.31372 0.28756,10.75014 3.02108,0.31822 -0.18003,-3.9947 0.69093,1.56139 c 0,0 2.28078,-0.41395 2.05863,-1.17165 -1.73728,-5.92616 -5.08537,-13.79601 -7.39041,-21.49102 0.90636,-3.56668 0.20082,-3.75632 0.0103,-3.748 z"
    id="path8"
  />
  <path
    style="fill: #13181b"
    d="m 31.121735,150.60067 1.02041,3.95347 4.08901,-0.77792 -0.44482,-1.7701 z m 37.02402,-2.33174 -0.008,5.33344 -4.03766,0.33905 -0.008,-2.38407 z"
    id="path10"
  />
  <path
    style="fill: #6b747b"
    d="m 64.625715,125.1423 c 0,0 -29.20088,0.69238 -41.97584,0.69238 -1.44829,0 -2.41111,2.43907 -2.03626,3.83801 2.41785,9.02355 9.6612,22.52887 9.6612,22.52887 l 5.51131,-0.1956 0.4452,1.77012 0.29292,0.002 c -0.92713,1.33011 -1.22392,3.39962 -0.67925,4.60338 8.33259,2.49084 19.01688,0.62414 29.5889,0.5722 -0.31404,-0.89468 0.49076,-4.02683 0.89528,-4.77757 -0.15755,-0.0479 -0.31355,-0.0925 -0.47051,-0.13915 l 0.17176,0.001 -0.17127,-2.47174 4.1319,-0.0209 c 0,0 -4.30037,-13.22472 -7.67992,-21.637 -0.6585,-1.6391 2.31458,-4.76686 2.31458,-4.76686 z"
    id="path12"
  />
  <path
    style="fill: #3d4142"
    d="m 36.188515,153.60724 -4.0886,0.77802 c 0,0 -1.03463,0.406 -0.90695,2.87413 0.0984,0.0773 0.19699,0.1489 0.29583,0.21554 l -0.38536,-0.001 2.31312,4.23992 35.93418,2.11606 -0.78385,-6.00663 0.0511,-0.0185 1.93019,-1.52927 -0.55808,-1.87813 -4.01075,-0.10851 -0.18603,2.67562 -1.44104,0.62134 -28.75834,-0.0968 z"
    id="path14"
  />
  <path
    style="fill: #696a69"
    d="m 69.990085,154.39694 c -1.02752,0.66591 -1.37211,3.4074 -1.37211,3.4074 l 0.81304,6.22996 4.33723,-2.71892 -0.14694,-3.49596 -1.29718,-3.33393 c 0,0 -1.21743,-0.0885 -2.33404,-0.0885 z"
    id="path16"
  />
  <path
    style="fill: #c29f8b"
    d="m 74.742395,81.699251 c 0,1.155593 -1.12033,5.467801 -1.12033,5.467801 0,0 -9.66098,-2.524302 -9.70055,-12.405815 -0.63487,-1.099636 -1.12992,-1.795947 -1.9043,-3.053303 -0.2607,9.156415 2.70282,13.590837 5.1384,16.571768 2.22507,2.72329 5.31435,4.93989 8.65852,6.02784 3.19124,1.0382 6.83233,1.10986 10.06542,0.21041 4.16884,-1.15977 8.05414,-3.74125 10.97387,-6.93493 2.25622,-2.46793 3.831575,-6.387781 4.888415,-9.56021 1.01279,-3.040159 1.61812,-9.476103 1.61812,-9.476103 l -8.463365,6.909642 c 0,0 -3.27021,10.831988 -8.80852,11.948171 -2.44938,0.49364 -7.24975,0.15551 -7.24975,0.15551 0,0 0.0698,-5.108956 -1.59806,-5.848597 -0.79535,-0.35273 -1.76544,-0.461245 -2.49787,-0.01215 z"
    id="path18"
  />
  <path
    style="fill: #593731"
    d="m 81.750065,42.177296 c 0,0 5.80974,-2.673422 8.93321,-2.938386 3.33155,-0.282599 8.55898,1.317644 8.55898,1.317644 0.813065,0.12165 1.466515,0.6997 1.445415,1.521548 -0.0211,0.821858 -0.699695,1.466505 -1.521555,1.445414 0,0 -5.28903,-1.612502 -8.64995,-1.31996 -3.09443,0.269379 -8.84221,2.94072 -8.84221,2.94072 -0.78011,0.259456 -1.46652,-0.6997 -1.44543,-1.521557 0.0211,-0.821848 0.7406,-1.188529 1.52154,-1.445423 z m -22.95822,-2.328124 c 0,0 3.77095,-1.445668 6.87167,-0.987007 3.30729,0.489215 7.86577,3.100503 7.86577,3.100503 0.76343,0.304914 1.26678,1.01742 1.05771,1.812452 -0.20906,0.795033 -1.01742,1.266772 -1.81245,1.057709 0,0 -4.61564,-2.637351 -7.95378,-3.123647 -3.07346,-0.447739 -6.78365,1.010141 -6.78365,1.010141 -0.81877,0.07354 -1.26678,-1.01741 -1.05771,-1.812452 0.20906,-0.795032 0.99344,-0.986847 1.81244,-1.057699 z m 19.47599,31.797963 c -1.65377,-0.0056 -3.27073,0.358235 -3.85553,1.40763 -0.01,0.01723 -0.0184,0.03606 -0.0272,0.05452 -0.0265,-0.04482 -0.0545,-0.08832 -0.0846,-0.128457 -0.88701,-1.17835 -2.09419,-1.043482 -4.32998,-0.431808 -2.23579,0.611674 -5.26281,6.236353 -5.26281,6.236353 0,0 9.09374,-3.469331 9.77232,-4.369178 0.0318,0.02731 0.067,0.05084 0.10608,0.06911 6.34828,2.970709 17.20339,5.807699 17.20339,5.807699 0,0 -7.8208,-8.038372 -10.93451,-8.439523 -0.97303,-0.125359 -1.83534,-0.203847 -2.58705,-0.206305 z m 0.87501,-65.408801 c -6.92597,0 -12.54063,2.670294 -12.5407,5.964296 5e-5,0.135387 0.01,0.270728 0.0292,0.405795 -1.69138,1.042445 -2.60991,2.321781 -2.61236,3.638522 1.1e-4,0.405538 0.0872,0.810024 0.25984,1.207164 -1.93591,1.078451 -3.00061,2.449669 -3.00307,3.867693 0.002,0.03409 0.005,0.06817 0.008,0.102179 -0.49376,1.137618 -0.78538,2.940276 -0.78581,4.857364 2.8e-4,0.111847 0.002,0.223629 0.004,0.335242 -0.53659,0.593944 -1.09583,2.013276 -1.50447,3.818064 -0.42721,1.022861 -0.80284,2.431288 -1.05,3.937272 -0.39931,2.43578 -0.38842,4.629524 -0.0321,5.680142 0.13836,-0.598967 0.48411,-1.659229 1.04562,-6.425557 2.75079,-7.222471 9.87622,-11.465632 18.8198,-11.415268 0.2885,0.0016 0.57876,0.0079 0.87095,0.01849 10.56901,0.383572 17.06418,2.991398 20.87649,8.118313 2.723885,3.663179 2.621735,10.279057 5.796415,18.598891 0.59916,-0.191434 1.28327,-0.344767 1.98035,-0.37952 1.11443,-4.433668 2.06762,-10.630257 1.81292,-14.73363 -0.36439,-5.860991 -1.52901,-10.651638 -2.79726,-11.506742 -0.74753,-1.578898 -1.74456,-3.170081 -2.91645,-4.654466 -1.8052,-2.285651 -3.932345,-4.201028 -6.016365,-5.417399 -1.54071,-1.316128 -4.07145,-2.306242 -7.08389,-2.771466 -2.14548,-1.991771 -6.45481,-3.244723 -11.1603,-3.244892 z"
    id="path20"
  />
  <path
    style="fill: #000000; opacity: 0.2"
    d="m 53.91593,45.66998 20.0812,5.76e-4 c -0.513182,1.158925 -0.747132,2.3749 -0.747132,2.3749 0,0 -0.244037,10.851743 -2.547106,13.101211 C 68.3998,63.396189 64.65484,63.220708 62.1372,62.88494 59.619583,62.549174 57.352204,62.749435 55.263234,60.018676 53.174263,57.287919 53.91593,45.669991 53.91593,45.669991 Z m 26.561222,0.282307 21.733398,5.41e-4 -0.0217,1.087434 c 0,0 0.18331,0.649448 -0.14774,2.719386 -0.33105,2.069937 -0.36603,9.530893 -2.02079,11.136573 -2.72286,2.64188 -6.141889,2.456096 -9.069874,2.313634 -2.927984,-0.142472 -6.493514,-0.518013 -8.3866,-2.964725 C 80.67076,57.798417 81.259432,50.496924 80.860159,48.376742 80.460887,46.25656 80.621951,47.005976 80.477098,45.952307 Z"
    class="lenses"
    id="path1106"
  />
  <path
    style="fill: #000000"
    d="m 78.988105,6.206708 c -3.51101,0 -6.69365,0.672757 -9.02965,1.783742 -2.33598,1.110986 -3.88565,2.695896 -3.8857,4.555208 5e-5,0.08504 0.0118,0.170847 0.0185,0.255932 -1.61186,1.058758 -2.59953,2.36603 -2.60215,3.787898 8e-5,0.3601 0.10896,0.714643 0.22772,1.065087 -1.83183,1.094332 -2.96732,2.480969 -2.96999,4.008797 v 0.01655 0.01654 c 0,0.01339 0.003,0.03296 0.004,0.04963 -0.50083,1.219153 -0.78297,2.980284 -0.78337,4.878773 2e-4,0.08966 0.003,0.174956 0.004,0.259338 -0.59735,0.74876 -1.09812,2.065916 -1.48986,3.788384 -0.43756,1.059524 -0.81123,2.470289 -1.05925,3.981551 -0.33696,2.055466 -0.33792,3.819506 -0.12505,5.066098 -0.007,0.0033 -0.0149,0.0025 -0.0219,0.0058 -0.39605,0.19056 -0.74538,0.539229 -0.87727,1.040761 -0.13191,0.501669 -0.0615,1.046954 0.17273,1.498615 0.23422,0.451658 0.70074,0.833946 1.28015,0.781907 l 0.0535,-0.0058 0.0496,-0.01848 c 0,0 0.12584,-0.03598 0.13235,-0.03844 l 0.18635,1.667453 h -5.7317 c 0,0 -0.6883,12.58198 1.68497,15.684375 1.95447,2.55494 3.94229,3.05995 6.18033,3.371886 l 0.89625,8.008349 -0.007,0.253988 c -0.26309,9.240367 2.76581,13.812511 5.22229,16.819042 2.26944,2.77758 5.41128,5.03307 8.83308,6.14627 0.52621,0.1712 1.06449,0.31374 1.61003,0.43353 l 0.0399,0.92399 c -1.60735,-0.0709 -4.01942,-0.30204 -6.64256,-0.31676 v 5e-4 c -0.1855,-9.9e-4 -0.3718,-9.9e-4 -0.55906,5e-4 -2.33426,0.0175 -4.74588,0.23172 -6.76859,0.94491 l -0.0229,0.008 -0.0219,0.0112 c -8.69295,4.400818 -22.72109,14.042368 -34.80291,23.113208 -6.04091,4.53542 -11.59075,8.92626 -15.73547,12.44678 -2.07236,1.76027 -3.79334,3.30237 -5.05247,4.5411 -0.62957,0.61937 -1.14324,1.16237 -1.53122,1.62415 -0.38798,0.46179 -0.65176,0.82881 -0.78337,1.17116 -0.80016,2.08159 -1.12867,3.2945 -1.12542,4.38394 0.003,1.08944 0.33705,1.98725 0.78678,3.42686 l 0.0253,0.0817 0.0589,0.0628 c 3.10624,3.30962 8.64913,9.49495 14.22371,15.11997 l 0.0774,-0.0579 c 0.62404,0.24398 1.3463,0.0382 2.07033,-0.23112 0.5388,-0.20039 1.06488,-0.46304 1.4991,-0.73033 0.21035,0.7931 0.53288,1.5592 1.00718,2.26008 0.89648,1.32471 2.35015,2.38483 4.48661,2.9549 0.0768,0.60516 0.27767,1.10563 0.62912,1.43634 0.40732,0.38327 0.93928,0.56111 1.49619,0.64324 1.10373,0.16275 2.37149,-0.0225 3.36653,-0.008 1.23382,0.54372 2.48234,0.19346 3.60154,-0.39217 1.12351,-0.58788 2.18108,-1.38529 3.1325,-1.84359 1.05126,0.34626 2.22628,-0.0676 3.26825,-0.77364 1.11225,-0.75367 2.10928,-1.83616 2.71746,-2.84299 0.11736,-0.19428 0.20037,-0.41049 0.2642,-0.63886 l 12.23902,0.72109 c -0.13186,0.0947 -0.25968,0.20856 -0.37076,0.35227 -0.18184,0.23522 -0.30522,0.55644 -0.28562,0.91912 0.0197,0.36269 0.16947,0.75278 0.46564,1.17894 0.36434,0.52424 1.02412,0.65888 1.5828,0.75759 0.23908,0.0422 0.26827,0.0305 0.44958,0.0462 -0.0834,0.37894 0.0524,0.87971 0.57901,1.38184 0.98717,0.94129 2.66978,1.61128 4.47493,2.02605 0.90366,0.20764 1.82902,0.33931 2.71405,0.39266 l 3.54607,34.58396 52.937145,1.15802 -1.52684,-22.91617 c 0.6147,0.0367 1.22945,0.0734 1.87181,0.10996 l 0.0594,0.003 0.0569,-0.0151 c 3.0922,-0.81164 5.1421,-4.20509 5.91613,-7.17535 l 0.0204,-0.0783 -0.0141,-0.0798 c -1.62145,-9.3624 -3.98338,-24.63728 -6.30828,-38.92216 -2.32492,-14.28488 -4.60548,-27.558 -6.0947,-33.02112 -0.32401,-1.18859 -0.59397,-1.91521 -1.07871,-2.44596 -0.48474,-0.53075 -1.12643,-0.79455 -2.07665,-1.12834 -2.95166,-1.036898 -8.40366,-2.104118 -13.14646,-2.925708 -4.345565,-0.75278 -7.729975,-1.23891 -8.325595,-1.32393 l -0.18198,-5.70254 c 0.93211,-0.77036 1.80795,-1.60032 2.61041,-2.47806 2.33073,-2.549426 3.904495,-6.502822 4.967335,-9.693322 0.26631,-0.79937 0.41129,-1.965062 0.61599,-3.026911 l 0.1124,0.02237 c 0,-0.0036 -6e-5,-0.0076 0.002,-0.01119 0.22219,-1.009322 0.40713,-2.038673 0.54641,-3.089677 l 1.01497,-7.657537 c 1.2044,0.809512 2.79476,1.609273 4.44671,1.120068 1.53296,-0.453975 2.65387,-1.63295 3.42443,-3.048807 0.77055,-1.415854 1.20526,-3.081442 1.37162,-4.604839 0.16766,-1.534958 0.0504,-3.430472 -0.44666,-5.140056 -0.49705,-1.709588 -1.37717,-3.25829 -2.80991,-3.984955 -0.78406,-0.397654 -1.62081,-0.484577 -2.43671,-0.435961 0.0392,-0.160543 0.0722,-0.350029 0.11094,-0.514299 l 0.71525,-0.170782 -0.13867,-2.43963 -0.0146,0.0015 c 0.74905,-3.8366 1.27066,-8.108881 1.07384,-11.279518 -0.18335,-2.948805 -0.56748,-5.629547 -1.06995,-7.696461 -0.25124,-1.033457 -0.53197,-1.911957 -0.83884,-2.603601 -0.28422,-0.640696 -0.57906,-1.124948 -0.96193,-1.423199 -0.75663,-1.581176 -1.75471,-3.166851 -2.92376,-4.647655 -1.81552,-2.298695 -3.948575,-4.221207 -6.066965,-5.468974 l -0.005,-0.0034 c -1.60493,-1.368769 -4.1548,-2.348094 -7.16465,-2.826934 -2.22335,-1.999302 -6.36869,-3.150253 -10.91459,-3.221537 l 0.006,-0.05549 z m -0.004,0.748821 h 0.002 0.002 c 4.63914,1.67e-4 8.88499,1.269478 10.90486,3.144661 l 0.0847,0.07882 0.11191,0.01654 c 2.96463,0.457835 5.44061,1.441818 6.89801,2.686804 l 0.0258,0.0219 0.0297,0.01654 c 2.03213,1.186083 4.132595,3.072639 5.912235,5.325925 h -0.002 c 1.1553,1.463351 2.13857,3.031944 2.87267,4.582455 l 0.0438,0.09391 0.0847,0.05693 c 0.20495,0.138181 0.50959,0.544796 0.7892,1.175051 0.27962,0.630255 0.55006,1.475327 0.79408,2.479041 0.488,2.007429 0.86894,4.653399 1.05,7.565579 0.19258,3.102253 -0.33648,7.454027 -1.09331,11.312115 l -2.45471,0.250094 c -0.23437,-0.770412 -0.45376,-1.530641 -0.652,-2.269819 -0.446,-1.673462 -0.75704,-2.974275 -1.08503,-4.440865 -0.0892,-0.398277 -0.20616,-0.860806 -0.29243,-1.243171 -0.0596,-0.264013 -0.12814,-0.464702 -0.18733,-0.721087 -0.18836,-0.803152 -0.43065,-1.885534 -0.63837,-2.607495 -0.0936,-0.325401 -0.19041,-0.640997 -0.29242,-0.949284 -0.43467,-1.313271 -0.95782,-2.473195 -1.68254,-3.447791 -0.12177,-0.163807 -0.245975,-0.324819 -0.373195,-0.483644 -0.38171,-0.476455 -0.78913,-0.931006 -1.22128,-1.362865 -0.35377,-0.353535 -0.81216,-0.617989 -1.20084,-0.9415 -0.4037,-0.335644 -0.80798,-0.676368 -1.25046,-0.979939 -0.95252,-0.653977 -2.02507,-1.218233 -3.1651,-1.725355 -0.39085,-0.173673 -0.73333,-0.385689 -1.14732,-0.542518 -0.1342,-0.05084 -0.23511,-0.127072 -0.37173,-0.176136 h -0.003 l -0.004,-0.0019 c -0.4453,-0.159759 -0.90398,-0.309535 -1.37552,-0.450558 0,-1.66e-4 -4.9e-4,1.66e-4 -0.003,0 -0.47345,-0.141549 -0.95925,-0.274527 -1.46018,-0.397522 0,-10e-7 -0.006,1.1e-4 -0.007,0 -0.37934,-0.09306 -0.87176,-0.114082 -1.26701,-0.196572 -1.03236,-0.215675 -2.17334,-0.370084 -3.31788,-0.514784 -0.73107,-0.09211 -1.33391,-0.263743 -2.11266,-0.327457 -0.61752,-0.05052 -1.25149,-0.09218 -1.90003,-0.125047 -0.3243,-0.01643 -0.65193,-0.03029 -0.98383,-0.04233 -0.29576,-0.01072 -0.59006,-0.01882 -0.88263,-0.02044 h -0.006 -0.006 c -0.28794,-0.0015 -0.5731,0.002 -0.85685,0.0092 0.0187,-4.98e-4 0.017,-5.73e-4 -0.004,0 -0.0256,6.73e-4 -0.0434,0.0017 -0.0535,0.0019 -0.26621,0.0073 -0.53043,0.01809 -0.79407,0.03309 -0.0557,0.0031 -0.10257,0.0089 -0.14013,0.01119 -0.23114,0.01437 -0.46326,0.02908 -0.69482,0.04963 -0.10114,0.0089 -0.1923,0.02117 -0.27783,0.02968 -0.17194,0.01715 -0.34877,0.03361 -0.52597,0.05498 -0.11614,0.014 -0.22474,0.03005 -0.33086,0.04428 -0.165,0.02214 -0.33373,0.04542 -0.50214,0.07153 -0.10361,0.01607 -0.19992,0.03414 -0.29242,0.04963 -0.15695,0.0263 -0.31745,0.05214 -0.47975,0.08272 -0.13346,0.02514 -0.26103,0.05201 -0.38439,0.07736 -0.13046,0.02682 -0.26382,0.0543 -0.39947,0.08466 -0.12431,0.02783 -0.24469,0.05642 -0.362,0.08466 -0.10344,0.02491 -0.20875,0.0522 -0.31432,0.07882 -0.0327,0.0083 -0.065,0.01529 -0.0978,0.02384 -0.12052,0.03142 -0.23703,0.06405 -0.3513,0.09585 -0.12952,0.03602 -0.26156,0.07208 -0.39509,0.11191 -0.12615,0.03763 -0.24993,0.07773 -0.36979,0.115802 -0.12117,0.0385 -0.2425,0.07805 -0.36589,0.119694 -0.12065,0.04071 -0.238,0.08192 -0.35325,0.123101 -0.12635,0.04515 -0.25456,0.09162 -0.38244,0.14013 -0.11023,0.04181 -0.21666,0.08467 -0.32162,0.126507 -0.12568,0.05009 -0.25223,0.101208 -0.37903,0.154727 -0.11103,0.04685 -0.2212,0.09387 -0.32892,0.14159 -0.11965,0.05301 -0.23854,0.107432 -0.35859,0.163485 -0.10872,0.05076 -0.21601,0.10283 -0.32211,0.154728 -0.11686,0.05718 -0.23419,0.114429 -0.3513,0.174676 -0.1065,0.05479 -0.21255,0.10963 -0.31626,0.165432 -0.11293,0.06077 -0.22454,0.122822 -0.33622,0.185867 -0.10069,0.05684 -0.20085,0.114508 -0.29972,0.17273 -0.11838,0.06972 -0.23636,0.140743 -0.35325,0.213115 -0.0886,0.05487 -0.17622,0.11049 -0.26469,0.167378 -0.11614,0.07467 -0.23007,0.150666 -0.34205,0.226252 -0.095,0.06413 -0.19044,0.130473 -0.28513,0.197058 -0.10019,0.07044 -0.19886,0.139633 -0.29631,0.211169 -0.0965,0.07083 -0.19348,0.144629 -0.29048,0.218953 -0.1002,0.07676 -0.19672,0.153081 -0.29243,0.229658 -0.0887,0.07091 -0.17981,0.143851 -0.27004,0.218954 -0.10035,0.08358 -0.19674,0.166719 -0.29243,0.250093 -0.0845,0.07366 -0.17073,0.14905 -0.25593,0.226252 -0.0914,0.08284 -0.18009,0.166339 -0.26664,0.248148 -0.0857,0.08101 -0.17278,0.163303 -0.26079,0.250094 -0.0896,0.08843 -0.17549,0.176885 -0.25934,0.26323 -0.0783,0.08055 -0.15934,0.162551 -0.24085,0.250094 -0.0894,0.096 -0.17352,0.192546 -0.25593,0.285126 -0.071,0.0797 -0.14454,0.161186 -0.21896,0.248148 -0.0224,0.02607 -0.0425,0.0514 -0.0642,0.07736 -0.003,0.003 -0.005,0.0062 -0.007,0.0092 -0.0622,0.07452 -0.12496,0.150058 -0.18393,0.22236 -0.0657,0.08063 -0.13475,0.163221 -0.20435,0.25204 -0.086,0.109756 -0.16813,0.219497 -0.24815,0.32697 -0.0575,0.07714 -0.11957,0.157635 -0.18197,0.244742 -0.087,0.121275 -0.16887,0.242943 -0.24864,0.360543 -0.0513,0.07569 -0.10671,0.155855 -0.16348,0.242796 -0.0801,0.122629 -0.15391,0.243362 -0.22626,0.360543 -0.0503,0.08136 -0.10519,0.166816 -0.16008,0.259338 -0.006,0.01 -0.0108,0.01922 -0.0165,0.02919 -0.006,0.01156 -0.0132,0.02344 -0.02,0.03503 -0.0562,0.09697 -0.11011,0.194172 -0.16203,0.286585 h -0.002 c -0.0516,0.09193 -0.10566,0.18817 -0.16154,0.292425 -0.0668,0.124552 -0.12852,0.247043 -0.18781,0.364436 -0.045,0.08911 -0.0951,0.183153 -0.145,0.286585 -0.0858,0.178 -0.16656,0.355996 -0.24474,0.533275 -0.0152,0.03435 -0.036,0.08063 -0.0608,0.138182 -0.099,0.229934 -0.19524,0.462784 -0.28513,0.698706 l -0.0165,0.04233 -0.004,0.04574 c -0.47528,4.034346 -0.76327,5.131423 -0.93566,5.824165 -0.1563,-1.107785 -0.18895,-2.684875 0.1231,-4.588295 0.24339,-1.48301 0.61593,-2.872372 1.02616,-3.854555 l 0.0127,-0.02919 0.008,-0.03114 c 0.40173,-1.774322 0.99125,-3.180643 1.4159,-3.650687 l 0.0993,-0.108503 -0.002,-0.144996 c 0,-0.115244 -0.003,-0.226122 -0.003,-0.33281 0,-1.878445 0.2961,-3.653739 0.75369,-4.707989 l 0.0384,-0.08661 -0.009,-0.09342 c -0.002,-0.01876 -0.003,-0.04472 -0.005,-0.07007 v -0.0019 c 0.003,-1.230894 0.94301,-2.498941 2.81137,-3.53975 l 0.29631,-0.165918 -0.13623,-0.308968 c -0.15399,-0.354201 -0.22764,-0.707155 -0.22772,-1.059249 0.003,-1.142891 0.80898,-2.317313 2.43477,-3.319336 l 0.20776,-0.128453 -0.035,-0.242795 c -0.0169,-0.11735 -0.0258,-0.235427 -0.0258,-0.353245 2e-5,-1.434689 1.25808,-2.832685 3.46092,-3.880345 2.20283,-1.047659 5.29258,-1.709784 8.70755,-1.709784 z m -0.8257,15.587064 h 0.002 0.005 c 0.28272,0.0017 0.56671,0.0081 0.85343,0.01849 1.79922,0.0653 3.31766,0.284803 4.88072,0.479751 1.15995,0.144962 2.30369,0.299136 3.34123,0.516731 1.53727,0.321617 3.01258,0.680653 4.29781,1.164346 0.4486,0.16876 0.81456,0.394384 1.23393,0.582903 1.06003,0.476833 2.06144,0.995666 2.94614,1.601768 0.43721,0.29911 0.83168,0.632404 1.22858,0.963395 0.97366,0.812507 1.91324,1.649537 2.66247,2.657124 1.202015,1.616491 1.847925,3.968385 2.502885,6.800699 0.12975,0.555175 0.30971,1.218379 0.44326,1.815369 0.31977,1.429468 0.67475,2.925485 1.11472,4.563965 0.0885,0.331677 0.11668,0.530418 0.21312,0.869977 0.11775,0.414519 0.24485,0.838066 0.37611,1.264092 l -0.78483,0.0798 c 0.024,-0.785044 0.0248,-1.267984 0.0248,-1.267986 l -20.132545,-4.99e-4 c 0.57767,-0.249611 0.68776,-0.319248 1.56041,-0.654913 1.81096,-0.696588 4.01938,-1.419132 5.48017,-1.546301 1.60451,-0.139659 3.74918,0.179484 5.47481,0.54252 1.72563,0.363033 3.03275,0.761472 3.03275,0.761472 l 0.0491,0.0146 0.0496,0.002 c 1.022345,0.02623 1.879135,-0.787193 1.905395,-1.809532 0.0132,-0.512109 -0.18806,-0.950868 -0.51284,-1.280148 -0.32483,-0.329258 -0.773275,-0.548411 -1.250965,-0.619882 l 0.0482,0.0092 c -1.5e-4,-4.8e-5 -0.0803,-0.01923 -0.0827,-0.01996 -0.072,-0.0221 -1.09903,-0.329307 -2.59679,-0.662212 -1.35103,-0.309801 -2.79819,-0.523517 -4.39318,-0.599446 -0.20495,-0.01066 -0.40372,-0.08052 -0.60334,-0.08272 -0.34967,-0.0039 -0.69035,0.0054 -1.01692,0.03309 -1.64776,0.139779 -3.88385,0.886206 -5.7395,1.592523 -1.84663,0.702891 -3.29597,1.368541 -3.3101,1.375028 -0.39814,0.132458 -0.79964,0.295512 -1.13272,0.564901 -0.34179,0.276357 -0.60122,0.697483 -0.61452,1.215922 -0.0107,0.418692 0.14039,0.816334 0.36297,1.163859 h -5.86552 c 0.23188,-0.226851 0.42775,-0.492925 0.51576,-0.827643 0.13029,-0.495404 0.0347,-0.969338 -0.20582,-1.364326 -0.24058,-0.394986 -0.62725,-0.711264 -1.07579,-0.890412 -0.0391,-0.02259 -1.11705,-0.649001 -2.65761,-1.35897 -1.56814,-0.722713 -3.56809,-1.508253 -5.29236,-1.763307 -1.62827,-0.240857 -3.39233,0.01136 -4.75032,0.323565 -1.14934,0.264195 -1.71859,0.491303 -1.95501,0.579497 0.17459,-0.709932 0.45619,-1.832524 0.91036,-5.658733 0.32884,-0.859354 0.72291,-1.673268 1.17359,-2.44401 0.013,-0.02255 0.0255,-0.04805 0.0384,-0.07006 0.44882,-0.758945 0.95791,-1.470705 1.51711,-2.138446 0.0204,-0.02469 0.0405,-0.05128 0.0608,-0.07542 1.15201,-1.35896 2.53038,-2.517014 4.09005,-3.464819 0.0342,-0.02076 0.0682,-0.0417 0.10267,-0.06228 1.5628,-0.935192 3.30721,-1.660624 5.20282,-2.148178 0.0319,-0.0081 0.065,-0.01583 0.0973,-0.02384 1.9203,-0.484505 3.9885,-0.73486 6.17498,-0.722547 z M 64.256315,39.10327 h 5e-4 5e-4 c 0.38353,0.0035 0.76345,0.02928 1.13126,0.08369 3.16605,0.468324 7.7349,3.054646 7.7349,3.054646 l 0.0219,0.0146 0.0258,0.0092 c 0.62978,0.251527 0.99254,0.770929 0.83495,1.370163 -0.079,0.300537 -0.26921,0.537737 -0.51333,0.680216 -0.23985,0.139979 -0.53384,0.181836 -0.8291,0.108505 -0.0612,-0.03526 -1.11846,-0.646296 -2.66102,-1.355081 -1.5863,-0.728867 -3.60768,-1.520998 -5.34782,-1.774496 -1.13703,-0.165643 -2.29037,-0.05398 -3.36896,0.117747 -0.28046,0.04449 -0.46946,0.06663 -0.73034,0.121155 -0.87518,0.178554 -1.17183,0.262954 -1.68059,0.430121 -0.16245,0.04972 -0.45802,0.106831 -0.58679,0.149375 l -0.28853,0.09537 0.002,0.02043 c -0.0252,0.0097 -0.21853,0.06506 -0.22625,0.06812 -0.23413,0.01714 -0.40081,-0.104725 -0.54106,-0.37514 -0.1422,-0.27419 -0.19101,-0.670508 -0.11386,-0.963883 0.0772,-0.293501 0.22514,-0.437244 0.47829,-0.559061 0.25273,-0.121606 0.61371,-0.188492 1.00378,-0.222358 l 0.0535,-0.0039 0.0496,-0.01848 c 0,0 2.10208,-0.789607 4.39513,-1.000373 0,-5.5e-5 -6e-5,5.7e-5 0.002,0 0.38198,-0.03505 0.76915,-0.054 1.15267,-0.0506 z m 26.83057,0.357625 h 5e-4 c 1.23076,-0.01557 2.67475,0.239272 4.00053,0.48559 0.38918,0.07294 0.8155,0.0839 1.17164,0.162026 1.44042,0.321089 2.63519,0.652942 2.67756,0.665618 0,2.49e-4 0.053,0.0146 0.053,0.0146 0,3e-6 0.002,0 0.002,0 l 0.0258,0.0073 0.0277,0.0039 c 0.67074,0.100355 1.143265,0.524485 1.127375,1.143909 -0.007,0.310698 -0.13713,0.584755 -0.342055,0.779475 -0.20157,0.191482 -0.47877,0.300196 -0.78337,0.296317 -0.072,-0.0218 -1.30036,-0.397816 -3.01037,-0.757578 -1.75911,-0.370081 -3.93929,-0.708539 -5.69571,-0.555656 -1.63361,0.142213 -3.84565,0.888025 -5.68209,1.594469 -1.79928,0.692094 -3.16114,1.325443 -3.21765,1.351673 h -0.35519 c -0.099,-0.0418 -0.19486,-0.11753 -0.29291,-0.231605 -0.20134,-0.234268 -0.34061,-0.611006 -0.33281,-0.914253 0.007,-0.303408 0.1182,-0.475812 0.3367,-0.652481 0.21848,-0.176669 0.55568,-0.324552 0.92837,-0.447152 l 0.0204,-0.0073 0.0185,-0.0092 c 0,0 1.44105,-0.662347 3.27117,-1.35897 1.83011,-0.696623 4.06186,-1.421118 5.53758,-1.546301 0.16598,-0.01408 0.33718,-0.02207 0.51283,-0.02431 z m -28.10244,2.518451 c 0.52718,-0.02886 1.05452,-0.01921 1.56041,0.0545 2.65756,0.387151 5.75528,1.998934 6.90871,2.618686 l -12.42878,-4.98e-4 -0.21019,-1.88446 c 0.11502,-0.03884 0.24114,-0.07051 0.39898,-0.119695 0.42236,-0.124812 0.88169,-0.245521 1.45823,-0.365896 0.2409,-0.04968 0.49586,-0.08595 0.75223,-0.126994 0.5062,-0.07941 1.03322,-0.14679 1.56041,-0.17565 z m 18.33955,4.64717 h 3.27701 c -0.18847,0.188377 -0.38096,0.376167 -0.53571,0.576577 l -0.0886,-0.07688 c -0.007,0.0079 -0.01,0.01936 -0.0165,0.02725 l -0.003,-0.0034 c -0.0967,0.120901 -0.18276,0.245867 -0.25009,0.378546 l -0.0482,0.09585 c -0.86348,1.039002 -1.47824,2.251073 -1.82364,3.545103 -0.0286,-0.978643 -0.0629,-1.803994 -0.15765,-2.307285 -0.36821,-1.955183 -0.21968,-1.264093 -0.35325,-2.23576 z m 4.42043,0 9.00921,4.98e-4 c 0.39052,0.334235 0.85715,0.784446 1.3361,1.424172 -1.73497,0.236617 -3.82739,0.320798 -5.94337,0.185381 -2.09204,-0.13391 -3.90994,-0.446497 -5.29089,-0.790667 0.2568,-0.270821 0.5515,-0.55082 0.88895,-0.819372 z m 10.16334,4.98e-4 h 5.458275 l -0.0199,1.002807 c 0,0 0.16905,0.598901 -0.13624,2.50775 -0.30529,1.908848 -0.33755,8.789174 -1.863545,10.269897 -2.51096,2.436279 -5.6639,2.264956 -8.36403,2.13358 -2.70011,-0.131386 -5.98816,-0.477698 -7.73392,-2.734001 -0.53713,-0.694204 -0.85688,-1.813044 -1.0539,-3.085298 1.30753,3.180141 4.37842,5.419269 7.96115,5.419344 4.77019,1.86e-4 8.63627,-3.96786 8.63602,-8.843291 -2e-4,-1.651091 -0.53087,-3.224671 -1.37552,-4.619921 l 0.0589,-0.01071 -0.27978,-0.463695 c -0.0396,-0.06583 -0.0792,-0.130024 -0.1192,-0.193166 h -0.002 c -0.005,-0.0067 -0.007,-0.0152 -0.0112,-0.0219 l -0.035,0.02384 c -0.3693,-0.568518 -0.75096,-1.010433 -1.11959,-1.385247 z m -40.66941,0.197059 h 3.27797 l 0.0389,0.34984 -0.1158,0.156186 c -1.09755,1.468105 -1.69214,3.262834 -1.69373,5.110377 2e-5,2.636246 1.26253,4.896519 3.12082,6.442103 l 0.29194,2.609926 c -1.32724,-0.216944 -2.57237,-0.680378 -3.75141,-2.22165 -1.81208,-2.3688 -1.16872,-12.446782 -1.16872,-12.446782 z m 4.72696,0 10.14388,4.98e-4 c 0.37645,0.437045 0.80193,0.953038 1.10255,1.456284 -0.0404,0.01784 -0.0845,0.0346 -0.14159,0.05352 -0.0409,0.01353 -0.0529,0.0255 -0.1012,0.03844 0,2.02e-4 5e-5,-1.99e-4 -0.002,0 -0.22415,0.05992 -0.61323,0.09544 -0.96534,0.136237 -0.19013,0.02205 -0.30782,0.05806 -0.52597,0.07347 -0.67601,0.04759 -1.60883,-0.0054 -2.45666,-0.01654 -0.7085,-0.0094 -1.31748,0.03025 -2.05622,-0.0146 -0.002,-1.22e-4 -0.003,1.22e-4 -0.005,0 -1.59158,-0.09681 -3.14747,-0.27257 -4.28857,-0.489482 -0.002,-2.49e-4 -0.006,2.49e-4 -0.008,0 -0.07,-0.0149 -0.12762,-0.02876 -0.19317,-0.04379 -0.46306,-0.09567 -0.8548,-0.196795 -1.10158,-0.294371 l -0.0219,-0.206304 c 0.17088,-0.225018 0.38268,-0.462712 0.62134,-0.693352 z m 11.07808,4.98e-4 h 1.61442 c -0.25387,0.573299 -0.42043,1.139286 -0.52403,1.539974 -0.01,-0.01821 -0.0167,-0.03781 -0.0268,-0.05595 l 0.006,-0.03163 -0.0569,-0.113855 c -0.009,-0.01831 -0.0276,-0.03134 -0.037,-0.04963 l -0.44131,-0.764878 -0.0273,0.113856 c -0.16567,-0.241672 -0.33165,-0.416285 -0.507,-0.637886 z m 5.40232,0.255934 c 0.78514,-9.96e-4 1.57207,0.50421 2.16374,1.394978 1.33757,2.013719 -0.0894,9.592417 2.11753,12.444834 2.207,2.852423 6.23214,3.422316 9.64563,3.588407 3.4135,0.166099 7.26829,0.250581 10.442635,-2.829366 1.92917,-1.871932 2.18809,-8.691833 2.48731,-12.587887 l 1.9083,-0.455422 c 0.0494,0.132475 0.0932,0.261728 0.14403,0.395088 l -0.1051,0.78726 0.56101,-0.176621 c 1.19244,-0.3775 2.68986,-0.583326 3.87645,0.01848 1.15457,0.585575 1.9633,1.930649 2.42747,3.527101 0.46413,1.596454 0.57894,3.419745 0.42282,4.849091 -0.15737,1.440906 -0.57627,3.025213 -1.28502,4.327498 -0.70874,1.302282 -1.6914,2.308256 -2.98117,2.690208 -1.47477,0.436743 -3.16792,-0.446713 -4.30852,-1.292799 l -0.50943,-0.378546 -0.68411,5.150762 -8.546005,6.97878 -0.0331,0.108505 c 0,0 -0.8699,2.263596 -1.83532,4.38053 l -0.33475,-0.342052 c 0,0 -1.96214,-2.018769 -4.31971,-4.090054 -1.17877,-1.035641 -2.45627,-2.085707 -3.6468,-2.909165 -1.19049,-0.823458 -2.27137,-1.432224 -3.18699,-1.55019 -0.93388,-0.120312 -1.75786,-0.189025 -2.50629,-0.198519 l -0.0151,-0.01118 h -0.11191 c -0.0926,-2.49e-4 -0.17239,0.0331 -0.26469,0.03503 2.12191,-1.41423 3.24597,-2.897835 3.73437,-4.06767 0.51902,-1.243057 0.41747,-2.166669 0.41747,-2.166669 -0.0251,-0.204495 -0.21048,-0.350104 -0.41503,-0.325511 -0.20473,0.02507 -0.35089,0.21127 -0.326,0.416014 0,0 0.0929,0.689357 -0.36541,1.787146 -0.45836,1.09779 -1.47198,2.567422 -3.76065,3.988849 -1.17724,0.731136 -2.95335,0.983388 -4.16547,0.513325 -0.60609,-0.235033 -1.07092,-0.626431 -1.32637,-1.226627 -0.25545,-0.600199 -0.3062,-1.439217 0.0292,-2.587546 1.23811,-4.238763 2.96852,-13.923015 2.96852,-13.923015 0.0366,-0.203161 -0.098,-0.397497 -0.30118,-0.434016 -0.2038,-0.03651 -0.39892,0.09965 -0.4345,0.303616 0,0 -1.74569,9.720524 -2.95003,13.843708 -0.36883,1.262695 -0.34005,2.292193 0,3.091138 0.24137,0.567125 0.66832,0.957843 1.1478,1.267498 -0.69325,0.02197 -1.42175,0.136475 -2.38659,0.400441 -0.67886,0.185722 -1.31453,0.695492 -1.93507,1.331724 -0.62051,0.636231 -1.21599,1.411006 -1.74141,2.162774 -1.0468,1.497755 -1.80367,2.903632 -1.80953,2.914516 -0.24648,-0.964176 -0.39817,-2.019978 -0.40287,-3.192342 v -0.09926 l -0.0496,-0.08466 v -0.002 c -0.2351,-0.407205 -0.48205,-0.776379 -0.69871,-1.120071 -0.34944,-0.554786 -0.68137,-1.091345 -1.12007,-1.798339 l -0.90939,-8.118798 c 0.23615,0.03001 0.4711,0.05917 0.71331,0.09147 2.86026,0.381464 6.80675,0.426403 9.42328,-2.129203 2.61651,-2.555606 2.01845,-11.566714 3.20207,-13.424775 0.55482,-0.870965 1.24618,-1.265734 1.93896,-1.266523 z m 7.77966,1.020323 c 2.95086,0.82362 8.65868,1.285345 12.41126,0.674863 0.8851,1.338318 1.40646,2.897449 1.40666,4.522123 2.2e-4,4.481462 -3.53115,8.097073 -7.8872,8.096904 -4.3559,-9e-5 -7.8879,-3.615614 -7.88768,-8.096904 0.002,-1.928758 0.74701,-3.739446 1.95696,-5.196986 z m 22.676785,0.13186 c -0.0318,0.132069 -0.0589,0.288703 -0.091,0.417957 -0.25597,0.04349 -0.49547,0.104511 -0.73519,0.167379 -0.0471,-0.123003 -0.0787,-0.236542 -0.12408,-0.358599 z m -48.159575,0.112396 0.1265,0.06082 c 0.24043,0.116369 0.79368,0.173562 1.15705,0.26469 0.0117,0.0029 0.0247,0.0063 0.0365,0.0092 0.14601,0.03325 0.23153,0.07708 0.39363,0.108502 0.002,4.98e-4 0.006,-4.98e-4 0.008,0 0.0421,0.0082 0.11306,0.01049 0.15618,0.01848 0.41439,0.08059 0.64194,0.195255 1.14586,0.26323 1.2739,0.171834 2.77615,0.294732 4.22775,0.350814 0.19444,0.0075 0.38376,0.01051 0.5756,0.01557 l -0.44763,1.075304 -1.04806,-1.003779 0.33621,1.412008 -1.43779,-0.196573 1.10158,0.944421 -1.27869,0.686541 1.44704,0.116775 -0.63107,1.306909 1.23879,-0.756118 0.25788,1.428063 0.5576,-1.339997 1.04806,1.004267 -0.33622,-1.412007 1.4378,0.196571 -1.10207,-0.944904 1.27917,-0.686542 -1.44703,-0.116289 0.63107,-1.306909 -1.23879,0.756118 -0.20923,-1.159479 c 1.18168,0.02706 2.29817,0.0083 3.18846,-0.07688 0.53688,-0.0514 0.99126,-0.125669 1.34972,-0.235496 0.1077,-0.033 0.19285,-0.08185 0.28513,-0.125046 0.1735,0.344392 0.28198,0.714737 0.40823,1.078224 -0.0761,1.517483 -0.26652,4.221895 -0.73715,6.543308 -1.33428,2.098442 -3.63191,3.489732 -6.25477,3.489633 -1.02859,-1.8e-5 -2.00797,-0.214164 -2.89992,-0.599446 -0.01,-0.0042 -0.0182,-0.01036 -0.0277,-0.0146 -2.67154,-1.167835 -4.54593,-3.882947 -4.54596,-7.060036 0,-1.469774 0.48148,-2.866252 1.24853,-4.095405 z m 31.78379,0.699191 -0.5868,1.410548 -1.10353,-1.056816 0.35422,1.486452 -1.51369,-0.20679 1.15996,0.994537 -1.34632,0.722546 1.52294,0.122612 -0.66416,1.375517 1.304,-0.796017 0.2715,1.503968 0.58679,-1.410548 1.10353,1.056814 -0.35422,-1.48645 1.5137,0.206788 -1.15997,-0.994535 1.34632,-0.722546 -1.52294,-0.122615 0.66416,-1.375514 -1.30399,0.796017 z m -19.76421,9.379972 c -0.26265,0.802551 -0.57933,1.451396 -0.96194,1.825099 -1.99782,1.951354 -5.24639,1.799121 -7.43031,1.507862 -0.49467,-0.06597 -0.97684,-0.108816 -1.44996,-0.162026 l -0.22188,-1.980799 c 0.3278,0.206304 0.66457,0.393311 1.02082,0.551762 0.0247,0.01091 0.0453,0.02631 0.0701,0.03698 0.98395,0.426071 2.02896,0.726416 3.16315,0.726438 2.27982,8.7e-5 4.32415,-0.968037 5.81006,-2.505315 z m 31.747785,11.286328 c -0.0522,0.51708 -0.26872,2.006704 -0.50894,3.683287 -0.26382,1.709976 -0.55874,3.573126 -0.96194,4.783406 -1.050825,3.154352 -2.628935,7.040256 -4.810655,9.426684 -0.8503,0.93007 -1.78601,1.80576 -2.78558,2.60992 -0.25236,0.20307 -0.50788,0.40271 -0.76828,0.59604 -0.0162,0.012 -0.032,0.0245 -0.0482,0.0365 0,0 0,5e-4 0,5e-4 -0.27222,0.20105 -0.55028,0.3942 -0.83057,0.58388 -0.15585,0.10547 -0.31183,0.21059 -0.47002,0.31237 -0.0194,0.0124 -0.0385,0.0251 -0.0579,0.0375 -0.21302,0.13623 -0.42771,0.26925 -0.6447,0.3985 -0.0376,0.0224 -0.0756,0.044 -0.11337,0.0662 -0.17595,0.1035 -0.35344,0.20392 -0.53181,0.30264 -0.054,0.0299 -0.10784,0.0601 -0.16202,0.0895 -0.19621,0.10655 -0.39379,0.21039 -0.59264,0.31092 -0.0172,0.009 -0.0339,0.0181 -0.0511,0.0268 -0.0262,0.0131 -0.0526,0.0254 -0.0788,0.0384 -0.18861,0.0938 -0.37851,0.18426 -0.56928,0.27247 -0.0686,0.0317 -0.13742,0.0629 -0.20631,0.0939 -0.1617,0.0727 -0.32443,0.14308 -0.48753,0.21166 -0.0601,0.0253 -0.11974,0.0517 -0.18003,0.0764 -0.2135,0.0875 -0.42809,0.17102 -0.64372,0.25107 -0.0666,0.0247 -0.13373,0.0475 -0.20047,0.0715 -0.15634,0.0562 -0.31321,0.11036 -0.47051,0.16251 -0.084,0.0279 -0.16822,0.0555 -0.25252,0.0822 -0.17949,0.0568 -0.3595,0.11108 -0.54009,0.16252 -0.0374,0.0107 -0.0745,0.0227 -0.11191,0.0331 -0.0777,0.0216 -0.15635,0.0408 -0.23452,0.0613 -0.0915,0.024 -0.18276,0.0482 -0.27491,0.0705 -0.0994,0.0241 -0.19967,0.0463 -0.29972,0.0686 -0.0854,0.0191 -0.17101,0.0382 -0.25691,0.0559 -0.0983,0.0203 -0.19695,0.0394 -0.29583,0.0579 -0.0863,0.0162 -0.17264,0.0314 -0.25934,0.0462 -0.0954,0.0163 -0.19075,0.0329 -0.28658,0.0477 -0.0992,0.0153 -0.19913,0.0283 -0.29875,0.0419 -0.14534,0.0197 -0.29085,0.038 -0.43694,0.054 -0.11718,0.0129 -0.23417,0.026 -0.35178,0.0365 -0.0907,0.008 -0.18157,0.0137 -0.27248,0.0204 -0.0993,0.007 -0.19874,0.0148 -0.29826,0.0204 -0.0899,0.005 -0.17999,0.009 -0.27004,0.0127 -0.10364,0.004 -0.20716,0.008 -0.31092,0.0102 -0.0922,0.002 -0.18455,0.004 -0.27685,0.005 -0.0938,7.3e-4 -0.18785,2e-4 -0.28172,-5.2e-4 -0.1,-7.3e-4 -0.19978,-10e-4 -0.29972,-0.003 0,-1e-5 5e-5,3e-5 -0.002,0 -0.055,-10e-4 -0.10999,-0.004 -0.16494,-0.006 -0.11507,-0.004 -0.23005,-0.007 -0.34497,-0.0131 -0.0994,-0.005 -0.19851,-0.013 -0.29778,-0.0199 -0.0905,-0.006 -0.18112,-0.0123 -0.2715,-0.02 -0.10326,-0.009 -0.20645,-0.0195 -0.30946,-0.0302 -0.0845,-0.009 -0.16876,-0.0178 -0.25301,-0.0277 -0.10067,-0.0119 -0.20132,-0.0244 -0.30167,-0.0379 -0.0868,-0.0117 -0.17333,-0.0249 -0.25983,-0.038 -0.10602,-0.016 -0.21214,-0.0317 -0.31772,-0.0496 -0.0491,-0.008 -0.0979,-0.018 -0.14694,-0.0268 -0.12045,-0.0216 -0.24085,-0.043 -0.36055,-0.0671 l -0.074,-0.0151 c -0.59206,-0.12199 -1.17442,-0.27389 -1.74142,-0.45835 -3.26656,-1.06272 -6.30253,-3.24181 -8.48323,-5.91079 -2.27041,-2.778779 -4.87513,-6.893617 -4.97463,-14.899066 0.35625,0.555626 0.73345,1.132343 1.09234,1.750655 0.0162,1.20954 0.16045,2.325201 0.42671,3.330041 0.0582,0.21974 0.17123,0.383718 0.23939,0.594096 l -0.0146,0.02773 0.0219,-0.0092 c 8e-5,2.27e-4 0.002,-2.24e-4 0.002,0 0.58001,1.779772 1.44955,3.279219 2.4917,4.439408 0.58456,0.650778 1.20723,1.211134 1.82802,1.689834 1.24156,0.957401 2.48281,1.597902 3.4147,1.999292 0,1.6e-4 0.002,-1.6e-4 0.002,0 0.93027,0.40047 1.55214,0.56441 1.55214,0.56441 l 0.36249,0.0939 0.0934,-0.36249 c 0,0 0.28152,-1.08299 0.56295,-2.311662 0.25044,-1.093168 0.45413,-2.154314 0.50749,-2.890672 0.0737,-0.02434 0.15366,-0.102745 0.22625,-0.119695 0.16034,-0.05304 0.31876,-0.105276 0.49678,-0.113856 0.46581,-0.01203 0.91539,0.06363 1.31664,0.233551 0.269,0.121775 0.54231,0.479415 0.75174,1.014972 0.21053,0.538354 0.35601,1.222745 0.4491,1.890299 0.18615,1.335103 0.17079,2.591433 0.17079,2.591433 l -0.005,0.35276 0.35276,0.0243 c 0,0 4.77411,0.35683 7.34857,-0.16202 1.49235,-0.30077 2.79528,-1.22458 3.91538,-2.434764 1.12009,-1.210173 2.0577,-2.706533 2.82255,-4.148929 0.23166,-0.436917 0.15822,-0.430318 0.35714,-0.851486 l 0.0496,0.01313 -0.0389,-0.03893 c 1.07436,-2.281827 1.90683,-4.523794 1.93653,-4.62138 z m -24.280015,1.936524 c 0.72664,0.0022 1.57692,0.07956 2.54181,0.20387 0.64121,0.08261 1.70403,0.628584 2.85564,1.425144 1.15164,0.796558 2.41304,1.832035 3.57868,2.856127 1.73041,1.520301 2.50786,2.335742 3.1758,3.005017 -2.06917,-0.558005 -10.13118,-2.768995 -15.67319,-5.362417 -0.006,-0.0026 -0.0134,-0.0073 -0.0224,-0.01507 l -0.29388,-0.251554 0.29388,-0.610637 c 0.0102,-0.02117 0.0163,-0.03262 0.0165,-0.03309 0.23004,-0.412812 0.68606,-0.723246 1.31519,-0.926905 0.62915,-0.203659 1.41286,-0.293205 2.21191,-0.290477 z m -4.22385,0.253498 c 0.25455,0.02721 0.49552,0.08698 0.75563,0.07736 -0.11612,0.09426 -0.26429,0.151958 -0.36055,0.264691 -0.12065,-0.136982 -0.25804,-0.238386 -0.39508,-0.342055 z m -1.66065,0.190248 c 0.0832,-0.0022 0.16283,-0.0012 0.23891,0.0029 0.60872,0.03264 0.99098,0.220952 1.38135,0.739576 0.0187,0.0251 0.0406,0.05686 0.0623,0.09342 l 0.34595,0.586794 -0.2282,0.305075 c 0,-0.0015 -0.20484,0.175192 -0.50408,0.347895 -0.29927,0.172705 -0.70239,0.377985 -1.17116,0.601392 -0.93752,0.44681 -2.13419,0.96382 -3.31009,1.452392 -1.81848,0.755543 -2.86433,1.151954 -3.57333,1.42563 0.29666,-0.518948 0.50074,-0.931232 1.1843,-1.909275 0.51082,-0.730857 1.08867,-1.47649 1.66454,-2.06692 0.57584,-0.590429 1.15884,-1.012606 1.59787,-1.132722 0.96963,-0.265268 1.72912,-0.430849 2.31166,-0.446177 z m 2.11655,2.386106 c 3.1392,1.462076 7.30287,2.868394 10.75793,3.937273 -0.0159,0.0075 -0.0311,0.01612 -0.0457,0.02579 -0.12798,0.161101 -0.10169,0.395354 0.0589,0.52403 0.78523,0.629575 1.00579,1.086878 1.01157,1.329778 0.006,0.242897 -0.15872,0.437986 -0.50019,0.636426 -0.68294,0.396881 -1.86111,0.549816 -1.86111,0.549816 -0.20515,0.02217 -0.35349,0.206466 -0.33134,0.411632 0.0222,0.205372 0.20676,0.353793 0.41211,0.33135 0,0 1.24241,-0.115046 2.15548,-0.645668 0.45657,-0.265311 0.88574,-0.699209 0.87144,-1.3001 -0.0125,-0.520812 -0.38794,-1.053992 -1.03346,-1.634854 3.08052,0.930488 5.70106,1.638747 5.70106,1.638747 l 0.52208,0.135751 c -0.16624,0.345583 -0.10226,0.338433 -0.29047,0.693355 -0.74505,1.40509 -1.66378,2.826387 -2.71454,3.961114 -0.52537,0.567369 -1.08301,1.063518 -1.66989,1.449471 -0.58688,0.38595 -1.20225,0.662 -1.84067,0.79067 -2.18513,0.44038 -6.30797,0.19373 -6.82649,0.16153 0,-0.28414 0.0172,-1.1238 -0.15229,-2.338905 -0.0831,-0.595508 -0.23307,-1.191008 -0.41747,-1.74725 0.008,0.0092 0.13234,0.09391 0.13234,0.09391 0.13749,0.152681 0.37245,0.165723 0.52598,0.0292 0.15361,-0.137632 0.16668,-0.373701 0.0292,-0.527436 0,0 -0.73959,-0.837037 -1.8684,-1.327832 -0.0122,-0.0053 -0.0301,-0.0022 -0.0423,-0.0073 -0.002,-7.48e-4 -0.002,-0.0032 -0.003,-0.0039 -0.53225,-0.236039 -1.13487,-0.310175 -1.73266,-0.26469 -0.16783,0.01024 -0.32405,0.08633 -0.49629,0.1231 -0.20545,0.05739 -0.42589,0.03622 -0.61599,0.152781 l -0.17857,0.108504 v 0.141591 c -0.37807,0.181962 -0.75358,0.211687 -1.12348,0.570251 -0.14798,0.143123 -0.15232,0.378963 -0.01,0.527436 0.1433,0.148147 0.37952,0.152285 0.52792,0.0092 0.16235,-0.157352 0.30501,-0.129617 0.4637,-0.244255 -0.091,0.647434 -0.20141,1.386388 -0.40823,2.289281 -0.23001,1.004162 -0.38651,1.604564 -0.4598,1.890294 -0.47243,-0.13946 -2.27487,-0.704882 -4.34404,-2.300466 -1.17862,-0.908862 -2.35379,-2.107433 -3.23662,-3.681342 -0.35236,-0.628174 -0.61205,-1.363897 -0.85295,-2.117036 l 0.22966,-0.08612 c 0,0 2.04339,-0.797789 4.06767,-1.624149 -0.30574,0.258843 -0.77736,0.507451 -0.88408,0.791152 -0.19828,0.526942 0.0159,1.043912 0.32161,1.386221 0.61139,0.684623 1.60907,1.008159 1.60907,1.008159 0.19456,0.06987 0.40889,-0.03152 0.47829,-0.226252 0.0697,-0.195123 -0.0327,-0.409696 -0.2282,-0.478291 0,0 -0.90223,-0.352209 -1.30204,-0.799911 -0.19992,-0.223853 -0.26831,-0.38739 -0.17808,-0.627181 0.0902,-0.239791 0.43544,-0.629304 1.28501,-1.064602 0.18425,-0.09418 0.25692,-0.32018 0.16203,-0.504078 -0.007,-0.0026 -0.0135,-0.0051 -0.0204,-0.0073 0.94407,-0.399031 1.90953,-0.807769 2.6761,-1.173104 0.47921,-0.228384 0.89479,-0.439867 1.22273,-0.629129 0.20186,-0.116499 0.3107,-0.228595 0.44667,-0.336213 z m 0.24134,2.909165 c -1.39557,0.01094 -2.98103,0.06622 -4.78195,0.178567 -0.20639,0.013 -0.36295,0.191173 -0.34935,0.397525 0.013,0.205576 0.18998,0.361835 0.39558,0.349351 7.15591,-0.446399 10.83834,0.02088 12.68325,0.571712 0.92247,0.275418 1.38197,0.569402 1.59836,0.76342 0.10822,0.09701 0.15612,0.167822 0.17662,0.203868 0.0204,0.03604 0.007,-0.002 0.007,-0.002 0.0365,0.203177 0.23086,0.338256 0.43402,0.30167 0.20318,-0.03652 0.33826,-0.230855 0.30167,-0.434016 0,0 -0.0292,-0.125218 -0.092,-0.235496 -0.0627,-0.110278 -0.16673,-0.245852 -0.32941,-0.391684 -0.3253,-0.291666 -0.88654,-0.625497 -1.883,-0.92301 -0.99646,-0.297509 -2.43015,-0.559392 -4.51628,-0.691409 -1.04307,-0.066 -2.24881,-0.09949 -3.64436,-0.08855 z m 18.73659,13.779966 h 5e-4 l 0.15959,5.01063 -0.0462,-0.007 v 0.002 l -0.002,-5e-4 -0.0569,0.36346 c -0.41641,2.65777 -3.3332,8.499378 -9.51572,13.686058 -0.0182,-0.016 -0.0344,-0.0312 -0.0525,-0.0472 -0.89724,-0.7903 -1.65932,-1.52617 -2.31605,-2.21922 -0.0667,-0.0704 -0.13704,-0.14218 -0.20143,-0.21165 -0.23856,-0.25724 -0.45844,-0.50721 -0.66708,-0.75223 -0.0989,-0.1163 -0.19652,-0.23179 -0.28902,-0.34546 -0.18069,-0.2218 -0.34907,-0.4388 -0.50651,-0.65102 -0.10015,-0.13524 -0.1949,-0.2684 -0.2861,-0.39996 -0.0875,-0.126 -0.16797,-0.24899 -0.24766,-0.37173 -0.13792,-0.2129 -0.2676,-0.42199 -0.38342,-0.62572 -0.029,-0.0509 -0.0555,-0.10098 -0.0832,-0.15132 -0.43648,-0.79552 -0.71269,-1.52418 -0.88506,-2.20803 -0.0337,-0.13447 -0.0457,-0.26135 -0.072,-0.39314 l -0.27296,-6.325808 c 2.10405,0.36669 4.29875,0.35911 6.39198,-0.0219 0.0402,-0.007 0.0805,-0.0144 0.12067,-0.0219 0.10117,-0.0192 0.202,-0.0389 0.30264,-0.0598 0.11151,-0.0229 0.22252,-0.0474 0.3333,-0.0725 0.0697,-0.0159 0.13935,-0.0314 0.20873,-0.0482 0.18692,-0.0449 0.37301,-0.0922 0.55761,-0.14354 0.23612,-0.0657 0.47067,-0.13747 0.70454,-0.21214 0.0619,-0.0197 0.12365,-0.0396 0.18538,-0.0598 0.17147,-0.0566 0.3422,-0.11584 0.51235,-0.17711 0.19464,-0.0696 0.38809,-0.14309 0.58096,-0.21846 0.0366,-0.0144 0.0734,-0.0282 0.10996,-0.0428 2.03477,-0.80793 3.96598,-1.93152 5.71615,-3.27458 z m -23.08696,5.5585 h 0.002 0.002 c 2.58861,0.0145 4.98745,0.24641 6.63965,0.31773 0.0802,1.56155 -0.10789,3.105218 0.24863,4.901638 l 0.005,0.12456 0.007,0.0306 c 0.027,0.12593 0.0587,0.25369 0.092,0.38195 0.0132,0.0513 0.0142,0.0971 0.0287,0.14889 0.0292,0.1054 0.0727,0.21598 0.10656,0.32308 0.0135,0.0423 0.0282,0.0849 0.0423,0.12748 0.0794,0.23916 0.17158,0.4831 0.27685,0.73179 0.0362,0.0857 0.0743,0.17192 0.11386,0.25885 0.0903,0.19819 0.18993,0.40023 0.29875,0.60529 0.0713,0.13462 0.14636,0.27038 0.22625,0.40823 0.0771,0.1328 0.15489,0.26597 0.24036,0.4019 0.13343,0.21255 0.28079,0.43028 0.43596,0.65102 0.0795,0.11286 0.15978,0.22598 0.24523,0.34108 0.18475,0.24931 0.38501,0.50438 0.59945,0.76488 0.084,0.10186 0.17109,0.20483 0.25982,0.30848 0.243,0.28425 0.50179,0.57494 0.7824,0.87338 0.0765,0.0813 0.158,0.16429 0.23744,0.24669 0.31427,0.32627 0.64658,0.65947 1.00865,1.00378 0.0561,0.0533 0.1174,0.10826 0.17467,0.16203 0.39142,0.36755 0.80595,0.74378 1.25534,1.1332 0.0167,0.0144 0.0296,0.0275 0.0462,0.0418 l 0.23842,0.2063 0.24328,-0.20046 c 6.25405,-5.15073 9.299,-10.8691 9.93855,-14.002328 0.29187,0.0414 3.85464,0.54439 8.402455,1.33221 4.72988,0.81935 10.19619,1.901038 13.0258,2.895048 0.93106,0.32708 1.42862,0.54981 1.77303,0.92691 0.34444,0.3771 0.59353,0.97967 0.90939,2.13844 1.4591,5.35258 3.75388,18.66401 6.07815,32.94474 2.31789,14.2417 4.67021,29.44985 6.2937,38.83312 -0.73525,2.75669 -2.69731,5.84717 -5.31863,6.56325 -0.75607,-0.0431 -1.48719,-0.0865 -2.20997,-0.12991 -6.13459,-0.79186 -24.039365,-4.02942 -33.762635,-7.5646 1.23292,-1.01621 2.1014,-2.48621 2.71064,-4.15915 0.0929,-0.24832 0.17981,-0.50104 0.2608,-0.75855 0.50248,-1.03335 0.7301,-2.43812 0.87192,-3.91732 0.15625,-1.62963 0.19191,-3.34801 0.27588,-4.69485 l 0.0165,-0.2608 -0.17127,-0.0754 c -0.002,-0.0483 -0.003,-0.0964 -0.005,-0.14451 3.39756,1.99153 8.763965,3.87672 13.506995,5.29722 4.95172,1.483 9.07818,2.45193 9.12112,2.46201 0.009,0.002 0.0174,0.005 0.0263,0.006 l 0.52014,0.12261 -0.0156,-0.10558 c 3.48295,0.0918 5.12851,0.83591 5.88157,1.49618 0.39195,0.34364 0.5525,0.66489 0.62524,0.89333 0.0727,0.22844 0.0569,0.32941 0.0569,0.32941 -0.0199,0.20579 0.13085,0.38874 0.3367,0.40822 0.2058,0.02 0.38874,-0.13086 0.40823,-0.3367 0,0 0.0207,-0.28106 -0.09,-0.62864 -0.11066,-0.34758 -0.3527,-0.7957 -0.84419,-1.22663 -0.95535,-0.83765 -2.81199,-1.60739 -6.48054,-1.68643 l -6.98656,-49.48886 c -0.0286,-0.20479 -0.21812,-0.3474 -0.42283,-0.31821 -0.205,0.0286 -0.34768,0.21842 -0.31821,0.42331 l 6.95349,49.24412 c -0.44775,-0.10615 -3.89636,-0.91534 -8.55865,-2.31166 -4.95394,-1.48367 -10.731065,-3.49246 -13.923025,-5.49866 l -0.0268,-0.0165 c -0.3895,-0.52199 -1.0651,-0.80254 -1.78277,-0.98772 -0.72476,-0.18703 -1.52462,-0.26994 -2.22749,-0.30508 -0.0115,-0.0909 -0.0179,-0.18367 -0.0321,-0.27345 -0.4104,-2.57855 -2.1795,-5.03332 -3.46823,-6.58272 -0.20305,-0.24414 -0.43178,-0.4574 -0.6734,-0.65151 -0.0234,-0.0188 -0.0449,-0.0396 -0.0686,-0.0579 -0.2347,-0.1815 -0.48506,-0.33664 -0.74445,-0.47196 -0.0354,-0.0184 -0.0699,-0.0369 -0.10558,-0.0545 -0.25889,-0.12753 -0.52504,-0.23301 -0.79748,-0.31529 -0.0376,-0.0114 -0.0747,-0.0206 -0.1124,-0.0311 -0.27757,-0.0772 -0.55771,-0.13597 -0.83834,-0.16641 -0.006,-7.4e-4 -0.0115,-0.003 -0.0175,-0.003 -0.0157,-0.002 -0.031,0.001 -0.0467,-5e-4 -0.13846,-0.0132 -0.27775,-0.0254 -0.41504,-0.0272 -0.14665,-0.002 -0.29183,0.004 -0.43644,0.0156 -0.0217,0.002 -0.0422,0.005 -0.0637,0.007 -0.2707,0.0252 -0.53483,0.0748 -0.78921,0.14889 -0.0329,0.01 -0.0648,0.0198 -0.0973,0.0302 -0.24603,0.0788 -0.4808,0.18203 -0.69968,0.30994 -0.0249,0.0146 -0.0504,0.0276 -0.0749,0.0428 -0.23323,0.14486 -0.44787,0.31668 -0.63545,0.52208 -0.002,0.002 -0.005,0.003 -0.006,0.005 -0.25585,0.28164 -0.67331,0.56784 -1.18284,0.83981 -0.002,9.9e-4 -0.005,0.002 -0.007,0.003 -0.50825,0.27079 -1.10677,0.52765 -1.72925,0.75174 -1.22719,0.44179 -2.53617,0.77678 -3.45752,0.98967 -0.0239,-0.002 -0.70777,-0.0216 -1.11715,-0.0423 l 0.0195,-0.0126 -1.20473,-0.0326 -0.51187,-0.0136 -0.0827,-1.83726 0.26469,-0.002 0.0165,0.0506 0.28756,-0.0521 0.48072,-0.002 -0.0311,-0.0954 c 0.21517,-0.0528 0.48518,-0.1266 0.75807,-0.22625 0.29117,-0.10632 0.58292,-0.23486 0.82278,-0.42574 0.11992,-0.0954 0.23069,-0.20883 0.30605,-0.36249 0.0753,-0.15367 0.10101,-0.35571 0.0477,-0.53765 -0.89701,-3.05983 -2.21442,-6.62258 -3.59425,-10.39836 -0.59059,-1.61603 -1.19068,-3.27013 -1.77644,-4.94348 -0.0536,-0.15318 -0.10725,-0.30489 -0.16057,-0.45834 -0.63779,-1.83563 -1.25348,-3.68936 -1.80904,-5.5332 -0.008,-0.0258 -0.0166,-0.0516 -0.0243,-0.0774 0.42622,-1.71415 0.50193,-2.67471 0.39947,-3.25511 -0.0408,-0.23078 -0.11335,-0.41313 -0.21701,-0.55176 l 0.28951,-0.30508 -0.51868,0.0122 -0.27637,0.006 c -0.0234,-0.002 -0.048,-0.004 -0.0676,-0.003 h -0.002 l -0.24085,0.0107 h -0.006 c -0.0152,2.5e-4 -0.0232,5e-4 -0.0428,0.001 l -1.44217,-14.05634 c 0,-0.0104 -5e-4,-0.0208 -0.003,-0.0311 l -0.0151,-0.13721 -0.0545,-0.53133 -0.003,0.003 -0.38828,-3.53294 c -0.0224,-0.20602 -0.20817,-0.35447 -0.41406,-0.33086 -0.20438,0.0234 -0.35142,0.20763 -0.32892,0.41212 l 0.43985,3.98982 -18.79838,14.64264 c -1.43546,0.0258 -2.83277,0.0503 -4.27349,0.074 -2.08554,0.0345 -4.18668,0.0712 -6.17254,0.0978 -0.48522,0.006 -0.94084,0.0112 -1.41542,0.017 -3.30416,0.0409 -6.41376,0.0705 -8.84572,0.0705 -7.5e-4,0 -0.001,5e-4 -0.002,5e-4 -0.13402,2.5e-4 -0.26179,0.0198 -0.38584,0.0491 1.99835,-1.55697 3.9926,-3.11513 6.16281,-4.74448 12.05213,-9.04856 26.07597,-18.67717 34.66717,-23.030998 1.88649,-0.66111 4.22249,-0.87915 6.50633,-0.89625 0.18387,-0.001 0.36779,-0.001 0.55127,-5e-4 z m -7.9013,14.598368 1.36919,13.35325 c -0.94935,0.0223 -9.0824,0.2075 -19.01344,0.39022 z m 1.54143,14.09818 c -0.25201,0.30432 -0.56495,0.70477 -0.87532,1.16824 -0.34105,0.5093 -0.66501,1.07456 -0.86755,1.64458 -0.20253,0.57002 -0.29503,1.16238 -0.0788,1.70054 0.37538,0.93439 0.76202,1.93251 1.14975,2.9515 1.33895,3.52215 2.72391,7.44073 3.87499,10.78565 0.63361,1.84365 1.2055,3.53444 1.62658,4.79703 0.0189,0.057 0.0408,0.12195 0.0594,0.17759 0.43614,1.30951 0.73463,2.22156 0.79748,2.41433 l -3.11206,0.0161 v 5e-4 l -0.36395,0.002 -0.24036,10e-4 -0.27102,0.001 v 5e-4 h -0.0268 l 0.0657,0.94782 0.10558,1.51808 -22.12599,-0.19511 -6.66738,-0.0589 0.18733,-0.27393 -0.54252,0.10315 -0.40579,-1.61539 -0.30216,0.0107 -4.72745,0.16787 -0.47975,0.017 0.49337,-0.46224 -1.38524,-1.12688 c -0.13445,-0.2598 -0.15744,-0.2996 -0.32746,-0.63302 -0.0764,-0.1501 -0.1127,-0.21744 -0.19657,-0.38341 -0.0754,-0.14909 -0.17436,-0.35337 -0.25448,-0.51284 l -0.003,-0.17078 -0.0414,-0.0827 c -0.21962,-0.43931 -0.45341,-0.91189 -0.69822,-1.41152 l -0.12796,-0.26177 -0.0822,0.0102 c -0.89355,-1.82998 -1.9264,-4.02201 -2.94177,-6.33554 l 0.004,-0.003 -0.12358,-0.26859 c 0.008,0.0171 0.007,0.0137 -0.004,-0.0102 -0.77161,-1.76858 -1.52645,-3.59792 -2.19732,-5.38772 -0.0101,-0.027 -0.0205,-0.055 -0.0321,-0.0861 -0.28716,-0.7687 -0.55095,-1.52379 -0.80088,-2.26788 -0.0664,-0.19803 -0.13177,-0.3945 -0.19512,-0.5902 -0.25083,-0.7739 -0.48482,-1.53474 -0.67827,-2.25668 -0.15201,-0.56732 -0.0298,-1.46534 0.30703,-2.17591 0.007,-0.0149 0.009,-0.0201 0.008,-0.0165 v -5e-4 c 0.0833,-0.17325 0.17768,-0.33445 0.28026,-0.4778 l 5e-4,-5e-4 c 0.11624,-0.1615 0.24286,-0.29625 0.37563,-0.40579 0.10255,-0.0849 0.20703,-0.15408 0.31237,-0.20096 0.0161,-0.007 0.0325,-0.0116 0.0487,-0.018 0.11253,-0.0438 0.22481,-0.0715 0.34302,-0.0715 2.5045,0 5.68477,-0.0304 9.05495,-0.072 0.17742,-0.002 0.29448,-0.001 0.47343,-0.004 0.14177,-0.002 0.30253,-0.005 0.4452,-0.007 2.31393,-0.0301 4.67061,-0.0723 7.09994,-0.11288 1.2732,-0.0213 2.49582,-0.0365 3.76357,-0.0594 l 0.12456,-0.002 0.005,-0.004 c 10.02925,-0.18162 19.16195,-0.38916 20.07416,-0.41066 v 5e-4 z m 0.89187,0.11385 c 0.011,0.0281 0.0176,0.0172 0.0297,0.0851 0.0342,0.1939 0.0436,0.51801 -0.0117,1.014 v 5e-4 c -0.0552,0.49596 -0.17503,1.16359 -0.39849,2.04308 l -0.0258,0.10023 0.0297,0.0988 c 1.1622,3.88002 2.58611,7.79849 3.93435,11.48485 1.33387,3.64698 2.59348,7.06773 3.45217,9.99499 0,0.002 0.002,0.005 0.002,0.007 0,0 0,5e-4 0,5e-4 -0.007,0.0141 -0.0382,0.0568 -0.10071,0.10655 -0.12531,0.0998 -0.36233,0.21673 -0.61356,0.30848 -0.35368,0.12914 -0.55349,0.16112 -0.73958,0.20047 -0.0748,-0.22941 -0.31327,-0.95529 -0.76488,-2.31069 -0.39854,-1.19823 -0.93126,-2.77802 -1.55505,-4.59997 -0.0789,-0.23035 -0.13462,-0.39592 -0.21604,-0.63254 -0.21135,-0.61468 -0.44023,-1.2686 -0.66708,-1.91998 -0.16738,-0.48045 -0.32465,-0.9374 -0.49824,-1.43049 -0.3098,-0.88013 -0.63203,-1.77782 -0.95658,-2.67951 -0.10324,-0.28691 -0.20199,-0.56807 -0.30605,-0.85489 -0.29058,-0.80073 -0.58334,-1.5855 -0.87727,-2.37443 -0.15162,-0.40721 -0.30244,-0.8245 -0.45348,-1.22371 -0.41222,-1.0889 -0.82167,-2.14235 -1.22079,-3.13931 -0.0199,-0.05 -0.0413,-0.10841 -0.0613,-0.15813 -0.11302,-0.28138 -0.0806,-0.6947 0.089,-1.17213 0.16963,-0.47743 0.46506,-1.00115 0.78483,-1.47867 0.27902,-0.41668 0.56592,-0.78224 0.81013,-1.07871 0.11624,-0.13865 0.23671,-0.2823 0.31578,-0.37027 0.007,-0.008 0.0122,-0.0143 0.0185,-0.0214 z m -43.77223,0.90647 c -0.10957,0.16329 -0.21011,0.33446 -0.29534,0.51284 -0.40959,0.85727 -0.58029,1.87222 -0.35811,2.7014 0.1975,0.73707 0.43543,1.5097 0.68946,2.29463 0.0236,0.0729 0.0402,0.13996 0.0642,0.21312 0.008,0.0244 0.0166,0.05 0.0263,0.0793 v 5e-4 c 0.032,0.097 0.0719,0.19927 0.10461,0.2968 0.25276,0.75405 0.52095,1.51829 0.81062,2.29463 4.9e-4,0.001 9.7e-4,0.003 0.001,0.004 7.4e-4,0.002 0.002,0.004 0.002,0.006 0.65284,1.74897 1.38292,3.52639 2.13261,5.2544 l -2.16375,1.68643 -3.05319,-2.25814 c -0.0799,-0.0587 -0.17985,-0.0832 -0.27783,-0.0681 -0.0978,0.0147 -0.18582,0.0675 -0.24474,0.14694 -0.12244,0.16619 -0.0869,0.40019 0.0793,0.52257 l 2.88484,2.13309 -0.36298,0.28269 0.9488,0.0817 c 0,0 0.0504,-0.001 0.26566,0.0837 0.21522,0.0851 0.55749,0.25384 1.02373,0.58533 0.79177,0.56294 1.97202,1.67438 3.46142,3.55873 l -0.007,0.001 0.39265,0.51867 c -0.72167,0.26635 -1.50305,0.86558 -2.36664,1.65772 -1.14509,1.05037 -2.37775,2.47362 -3.45898,4.04675 -1.08124,1.57314 -2.01099,3.2941 -2.53354,4.95225 -0.34912,1.10782 -0.51951,2.19606 -0.40871,3.19185 -5.131,-5.24853 -10.1281,-10.77243 -13.03895,-13.87636 -0.43709,-1.39409 -0.72565,-2.21158 -0.72838,-3.12665 -0.003,-0.93586 0.28619,-2.05883 1.07579,-4.11293 0.0671,-0.17461 0.29357,-0.52546 0.65783,-0.95901 0.36426,-0.43356 0.8648,-0.96338 1.48353,-1.57209 1.23747,-1.21741 2.94786,-2.75117 5.01161,-4.50412 2.31524,-1.96657 5.13939,-4.24004 8.18156,-6.62991 z m 3.48429,14.36725 c 0.74992,1.70331 1.48755,3.27658 2.19294,4.75081 -1.22854,-1.4554 -2.22256,-2.34452 -2.96609,-2.87316 -0.40781,-0.28995 -0.68666,-0.41881 -0.94637,-0.53765 z m 3.39475,7.22936 c 0.10555,0.21279 0.19437,0.38798 0.29437,0.58777 l 0.003,0.19365 -0.78921,-0.64226 c 0.19083,-0.0833 0.35082,-0.13234 0.4637,-0.1377 z m -1.19695,0.52841 0.93907,0.76439 c -0.68842,0.29512 -1.27482,0.63638 -1.67329,1.07725 -1.42865,1.58054 -2.52967,3.39049 -3.15439,5.30792 l -1.27675,-1.48353 c 0.14854,-0.23273 0.29968,-0.46409 0.45591,-0.69141 0.7655,-1.11374 1.61331,-2.15118 2.43963,-3.0201 0.0333,-0.0348 0.0661,-0.0703 0.0993,-0.10461 0.27017,-0.28021 0.53803,-0.54306 0.79894,-0.78239 0.48622,-0.44599 0.95751,-0.80207 1.37162,-1.06752 z m 2.05719,1.18867 c 0.2053,0.40384 0.22909,0.44798 0.39169,0.76245 v 5e-4 c 0.35911,0.69954 0.54124,1.04651 0.68897,1.32637 l 0.1557,0.29486 c 0.003,0.005 0.0652,0.12503 0.0652,0.12504 l 0.10997,0.20485 0.71573,-0.0253 c -0.44386,0.55111 -1.07502,0.96142 -2.064,0.88116 -0.2057,-0.0168 -0.38609,0.13635 -0.40288,0.34206 -0.0167,0.20641 0.13751,0.3871 0.344,0.40287 1.24618,0.10114 2.13295,-0.4732 2.71016,-1.1697 l 0.35811,1.38817 c -0.12237,0.10402 -0.26397,0.24762 -0.39752,0.47343 -0.25717,0.4348 -0.47083,1.12039 -0.46662,2.17785 l -0.24766,-9.9e-4 0.30167,0.55565 1.93847,3.55192 c -0.82035,0.72996 -2.65815,2.09065 -5.45827,2.62112 -0.2034,0.0383 -0.33693,0.23465 -0.29777,0.4379 0.0392,0.2024 0.23496,0.33477 0.43742,0.29583 2.79563,-0.52961 4.72066,-1.86928 5.68306,-2.68777 l 0.10996,0.20192 v 5e-4 l 2.9009,0.17078 c -0.25662,0.4219 -0.58843,0.89456 -1.02228,1.37698 -1.29936,1.44479 -3.4235,2.9017 -6.85324,2.98214 -2.10081,-0.51927 -3.40962,-1.49882 -4.2297,-2.71064 -0.47177,-0.69714 -0.77754,-1.47956 -0.96583,-2.30047 l 0.0234,-0.0175 -0.0491,-0.25106 c -0.10458,-0.5325 -0.16113,-1.0799 -0.17905,-1.6295 -0.0995,-3.05301 1.26819,-6.09497 3.51493,-8.58055 0.38248,-0.42319 1.17106,-0.84918 2.17397,-1.19695 z m 52.50994,1.0865 c 0.22603,-0.018 0.46048,-0.0129 0.69725,0.009 0.0292,0.003 0.0579,0.003 0.0871,0.006 0.22902,0.0257 0.45851,0.0746 0.68606,0.13721 0.044,0.0121 0.0881,0.023 0.13186,0.0365 0.22224,0.0685 0.44044,0.15533 0.65199,0.25837 0.0411,0.02 0.0816,0.0415 0.12213,0.0628 0.21534,0.11329 0.42389,0.24162 0.61793,0.39071 0.0209,0.016 0.0402,0.0342 0.0608,0.0506 0.20433,0.16341 0.39693,0.34281 0.56588,0.54592 1.25258,1.50596 2.93614,3.90686 3.30474,6.22266 0.27069,1.70075 -0.0291,3.71903 -0.78191,5.22813 -1.51669,3.04015 -3.72671,5.52848 -6.98413,6.7462 -0.66966,0.25033 -1.75764,0.70191 -2.59728,0.85149 -0.20899,0.0372 -0.39953,0.0512 -0.55663,0.0467 -0.002,-6e-5 -0.003,-5e-4 -0.005,-5e-4 -0.15476,-0.005 -0.27685,-0.0276 -0.35081,-0.0628 -0.002,-7.4e-4 -0.003,-0.002 -0.004,-0.003 -0.0693,-0.0339 -0.10135,-0.0658 -0.1304,-0.127 0,-0.001 -0.002,-0.002 -0.002,-0.004 0,-0.003 -0.002,-0.008 -0.003,-0.0112 -0.0115,-0.0265 -0.005,-0.1011 -0.0127,-0.14402 1.46789,-0.50354 2.45745,-1.17087 3.08676,-1.73314 0.66811,-0.59696 0.9488,-1.10499 0.9488,-1.10499 0.0976,-0.18129 0.0301,-0.40735 -0.15084,-0.50553 -0.18175,-0.0989 -0.40925,-0.0313 -0.50748,0.15083 0,0 -0.1954,0.37008 -0.78921,0.90063 -0.586,0.5236 -1.54338,1.1736 -3.0308,1.65237 -0.24305,-0.0138 -0.51354,-0.008 -0.8077,0.0141 -1.00059,0.0746 -2.22635,0.30863 -3.20791,0.3839 -0.64899,0.0498 -1.18906,-0.009 -1.32735,-0.0847 -0.002,-7.4e-4 6e-5,-2.2e-4 -0.002,-9.9e-4 -0.0633,-0.0349 -0.0436,-0.009 -0.0418,-0.0496 2e-5,-10e-4 0,-2.2e-4 0,-10e-4 0,-0.002 0.003,-0.01 0.003,-0.0117 0.002,-0.0389 0.0741,-0.18772 0.15229,-0.33427 2.51654,-0.50784 4.26128,-1.39897 5.38237,-2.17786 1.14802,-0.79763 1.66405,-1.50445 1.66405,-1.50445 0.12097,-0.1675 0.083,-0.40139 -0.0847,-0.52209 -0.0801,-0.0578 -0.17979,-0.0816 -0.27735,-0.0662 -0.0984,0.0156 -0.18654,0.0699 -0.24474,0.15084 0,0 -0.41634,0.58554 -1.48402,1.32734 -1.0677,0.74181 -2.76522,1.61151 -5.27775,2.09271 -0.26364,0.0423 -0.55407,0.0678 -0.85635,0.0837 -0.0429,0.002 -0.084,0.006 -0.12748,0.008 -0.28662,0.0114 -0.5885,0.009 -0.89771,-0.002 -0.96178,-0.035 -2.00925,-0.17207 -3.01378,-0.40288 -1.72737,-0.3969 -3.32766,-1.07698 -4.12654,-1.83872 -0.42857,-0.40864 -0.40266,-0.59536 -0.3766,-0.69189 0.007,-0.0246 0.0192,-0.0377 0.0297,-0.0564 6.9817,1.23477 10.67456,0.60341 12.66573,-0.4131 1.0054,-0.51326 1.56982,-1.13109 1.87425,-1.63144 0.30442,-0.50036 0.3547,-0.92107 0.3547,-0.92107 0.0202,-0.20511 -0.12968,-0.38775 -0.33475,-0.40823 -0.20511,-0.0201 -0.38776,0.12969 -0.40823,0.33476 0,0 -0.0155,0.22105 -0.2501,0.60674 -0.23464,0.38569 -0.6839,0.89821 -1.57597,1.35362 -1.70394,0.86987 -5.05364,1.51369 -11.47317,0.46516 l 0.21165,-0.14013 -1.19549,-0.0243 c 0,0 -0.44325,-0.01 -0.93566,-0.0968 -0.49243,-0.087 -0.99977,-0.30464 -1.09914,-0.44764 -0.2414,-0.34732 -0.32336,-0.60901 -0.3333,-0.79309 -0.01,-0.18409 0.0396,-0.30441 0.1304,-0.42185 0.18158,-0.2349 0.59014,-0.40568 0.79504,-0.45494 0.26188,-0.0629 0.52718,-0.1505 0.79359,-0.24766 l 8.64429,0.50895 0.0355,0.27101 0.39314,-0.24571 0.33183,0.0195 -0.0272,-0.21019 3.58841,-2.24938 0.003,0.0817 0.55614,-0.43256 0.16884,-0.10607 v -0.0248 l 6.18471,-4.81309 -1.32102,0.15035 -5.14736,0.58582 -1.03589,-2.66345 c 0.15938,-0.0383 0.35609,-0.0943 0.5284,-0.13769 0.27648,-0.0702 0.51854,-0.1286 0.82133,-0.2136 0.59203,-0.16449 1.21112,-0.35113 1.83823,-0.57756 1.29555,-0.46777 2.51848,-1.02909 3.21375,-1.79444 0.004,-0.005 0.009,-0.009 0.0136,-0.0131 0.13627,-0.14714 0.29503,-0.27439 0.47148,-0.38293 0.0192,-0.0118 0.0394,-0.0222 0.0589,-0.0336 0.17157,-0.0992 0.35846,-0.18117 0.55761,-0.24426 0.0232,-0.007 0.0461,-0.015 0.0696,-0.0219 0.20809,-0.0606 0.42779,-0.10163 0.65588,-0.12262 0.0152,-10e-4 0.0299,-0.004 0.0453,-0.005 z m -12.44824,0.97118 0.0817,1.81294 -0.8583,-0.0233 0.003,-1.78569 0.71038,-0.003 z m -1.521,0.008 -0.003,1.76136 -0.53522,-0.0146 0.006,-0.0107 -0.0837,-9.9e-4 -0.0457,-1.73168 z m -31.68794,0.45591 0.24767,0.98675 -3.35632,0.63837 -0.0696,-0.26858 -0.31772,-1.23246 z m 0.87047,1.76136 29.10136,0.25594 c -0.098,0.27422 -0.19573,0.59816 -0.29291,0.95853 -0.002,0.009 -0.005,0.0194 -0.007,0.0287 -0.002,0.007 -0.004,0.0112 -0.006,0.0185 -0.004,0.0143 -0.006,0.03 -0.0102,0.0443 -0.14404,0.54552 -0.27592,1.14701 -0.36054,1.70978 l -29.11306,-0.0978 c -0.0598,-0.93311 0.1893,-2.05336 0.68849,-2.91792 z m -0.93956,0.15716 c -0.38845,0.87498 -0.56911,1.86249 -0.51721,2.75833 l -3.30328,-0.0112 c -0.003,-0.94716 0.17906,-1.50368 0.35422,-1.7998 0.0985,-0.16664 0.1931,-0.2595 0.25495,-0.30946 0.0497,-0.0401 0.0475,-0.0359 0.0492,-0.036 z m 30.8603,0.11094 h 4.9e-4 l 1.36725,0.037 0.27247,0.007 1.29864,0.035 c -0.13064,0.20591 -0.23996,0.43091 -0.33475,0.66221 -0.002,0.004 -0.005,0.007 -0.006,0.0117 v 4.9e-4 c -0.11113,0.27305 -0.20146,0.55487 -0.27734,0.82668 -0.14611,0.52344 -0.18034,0.78434 -0.21409,1.01594 l -0.0175,-0.003 c 0,0.005 -0.004,0.0183 -0.007,0.037 -0.003,0.0156 -0.003,0.0225 -0.006,0.0375 l -2.7778,-0.009 c 0.0562,-0.33656 0.11927,-0.68332 0.19268,-1.02081 0.0268,-0.11243 0.0506,-0.22751 0.0788,-0.33621 0.0132,-0.0532 0.0253,-0.10788 0.0394,-0.16008 0.14095,-0.52264 0.2836,-0.89591 0.3912,-1.141 z m 3.8925,0.10607 c 0.92768,0.008 1.74719,0.0605 1.93555,0.0735 l 1.00865,2.59533 -4.01755,-0.0127 c 0.003,-0.0197 0.002,-0.0132 0.005,-0.0341 0.0468,-0.25485 0.1172,-0.59106 0.21652,-0.94686 0.0955,-0.34205 0.22796,-0.692 0.37514,-0.99307 0.0314,-0.065 0.0626,-0.12849 0.0959,-0.18781 0.0528,-0.0956 0.10698,-0.18219 0.16154,-0.25983 0.0356,-0.0366 0.0709,-0.0759 0.10704,-0.11434 0.0378,-0.0403 0.0753,-0.0909 0.11191,-0.12018 z m -49.16968,0.489 1.44023,1.67378 c -0.2408,0.97841 -0.35645,1.97925 -0.32356,2.98798 0.016,0.49154 0.0809,0.98391 0.16202,1.47283 -0.40154,0.27673 -0.98843,0.601 -1.58473,0.82278 -0.59007,0.21946 -1.12117,0.27068 -1.3799,0.22771 -0.40638,-1.02731 -0.33452,-2.35197 0.12505,-3.81028 0.3456,-1.09666 0.8972,-2.25199 1.56089,-3.3748 z m 56.81603,2.45812 -3.66577,2.85272 -0.0997,-2.38124 0.15716,5e-4 -0.0229,-0.0589 z m -45.96128,0.33183 36.37744,0.12262 v 9.9e-4 h 0.0589 l 0.019,0.1484 0.0365,-0.0131 0.69432,5.32106 -8.6472,-0.50895 -0.002,0.001 -13.78338,-0.81208 v -0.001 l -12.84236,-0.75612 -0.706,-1.29377 z m 37.22893,0.12505 4.21899,0.0131 0.0851,2.03237 0.037,0.88944 -3.65848,2.29269 z m 20.09458,1.71757 c 0.5743,0.0405 1.16931,0.0761 1.702,0.2136 0.7296,0.18826 1.25428,0.49746 1.43537,0.8437 0.003,0.0571 0.005,0.11565 0.007,0.17322 -1.01901,-0.42643 -2.12471,-0.85286 -3.14466,-1.23052 z m -0.27296,0.70746 c 1.13278,0.41924 2.34921,0.88718 3.44584,1.35557 0.0476,2.25039 -0.1148,4.75502 -0.64323,7.0143 -0.0414,0.17695 -0.0855,0.352 -0.13137,0.52549 -0.0667,0.17767 -0.13757,0.34465 -0.21263,0.49872 -1.29396,-0.47976 -2.78474,-1.14848 -4.10563,-1.77887 l 0.003,-0.12067 h -0.25448 c -0.35709,-0.17189 -0.70147,-0.34013 -1.0213,-0.49921 0.66132,-0.82476 1.2393,-1.72364 1.74288,-2.67318 0.0787,-0.14493 0.15566,-0.29104 0.22965,-0.43937 0.0948,-0.19006 0.18134,-0.38628 0.26031,-0.58728 0.0269,-0.0665 0.051,-0.13442 0.0764,-0.20193 0.006,-0.0179 0.0128,-0.036 0.019,-0.054 0.008,-0.0209 0.0147,-0.0422 0.0224,-0.0632 0,-0.003 0.002,-0.007 0.003,-0.01 0.33542,-0.93408 0.52765,-1.95324 0.56539,-2.96658 z m -51.86183,1.89468 1.84359,0.10851 c -0.49433,1.70747 -1.88218,3.94564 -5.49866,6.18957 -1.06962,-0.007 -2.27636,0.14921 -3.18261,0.0156 -0.46957,-0.0692 -0.84012,-0.21036 -1.09282,-0.44813 -0.19564,-0.1841 -0.34043,-0.43797 -0.40872,-0.82472 3.4349,-0.17666 5.67889,-1.70334 7.03814,-3.21473 0.58297,-0.64826 1.00171,-1.28869 1.30108,-1.82607 z m 2.60749,0.15327 2.60068,0.15327 c -0.46132,1.13253 -1.19743,2.51817 -2.35302,3.8093 -1.06975,0.50943 -2.13208,1.32582 -3.18018,1.87424 -0.8204,0.4293 -1.58878,0.68678 -2.34961,0.56685 3.41404,-2.26694 4.79936,-4.58192 5.28213,-6.40366 z m 3.38405,0.19949 2.61236,0.15375 c -0.0364,0.0967 -0.0605,0.2279 -0.10364,0.29924 -0.54181,0.89695 -1.49136,1.92863 -2.49753,2.61041 -0.78286,0.53048 -1.57298,0.82577 -2.23235,0.77997 1.09378,-1.33368 1.78682,-2.72191 2.22116,-3.84337 z m 42.44196,5.34928 h 0.001 c 0.31618,0.1579 0.65426,0.32477 1.01546,0.50019 -0.0475,1.46683 -0.07,2.96934 -0.0268,4.26181 0.0179,0.53754 0.20598,1.15775 0.50943,1.69908 0.16843,0.30043 0.37441,0.58721 0.62961,0.79699 l -0.12796,0.0822 0.69529,0.26274 c 9.59119,3.62903 27.754935,6.90793 34.326585,7.78113 l 1.48012,22.22038 -51.460915,-1.12591 -3.46822,-33.82346 c 0.3672,0.003 0.72307,-0.01 1.06314,-0.0384 -0.002,0.005 -0.002,0.0104 -0.003,0.0156 -0.0184,0.0712 -0.0412,0.14236 -0.0448,0.21506 0,0.005 -0.003,0.0106 -0.003,0.0161 0,0.002 0.002,0.004 0.002,0.007 0.002,0.14219 0.0477,0.28042 0.12115,0.39995 0.003,0.005 0.006,0.01 0.01,0.0151 0.0762,0.11854 0.17865,0.21722 0.29145,0.28124 0.002,7.4e-4 0.002,0.003 0.003,0.003 0.002,10e-4 0.004,10e-4 0.006,0.002 0.11403,0.063 0.2353,0.1086 0.36347,0.1411 0.002,2.5e-4 0.002,0.001 0.004,0.002 0,2.3e-4 0.002,2.4e-4 0.003,5e-4 0.13084,0.0326 0.26959,0.0516 0.41455,0.0608 0.2921,0.0184 0.61202,-0.002 0.95805,-0.0287 0.63623,-0.0488 1.34133,-0.14253 1.99637,-0.22382 0.65528,-0.0813 1.26035,-0.15026 1.69616,-0.15035 0,0.005 0.002,0.0104 0.002,0.0156 0.0127,0.10183 0.002,0.21421 0.038,0.30557 0.002,0.004 -3e-5,0.0103 0.002,0.0146 0.002,0.003 0.004,0.005 0.005,0.008 0.0492,0.1051 0.11685,0.19844 0.1956,0.27831 0.005,0.006 0.0106,0.0107 0.0161,0.016 0.0813,0.079 0.17334,0.14391 0.27102,0.1917 0.002,7.5e-4 0.003,0.003 0.005,0.003 0,2.5e-4 0.002,1.8e-4 0.002,5e-4 0.20507,0.0985 0.42487,0.14001 0.65394,0.14597 0.22949,0.006 0.46879,-0.0241 0.7133,-0.0676 0.97947,-0.17449 2.09083,-0.64943 2.72768,-0.88749 1.98138,-0.74069 3.5966,-1.9281 4.91185,-3.39768 z m 1.7672,0.86024 c 1.26591,0.60031 2.66542,1.22596 3.88619,1.67767 -0.63387,1.78152 -1.53483,3.28401 -2.81721,4.20245 -0.21257,-0.0816 -0.47263,-0.26597 -0.6841,-0.64323 -0.24402,-0.43527 -0.4032,-0.99155 -0.41553,-1.36092 -0.0389,-1.16149 -0.009,-2.53315 0.0307,-3.87597 z"
    id="path22"
  />
</svg>
