<?xml version="1.0" encoding="UTF-8" standalone="no"?>
<!-- Created with Inkscape (http://www.inkscape.org/) -->

<svg
   width="100mm"
   height="100mm"
   viewBox="0 0 99.999996 99.999996"
   version="1.1"
   id="svg5"
   inkscape:version="1.1.2 (0a00cf5339, 2022-02-04)"
   sodipodi:docname="me-ricknorty-face.svg"
   xmlns:inkscape="http://www.inkscape.org/namespaces/inkscape"
   xmlns:sodipodi="http://sodipodi.sourceforge.net/DTD/sodipodi-0.dtd"
   xmlns="http://www.w3.org/2000/svg"
   xmlns:svg="http://www.w3.org/2000/svg">
  <sodipodi:namedview
     id="namedview7"
     pagecolor="#ffffff"
     bordercolor="#666666"
     borderopacity="1.0"
     inkscape:pageshadow="2"
     inkscape:pageopacity="0.0"
     inkscape:pagecheckerboard="0"
     inkscape:document-units="mm"
     showgrid="false"
     inkscape:zoom="1.272138"
     inkscape:cx="213.42024"
     inkscape:cy="170.97202"
     inkscape:window-width="2560"
     inkscape:window-height="1017"
     inkscape:window-x="0"
     inkscape:window-y="0"
     inkscape:window-maximized="1"
     inkscape:current-layer="svg5" />
  <defs
     id="defs2" />
  <path
     style="color:#000000;display:inline;fill:#f4dfcf;stroke-width:0.736255;stroke-linecap:round;-inkscape-stroke:none"
     d="m 44.955991,21.641791 c -8.81066,-0.04965 -15.83019,4.130498 -18.5401,11.245621 -0.97568,8.281901 -1.31387,5.261063 -0.97593,8.281911 l 3.35724,30.009563 c 1.23147,11.008254 5.73291,20.159334 15.99484,21.586254 l 16.2422,-4.83554 h -9.2e-4 c 4.3999,-4.0102 7.14017,-10.07759 8.0499,-16.941516 l 1.11971,-8.446804 c 1.16194,0.858637 2.91329,1.805109 4.5527,1.319603 2.78078,-0.823497 4.14556,-4.307114 4.46449,-7.227369 0.31895,-2.920256 -0.45988,-7.327578 -3.00875,-8.620316 -1.31532,-0.667097 -2.89696,-0.424112 -4.12084,-0.0331 -3.12748,-8.196195 -3.02689,-14.713743 -5.71027,-18.322482 -3.75565,-5.050726 -10.1543,-7.61979 -20.56624,-7.997669 -0.28785,-0.01044 -0.57378,-0.01665 -0.85801,-0.01823 z"
     id="path2375"
     sodipodi:nodetypes="cccccccccssscsscc" />
  <path
     id="path16393-5"
     style="color:#000000;display:inline;fill:#ffffff;stroke-width:0.736255;stroke-linecap:round;-inkscape-stroke:none"
     d="m 51.583151,46.323291 c -1.48483,1.557248 -2.31707,3.647948 -2.31901,5.825715 -2.2e-4,4.608743 3.64369,8.344999 8.13881,8.345098 4.49532,1.67e-4 8.13951,-3.736177 8.13929,-8.345098 -2.3e-4,-1.80765 -0.57296,-3.566339 -1.63203,-5.011518 0.0379,0.0598 0.0756,0.120729 0.11313,0.183098 -3.6675,0.664535 -9.85158,0.148943 -12.64464,-0.687882 0.0515,-0.101608 0.12111,-0.205146 0.20445,-0.309413 z m -25.15153,0.618234 c -1.03319,1.382021 -1.59382,3.07437 -1.59529,4.815662 2e-5,4.378053 3.46159,7.927172 7.73173,7.927261 4.27029,1.58e-4 7.73213,-3.54903 7.73216,-7.927261 -2.3e-4,-1.579896 -0.46094,-3.123667 -1.32294,-4.433241 -0.27145,1.400581 -11.52777,0.37185 -12.54566,-0.382421 z" />
  <path
     style="color:#000000;display:inline;fill:#c29f8b;stroke-width:0.736255;stroke-linecap:round;-inkscape-stroke:none"
     d="m 41.963541,80.24572 c 0,1.13842 -1.10368,5.38655 -1.10368,5.38655 0,0 -9.5174,-2.4868 -9.55639,-12.22145 -0.62543,-1.083302 -1.11312,-1.769264 -1.876,-3.007938 -0.25682,9.020338 2.66266,13.388858 5.06204,16.325488 2.192,2.68282 5.23537,4.86648 8.52984,5.93827 3.14381,1.02276 6.73079,1.09335 9.91583,0.20727 4.10689,-1.14253 7.93445,-3.68565 10.81078,-6.83187 2.22269,-2.43125 3.77464,-6.29284 4.81577,-9.41813 0.99774,-2.99498 1.59408,-9.335257 1.59408,-9.335257 l -8.33759,6.806937 c 0,0 -3.22161,10.67102 -8.67762,11.77061 -2.41297,0.48631 -7.142,0.1532 -7.142,0.1532 0,0 0.0688,-5.03303 -1.57431,-5.76168 -0.78353,-0.34748 -1.73921,-0.45439 -2.46075,-0.012 z"
     id="path16354-4-1" />
  <path
     id="path16342-2"
     style="color:#000000;display:inline;fill:#593731;stroke-width:0.736255;stroke-linecap:round;-inkscape-stroke:none"
     d="m 48.867061,41.311133 c 0,0 5.7234,-2.633698 8.80045,-2.89472 3.28204,-0.27841 8.43178,1.298048 8.43178,1.298048 0.80099,0.119851 1.44473,0.689311 1.42394,1.498947 -0.0208,0.809646 -0.6893,1.444715 -1.49895,1.423939 0,0 -5.21042,-1.588546 -8.52139,-1.300344 -3.04845,0.265367 -8.71081,2.897017 -8.71081,2.897017 -0.76851,0.255584 -1.44472,-0.689312 -1.42394,-1.498958 0.0208,-0.809626 0.72959,-1.170866 1.49892,-1.423929 z m -22.61702,-2.29354 c 0,0 3.71491,-1.424175 6.76955,-0.972331 3.25813,0.481949 7.74887,3.054431 7.74887,3.054431 0.75208,0.300369 1.24795,1.0023 1.04199,1.785505 -0.20596,0.783214 -1.0023,1.247943 -1.78552,1.04199 0,0 -4.54704,-2.598145 -7.83557,-3.077218 -3.02778,-0.441095 -6.68283,0.995118 -6.68283,0.995118 -0.80661,0.07241 -1.24796,-1.002289 -1.042,-1.785514 0.20596,-0.783214 0.97868,-0.972184 1.78551,-1.041981 z m 19.18654,31.325393 c -1.62919,-0.0059 -3.22212,0.352916 -3.79823,1.38671 -0.01,0.01694 -0.0181,0.03556 -0.0268,0.05369 -0.0261,-0.04413 -0.0537,-0.08699 -0.0833,-0.126541 -0.87382,-1.160838 -2.06306,-1.027972 -4.26563,-0.425393 -2.20256,0.60258 -5.18459,6.143668 -5.18459,6.143668 0,0 8.95859,-3.41777 9.62708,-4.304247 0.0313,0.0269 0.066,0.05005 0.10451,0.06808 6.25393,2.92656 16.94772,5.72139 16.94772,5.72139 0,0 -7.70457,-7.918894 -10.77201,-8.314083 -0.95857,-0.123497 -1.80806,-0.20082 -2.5486,-0.203234 z m 0.86201,-64.436718 c -6.82304,0 -12.35426,2.630615 -12.35433,5.875661 5e-5,0.133378 0.01,0.266707 0.0288,0.39976 -1.66624,1.026957 -2.57112,2.287284 -2.57353,3.584455 1.1e-4,0.399513 0.0859,0.797982 0.25598,1.18922 -1.90714,1.062423 -2.95602,2.413259 -2.95844,3.810205 0.002,0.03359 0.005,0.06719 0.008,0.100662 -0.48642,1.120713 -0.77371,2.896582 -0.77413,4.785191 2.7e-4,0.110178 0.002,0.220307 0.004,0.330258 -0.52862,0.585113 -1.07955,1.98335 -1.48212,3.761318 -0.42086,1.007658 -0.7909,2.395157 -1.03439,3.878756 -0.39338,2.39958 -0.38265,4.560728 -0.0316,5.595734 0.1363,-0.590069 0.47692,-1.634571 1.03008,-6.330066 2.70991,-7.115133 9.72944,-11.295243 18.54011,-11.245631 0.28421,0.002 0.57016,0.0079 0.858,0.01823 10.41194,0.377869 16.81058,2.946943 20.56624,7.997679 2.68341,3.608729 2.58277,10.126287 5.71027,18.322471 0.59026,-0.188595 1.2642,-0.339636 1.95092,-0.37388 1.09787,-4.367769 2.03689,-10.472268 1.78598,-14.514655 -0.35896,-5.773901 -1.50627,-10.493355 -2.75567,-11.335756 -0.73643,-1.555426 -1.71864,-3.122963 -2.87311,-4.585283 -1.77837,-2.251682 -3.87391,-4.138596 -5.92696,-5.336889 -1.51781,-1.29657 -4.01094,-2.271966 -6.97861,-2.730282 -2.1136,-1.962169 -6.35888,-3.196498 -10.99444,-3.196665 z" />
  <path
     id="path85418-2-8-8-0"
     style="display:inline;opacity:0.2;fill:#0000ed;fill-opacity:1;stroke:none;stroke-width:0.736255;stroke-linecap:round;stroke-linejoin:miter;stroke-miterlimit:4;stroke-dasharray:none;stroke-opacity:1"
     d="m 48.446961,45.694241 19.74419,4.93e-4 -0.0197,0.987896 c 0,0 0.16653,0.59 -0.13422,2.470481 -0.30075,1.880492 -0.33252,8.658549 -1.83583,10.117273 -2.47365,2.400073 -5.57974,2.23129 -8.23973,2.101872 -2.65999,-0.129437 -5.89918,-0.470591 -7.61899,-2.693378 -1.71983,-2.222768 -1.18504,-8.855961 -1.54776,-10.782094 -0.36273,-1.926113 -0.21641,-1.245304 -0.348,-2.202523 z m -25.69796,0.194594 17.16058,4.93e-4 c -0.43854,0.99036 -0.63846,2.029484 -0.63846,2.029484 0,0 -0.20855,9.273462 -2.17666,11.195763 -1.96813,1.92235 -5.16842,1.772392 -7.31989,1.485461 -2.15146,-0.286932 -4.08907,-0.115794 -5.87421,-2.44939 -1.78515,-2.333595 -1.15136,-12.261801 -1.15136,-12.261801 z" />
  <path
     id="path15150-3"
     style="color:#000000;display:inline;fill:#000000;stroke-width:0.245419;-inkscape-stroke:none"
     d="m 46.145381,5.875183 c -3.45882,0 -6.59395,0.662376 -8.89523,1.75685 -2.30127,1.094475 -3.82825,2.655898 -3.82831,4.487578 6e-5,0.08378 0.0117,0.168177 0.0183,0.251997 -1.5879,1.043024 -2.56065,2.330852 -2.56324,3.731589 8e-5,0.354748 0.10701,0.704496 0.224,1.049732 -1.80461,1.078068 -2.92308,2.443842 -2.92571,3.948966 v 0.01626 0.01625 c 0,0.0132 0.003,0.03241 0.004,0.04886 -0.49338,1.201041 -0.77137,2.935988 -0.77176,4.806264 2e-4,0.08837 0.003,0.172438 0.004,0.255564 -0.58848,0.737632 -1.08179,2.035227 -1.4677,3.732099 -0.43106,1.043774 -0.79929,2.433695 -1.04362,3.922496 -0.33195,2.024912 -0.33291,3.76249 -0.1232,4.990553 -0.007,0.003 -0.015,0.002 -0.0219,0.0059 -0.39017,0.187728 -0.73399,0.531216 -0.86392,1.025293 -0.12995,0.494214 -0.0607,1.0314 0.17004,1.476348 0.23074,0.444948 0.6902,0.821507 1.26099,0.77024 l 0.053,-0.0059 0.0489,-0.01832 c 0,0 0.12391,-0.03527 0.13033,-0.03763 l 0.18378,1.642817 h -5.64677 c 0,0 -0.67787,12.394933 1.66013,15.451216 1.92542,2.51697 3.88335,3.014474 6.08813,3.321779 l 0.88327,7.889284 -0.007,0.250471 c -0.25918,9.103031 2.72483,13.606811 5.1448,16.568661 2.23572,2.7363 5.33084,4.95839 8.70178,6.05504 0.51839,0.16866 1.04888,0.30912 1.58631,0.42713 0.2435,0.0676 0.49204,0.12462 0.74377,0.14661 2.07277,0.36125 4.23475,0.35397 6.29687,-0.0214 0.0396,-0.007 0.0796,-0.0145 0.11912,-0.0219 0.0997,-0.0189 0.19867,-0.0384 0.29782,-0.0591 0.10985,-0.0226 0.21921,-0.0465 0.32835,-0.0712 0.0687,-0.0157 0.13733,-0.0308 0.20567,-0.0473 0.18415,-0.0442 0.36746,-0.0909 0.54931,-0.14154 0.23263,-0.0647 0.4635,-0.13516 0.69389,-0.20872 0.061,-0.0194 0.12193,-0.0392 0.18275,-0.0591 0.16892,-0.0558 0.33739,-0.11425 0.50501,-0.17461 0.19175,-0.0686 0.38223,-0.14109 0.57222,-0.21534 0.0361,-0.0142 0.0724,-0.0274 0.10843,-0.0418 2.00432,-0.79584 3.90645,-1.90265 5.63047,-3.22556 h 5.3e-4 l 0.71831,-0.5717 c 0,0 1.78086,-1.57688 2.57139,-2.44157 2.29609,-2.51154 3.84627,-6.40581 4.89332,-9.54889 0.26235,-0.78749 0.40517,-1.93616 0.60682,-2.98222 l 0.11099,0.0224 c 0,-0.004 1e-5,-0.008 0.002,-0.0112 0.21889,-0.994321 0.40089,-2.008422 0.5381,-3.043812 l 0.99985,-7.543609 c 1.1865,0.797479 2.75327,1.585117 4.38067,1.103187 1.51018,-0.447233 2.61459,-1.60879 3.3737,-3.003598 0.7591,-1.394818 1.18723,-3.035192 1.35112,-4.535942 0.16516,-1.512148 0.0498,-3.379695 -0.43986,-5.063868 -0.48966,-1.684182 -1.35695,-3.209679 -2.76839,-3.92555 -0.77241,-0.39174 -1.59657,-0.477555 -2.40034,-0.429668 0.0386,-0.158154 0.0713,-0.34471 0.10945,-0.506538 l 0.70457,-0.168508 -0.13694,-2.403383 -0.0143,0.002 c 0.73792,-3.779582 1.25177,-7.988271 1.05787,-11.11179 -0.18062,-2.904976 -0.5588,-5.546103 -1.0538,-7.582295 -0.24751,-1.018102 -0.52445,-1.883408 -0.82675,-2.564769 -0.27999,-0.631178 -0.57023,-1.108202 -0.94741,-1.402019 -0.74538,-1.557681 -1.72873,-3.11991 -2.8804,-4.578707 -1.78854,-2.264533 -3.88974,-4.158417 -5.97665,-5.38764 l -0.005,-0.0031 c -1.58108,-1.348427 -4.09283,-2.313477 -7.05795,-2.7852 -2.1903,-1.96959 -6.27403,-3.103408 -10.75237,-3.173633 l 0.006,-0.05447 z m -0.004,0.737663 h 0.002 0.002 c 4.5702,1.64e-4 8.75285,1.250464 10.7427,3.097778 l 0.0834,0.07738 0.11047,0.01629 c 2.92057,0.451031 5.35952,1.420755 6.79526,2.647239 l 0.0254,0.02138 0.0295,0.01629 c 2.00193,1.168456 4.07073,3.026825 5.82392,5.246624 h -0.002 c 1.13814,1.441598 2.10681,2.987093 2.83,4.51456 l 0.0428,0.0927 0.0834,0.05596 c 0.20191,0.136126 0.50191,0.536762 0.77737,1.157656 0.27546,0.620883 0.54207,1.453276 0.78246,2.442079 0.48075,1.977587 0.8561,4.584086 1.03446,7.452986 0.18972,3.056156 -0.33164,7.343616 -1.07722,11.144369 l -2.41815,0.24589 c -0.23089,-0.75896 -0.44718,-1.507705 -0.64246,-2.2359 -0.43937,-1.648589 -0.74546,-2.929762 -1.06857,-4.374566 -0.0879,-0.392351 -0.20316,-0.848175 -0.28815,-1.224852 -0.0587,-0.260086 -0.12649,-0.458109 -0.1848,-0.710679 -0.18556,-0.791224 -0.42408,-1.857104 -0.62871,-2.568335 -0.0922,-0.320564 -0.18765,-0.631483 -0.28815,-0.935192 -0.42821,-1.293752 -0.94362,-2.436493 -1.65757,-3.396609 -0.11996,-0.161366 -0.24224,-0.320032 -0.36757,-0.476502 -0.37603,-0.469369 -0.77723,-0.917016 -1.20296,-1.342458 -0.34851,-0.348276 -0.80021,-0.608845 -1.18311,-0.927547 -0.3977,-0.330652 -0.79608,-0.666673 -1.23198,-0.965731 -0.93838,-0.644261 -1.99507,-1.199741 -3.11815,-1.699324 -0.38505,-0.171089 -0.72233,-0.380037 -1.13017,-0.534537 -0.1322,-0.05005 -0.23144,-0.12527 -0.36603,-0.173601 h -0.003 l -0.004,-0.002 c -0.43868,-0.157386 -0.89066,-0.304999 -1.35519,-0.443923 0,-1.58e-4 -7e-5,1.67e-4 -0.003,0 -0.46641,-0.139446 -0.94519,-0.270322 -1.43868,-0.391484 0,0 -0.006,1.08e-4 -0.007,0 -0.37371,-0.09172 -0.8584,-0.112188 -1.24777,-0.193452 -1.01702,-0.212475 -2.1413,-0.364501 -3.26883,-0.507051 -0.7202,-0.09073 -1.31397,-0.259987 -2.08114,-0.32276 -0.60835,-0.04975 -1.233,-0.09083 -1.8719,-0.123192 -0.31948,-0.01616 -0.64233,-0.02985 -0.9693,-0.04177 -0.29137,-0.01054 -0.58129,-0.01882 -0.86951,-0.02039 h -0.006 -0.006 c -0.28367,-0.002 -0.56454,0.002 -0.84407,0.0089 0.0184,-4.93e-4 0.0167,-5.62e-4 -0.004,0 -0.0252,6.6e-4 -0.0425,0.002 -0.0524,0.002 -0.26225,0.0069 -0.52274,0.01783 -0.78247,0.03261 -0.0549,0.003 -0.10095,0.0089 -0.13795,0.01123 -0.22771,0.01419 -0.45661,0.02867 -0.68473,0.04886 -0.0996,0.0089 -0.18911,0.02059 -0.27337,0.02906 -0.16939,0.01694 -0.34369,0.0329 -0.51825,0.05399 -0.11442,0.01379 -0.22128,0.02975 -0.32582,0.04374 -0.16255,0.02177 -0.32892,0.04502 -0.49482,0.07073 -0.10207,0.01586 -0.19702,0.03359 -0.28815,0.04886 -0.15461,0.02591 -0.31254,0.05133 -0.47243,0.08147 -0.13148,0.02473 -0.25723,0.05093 -0.37876,0.07585 -0.12852,0.0264 -0.25988,0.05359 -0.39352,0.08344 -0.12246,0.02739 -0.2413,0.05566 -0.35686,0.08344 -0.10191,0.02453 -0.20552,0.05162 -0.30954,0.07792 -0.0322,0.0079 -0.0639,0.01497 -0.0962,0.02345 -0.11873,0.03093 -0.2336,0.06285 -0.34617,0.09418 -0.12759,0.03547 -0.2574,0.07122 -0.38895,0.110473 -0.12427,0.03704 -0.24643,0.07655 -0.36451,0.11403 -0.11936,0.03793 -0.23886,0.07655 -0.36042,0.117606 -0.11886,0.0401 -0.23468,0.08108 -0.34822,0.121665 -0.12448,0.04453 -0.25073,0.09014 -0.37672,0.137968 -0.10859,0.04118 -0.21325,0.08354 -0.31665,0.124719 -0.12381,0.04935 -0.24875,0.0995 -0.37367,0.152223 -0.10938,0.0462 -0.21767,0.09251 -0.32377,0.139486 -0.11788,0.05221 -0.23503,0.105646 -0.3533,0.160873 -0.10711,0.05004 -0.21266,0.101597 -0.31717,0.152726 -0.11513,0.05635 -0.23081,0.11272 -0.34618,0.172064 -0.10492,0.05399 -0.20939,0.107932 -0.31156,0.162913 -0.11125,0.0599 -0.2214,0.121162 -0.33141,0.183265 -0.0992,0.05596 -0.19786,0.11268 -0.29526,0.170035 -0.11662,0.06866 -0.23257,0.138451 -0.34772,0.209746 -0.0873,0.05408 -0.17399,0.108897 -0.26116,0.164942 -0.1144,0.07359 -0.22619,0.148519 -0.3365,0.222976 -0.0936,0.06315 -0.18773,0.128363 -0.28101,0.193964 -0.0987,0.06935 -0.19621,0.137742 -0.29221,0.208219 -0.0951,0.06975 -0.19056,0.142628 -0.28611,0.215843 -0.0987,0.07566 -0.19385,0.150598 -0.28814,0.22604 -0.0874,0.06985 -0.17686,0.14186 -0.26574,0.215854 -0.0989,0.08236 -0.19388,0.164262 -0.28815,0.246393 -0.0832,0.07261 -0.16806,0.146924 -0.25199,0.222976 -0.09,0.08157 -0.17743,0.16377 -0.26269,0.244364 -0.0844,0.0798 -0.17039,0.160893 -0.25709,0.246393 -0.0883,0.08709 -0.17295,0.174064 -0.25556,0.259131 -0.0771,0.0793 -0.15693,0.160154 -0.23723,0.246393 -0.0881,0.09457 -0.17081,0.189806 -0.252,0.28101 -0.07,0.07852 -0.14254,0.158696 -0.21585,0.244364 -0.0221,0.02571 -0.0418,0.05083 -0.0632,0.07635 -0.003,0.003 -0.005,0.0059 -0.007,0.0089 -0.0613,0.07339 -0.12263,0.147682 -0.18072,0.218908 -0.0647,0.0794 -0.13304,0.160932 -0.2016,0.248432 -0.0847,0.108129 -0.16554,0.215864 -0.24436,0.321746 -0.0566,0.07596 -0.11773,0.155495 -0.1792,0.2413 -0.0857,0.119478 -0.16628,0.239487 -0.24487,0.35534 -0.0505,0.07457 -0.10545,0.15312 -0.16138,0.238768 -0.0789,0.120797 -0.15171,0.239901 -0.22298,0.355339 -0.0495,0.08019 -0.10323,0.16441 -0.15731,0.255555 -0.006,0.0099 -0.0107,0.01872 -0.0163,0.02847 -0.006,0.01143 -0.0132,0.02325 -0.0199,0.03458 -0.0554,0.09556 -0.10871,0.191511 -0.15986,0.282547 h -0.002 c -0.0508,0.09053 -0.10428,0.185433 -0.15933,0.288143 -0.0658,0.122699 -0.12641,0.243251 -0.18481,0.358906 -0.0443,0.08778 -0.0939,0.180133 -0.14305,0.282025 -0.0845,0.175355 -0.16429,0.350739 -0.24131,0.525375 -0.015,0.03389 -0.0352,0.0797 -0.0596,0.136441 -0.0975,0.226513 -0.19244,0.455863 -0.28101,0.688277 l -0.0163,0.04177 -0.004,0.04482 c -0.46821,3.974393 -0.7516,5.055445 -0.92144,5.737889 -0.15397,-1.091316 -0.18625,-2.645027 0.12117,-4.520159 0.23977,-1.460971 0.6069,-2.829673 1.01103,-3.797256 l 0.0122,-0.02906 0.008,-0.03054 c 0.39576,-1.747951 0.97656,-3.133114 1.39489,-3.596169 l 0.0977,-0.106907 -0.002,-0.143052 c 0,-0.113537 -0.003,-0.22275 -0.003,-0.327854 0,-1.850533 0.29196,-3.599174 0.74275,-4.637756 l 0.0376,-0.08551 -0.009,-0.09211 c -0.002,-0.01852 -0.003,-0.04374 -0.005,-0.06876 v -0.002 c 0.003,-1.212597 0.92883,-2.461885 2.76942,-3.487226 l 0.29222,-0.163416 -0.13441,-0.304432 c -0.15169,-0.348937 -0.22442,-0.696762 -0.2245,-1.043623 0.003,-1.125906 0.79718,-2.282718 2.3988,-3.269849 l 0.20466,-0.126763 -0.0346,-0.23876 c -0.0166,-0.115606 -0.0254,-0.232147 -0.0254,-0.348214 2e-5,-1.413367 1.23924,-2.790624 3.40933,-3.822714 2.16952,-1.03181 5.2129,-1.683697 8.57604,-1.684051 z m -0.81301,15.355006 h 0.002 0.005 c 0.27851,0.002 0.55855,0.0079 0.841,0.01832 1.77249,0.06433 3.26798,0.280893 4.8078,0.472936 1.14271,0.142815 2.26961,0.294221 3.29173,0.508577 1.51443,0.316841 2.96793,0.670978 4.23406,1.14748 0.44193,0.166252 0.80256,0.388529 1.2157,0.574247 1.04427,0.469743 2.03073,0.980557 2.90229,1.57765 0.43071,0.294665 0.81909,0.623376 1.21009,0.949447 0.95919,0.800425 1.88471,1.624591 2.6228,2.617197 1.18416,1.592467 1.82078,3.909837 2.46601,6.700065 0.12781,0.546919 0.30523,1.19978 0.43679,1.787898 0.31502,1.408226 0.66467,2.882111 1.0981,4.496241 0.0872,0.32674 0.11473,0.522783 0.20973,0.857297 0.11601,0.408359 0.24131,0.825526 0.37062,1.245215 l -0.7733,0.07842 c 0.0236,-0.773373 0.0244,-1.248782 0.0244,-1.248782 l -19.83342,-5.22e-4 c 0.56908,-0.2459 0.67775,-0.31484 1.53743,-0.645522 1.78405,-0.686227 3.95976,-1.397901 5.39884,-1.523171 1.58067,-0.137585 3.69325,0.176891 5.39324,0.534536 1.69997,0.357635 2.98782,0.749877 2.98782,0.749877 l 0.0484,0.01478 0.0489,0.002 c 1.00715,0.02581 1.85112,-0.775669 1.87699,-1.782815 0.013,-0.504499 -0.18506,-0.936611 -0.50501,-1.260997 -0.32,-0.324367 -0.7619,-0.540496 -1.23249,-0.610904 l 0.0473,0.0089 c -1.4e-4,-4.9e-5 -0.0791,-0.01911 -0.0815,-0.0199 -0.0709,-0.02177 -1.08265,-0.324179 -2.55815,-0.652132 -1.33095,-0.305206 -2.75643,-0.515739 -4.32772,-0.590541 -0.2019,-0.01054 -0.39796,-0.0793 -0.59461,-0.08147 -0.34447,-0.0039 -0.68016,0.0049 -1.00187,0.03261 -1.62328,0.137703 -3.82582,0.873178 -5.6539,1.569001 -1.81919,0.692444 -3.24727,1.347767 -3.26119,1.354161 -0.39223,0.130491 -0.78779,0.291552 -1.11592,0.556938 -0.33671,0.272253 -0.5922,0.687144 -0.6053,1.197879 -0.0105,0.412468 0.13811,0.8041 0.35738,1.146455 h -5.77811 c 0.22843,-0.223479 0.42136,-0.485811 0.50806,-0.815557 0.12836,-0.488037 0.0344,-0.954865 -0.20261,-1.343975 -0.237,-0.38912 -0.61804,-0.70067 -1.05991,-0.877157 -0.0385,-0.02226 -1.10056,-0.639473 -2.61822,-1.338892 -1.54484,-0.711969 -3.51489,-1.485727 -5.21354,-1.736996 -1.60407,-0.23728 -3.3422,0.01113 -4.68001,0.318682 -1.13226,0.260274 -1.69296,0.484314 -1.92587,0.571203 0.172,-0.699389 0.44959,-1.80564 0.89701,-5.574987 0.32395,-0.846588 0.71215,-1.648176 1.15613,-2.407461 0.0128,-0.02217 0.025,-0.04758 0.0376,-0.06925 0.44215,-0.747671 0.94378,-1.448775 1.49467,-2.106591 0.0201,-0.02433 0.0401,-0.05054 0.0601,-0.07438 1.13489,-1.338764 2.4924,-2.479692 4.02889,-3.413416 0.0337,-0.02049 0.0674,-0.04078 0.10131,-0.06108 1.53958,-0.921292 3.25802,-1.635951 5.12546,-2.116265 0.0314,-0.0079 0.0639,-0.01556 0.0958,-0.02345 1.89175,-0.4773 3.92956,-0.724333 6.08356,-0.712206 z m -13.69657,16.314621 h 5.2e-4 5.2e-4 5.3e-4 c 0.37784,0.003 0.75205,0.02886 1.11438,0.08246 3.119,0.46137 7.61998,3.009204 7.61998,3.009204 l 0.0219,0.01478 0.0255,0.0089 c 0.62042,0.247782 0.97744,0.759759 0.82218,1.350093 -0.0778,0.296064 -0.26502,0.529591 -0.50553,0.669953 -0.23627,0.1379 -0.52571,0.179148 -0.81657,0.106908 -0.0603,-0.03478 -1.10215,-0.636567 -2.62179,-1.334823 -1.56272,-0.718028 -3.55372,-1.498465 -5.26799,-1.748198 -1.12014,-0.163178 -2.25668,-0.0531 -3.31924,0.116079 -0.27629,0.04384 -0.46233,0.06541 -0.71933,0.119123 -0.86217,0.175897 -1.15435,0.259387 -1.65554,0.424063 -0.16004,0.04896 -0.45147,0.105213 -0.57833,0.14713 l -0.28406,0.09369 0.002,0.02039 c -0.0248,0.0099 -0.21539,0.06413 -0.22299,0.06719 -0.23064,0.01685 -0.39484,-0.103203 -0.53301,-0.369595 -0.14009,-0.270115 -0.188,-0.660939 -0.112,-0.949959 0.0761,-0.289138 0.22151,-0.430308 0.47091,-0.550318 0.24897,-0.119793 0.60487,-0.186053 0.98915,-0.21941 l 0.0524,-0.0039 0.0489,-0.01832 c 0,0 2.07078,-0.777954 4.32976,-0.985592 0,-4.9e-5 10e-6,6e-5 0.002,0 0.3763,-0.03448 0.75795,-0.0532 1.13576,-0.04985 z m 26.43218,0.352286 h 5.2e-4 5.1e-4 c 1.21248,-0.01537 2.63476,0.235891 3.94083,0.47854 0.3834,0.07182 0.80325,0.08285 1.15409,0.159859 1.41902,0.316318 2.59633,0.643207 2.63808,0.655698 0,2.46e-4 0.0519,0.01429 0.0519,0.01429 0,0 0.002,0 0.002,0 l 0.0255,0.0069 0.0275,0.0039 c 0.66077,0.09886 1.12596,0.51639 1.11031,1.126605 -0.007,0.306082 -0.13513,0.575872 -0.33702,0.767698 -0.19857,0.188635 -0.47119,0.296034 -0.77126,0.292212 -0.0709,-0.02148 -1.28133,-0.391898 -2.96593,-0.746311 -1.73297,-0.36459 -3.88081,-0.697882 -5.61112,-0.547274 -1.60934,0.140106 -3.78824,0.874586 -5.59739,1.570527 -1.77254,0.681814 -3.1144,1.305929 -3.17007,1.331769 h -0.34973 c -0.0975,-0.04118 -0.19207,-0.115694 -0.28866,-0.228069 -0.19835,-0.230788 -0.33554,-0.602343 -0.32785,-0.901086 0.007,-0.298891 0.11667,-0.468414 0.33193,-0.642459 0.21523,-0.174044 0.54716,-0.320091 0.91431,-0.440869 l 0.0204,-0.0069 0.0178,-0.0089 c 0,0 1.41958,-0.652625 3.2225,-1.338892 1.80291,-0.686267 4.00156,-1.400364 5.45534,-1.523694 0.16352,-0.01389 0.33249,-0.02177 0.50553,-0.02394 z m -27.68452,2.481278 c 0.51935,-0.02847 1.03906,-0.01911 1.53743,0.05349 2.61806,0.381406 5.66968,1.969498 6.80595,2.580038 l -12.24399,-5.12e-4 -0.2072,-1.856632 c 0.11332,-0.03822 0.23753,-0.06916 0.39302,-0.117606 0.41608,-0.122955 0.86866,-0.242353 1.43663,-0.360935 0.23734,-0.04896 0.48867,-0.08433 0.74123,-0.124728 0.49867,-0.07822 1.01758,-0.144658 1.53693,-0.173089 z m 18.0674,4.578204 h 3.2281 c -0.18567,0.18557 -0.37546,0.370195 -0.52791,0.567627 l -0.0871,-0.07536 c -0.007,0.0079 -0.01,0.01872 -0.0163,0.0265 l -0.003,-0.003 c -0.0953,0.119103 -0.18006,0.24194 -0.24639,0.372648 l -0.0474,0.09467 c -0.85064,1.023559 -1.45629,2.217517 -1.79656,3.492315 -0.0282,-0.964095 -0.062,-1.777248 -0.15528,-2.273059 -0.36273,-1.926133 -0.21661,-1.245077 -0.3482,-2.202296 z m 4.3542,0 8.87537,5.12e-4 c 0.38472,0.329273 0.84467,0.772822 1.3165,1.403044 -1.70918,0.233094 -3.77045,0.315648 -5.85498,0.182251 -2.06095,-0.13192 -3.85209,-0.439845 -5.21252,-0.7789 0.25299,-0.266795 0.5432,-0.542338 0.87563,-0.806897 z m 10.01318,5.12e-4 h 5.37644 l -0.0193,0.987631 c 0,0 0.16635,0.590108 -0.1344,2.470579 -0.30076,1.880482 -0.33244,8.658323 -1.83576,10.117037 -2.47364,2.400073 -5.58004,2.231437 -8.24003,2.10201 -2.65998,-0.129438 -5.89915,-0.470286 -7.61896,-2.693053 -0.52915,-0.683884 -0.84393,-1.786401 -1.03803,-3.039744 1.2881,3.132879 4.31347,5.338692 7.84296,5.338771 4.6993,1.77e-4 8.50756,-3.90899 8.50731,-8.711963 -2e-4,-1.626553 -0.52259,-3.176707 -1.35468,-4.551222 l 0.058,-0.01015 -0.27593,-0.457163 c -0.039,-0.06482 -0.0782,-0.128196 -0.1176,-0.190398 h -0.002 c -0.005,-0.0069 -0.007,-0.01478 -0.0112,-0.02138 l -0.0347,0.02345 c -0.3638,-0.560071 -0.73952,-0.995098 -1.10267,-1.364348 z m -40.06596,0.193964 h 5.3e-4 3.22911 l 0.0382,0.344651 -0.11404,0.153741 c -1.08124,1.446291 -1.66721,3.21425 -1.66877,5.034343 2e-5,2.597061 1.2442,4.824134 3.07487,6.346754 l 0.28712,2.570876 c -1.30751,-0.213726 -2.53392,-0.670189 -3.69544,-2.188554 -1.78515,-2.333596 -1.15155,-12.261811 -1.15155,-12.261811 z m 4.65761,0 9.99231,5.22e-4 c 0.37085,0.430555 0.79024,0.938837 1.08639,1.434598 -0.0398,0.01754 -0.0832,0.03428 -0.13949,0.0529 -0.0403,0.0133 -0.0522,0.02492 -0.0998,0.03763 0,1.97e-4 -2e-5,-1.97e-4 -0.002,0 -0.22082,0.05901 -0.60409,0.09418 -0.95096,0.134403 -0.18731,0.02167 -0.30334,0.05714 -0.51825,0.07231 -0.66597,0.04689 -1.58496,-0.0049 -2.42019,-0.01626 -0.69797,-0.0089 -1.29788,0.02946 -2.02564,-0.01478 -0.002,-1.18e-4 -0.003,1.18e-4 -0.005,0 -1.56793,-0.09536 -3.10075,-0.26842 -4.22489,-0.482107 -0.002,-2.46e-4 -0.006,2.46e-4 -0.008,0 -0.069,-0.01468 -0.12531,-0.02798 -0.18988,-0.04275 -0.45619,-0.09428 -0.84226,-0.194052 -1.08537,-0.290172 l -0.0219,-0.203126 c 0.16833,-0.221676 0.37731,-0.455981 0.61243,-0.683194 z m 10.91273,5.22e-4 h 1.59039 c -0.2501,0.56478 -0.41414,1.122339 -0.51621,1.517074 -0.01,-0.01793 -0.0165,-0.03714 -0.0265,-0.05497 l 0.006,-0.03152 -0.056,-0.112001 c -0.009,-0.01803 -0.0274,-0.03083 -0.0367,-0.04886 l -0.43475,-0.753444 -0.027,0.112 c -0.1632,-0.238095 -0.32666,-0.409913 -0.4994,-0.62822 z m 5.32198,0.251999 c 0.77348,-9.85e-4 1.54865,0.496992 2.13153,1.374524 1.31768,1.983793 -0.0879,9.449743 2.08623,12.259772 2.17419,2.810028 6.13931,3.371459 9.50206,3.53508 3.36277,0.163632 7.1604,0.246935 10.28758,-2.787232 1.9005,-1.84412 2.15545,-8.562636 2.45022,-12.400785 l 1.88005,-0.449016 c 0.0487,0.130501 0.0919,0.258067 0.14203,0.389445 l -0.10334,0.775333 0.55236,-0.173591 c 1.17471,-0.37189 2.65019,-0.575045 3.81915,0.01783 1.13741,0.576868 1.9339,1.902283 2.39117,3.475007 0.45723,1.572724 0.57023,3.368632 0.41643,4.776739 -0.15504,1.419486 -0.56737,2.980143 -1.26558,4.263069 -0.69822,1.282936 -1.66632,2.274024 -2.93692,2.650298 -1.45285,0.430249 -3.12109,-0.439707 -4.24474,-1.273223 l -0.50196,-0.37316 -0.67402,5.074044 -8.41873,6.875198 -0.0326,0.1069 c 0,0 -0.85719,2.23003 -1.80826,4.31551 l -0.32938,-0.33701 c 0,0 -1.93341,-1.98891 -4.25595,-4.02941 -1.16125,-1.02025 -2.41977,-2.054418 -3.59261,-2.86564 -1.1728,-0.811212 -2.2375,-1.411033 -3.13952,-1.52725 -0.92001,-0.118522 -1.73175,-0.186132 -2.46906,-0.195491 l -0.0148,-0.01123 h -0.11047 c -0.0912,-2.46e-4 -0.16973,0.03271 -0.26066,0.03458 2.09037,-1.393213 3.19802,-2.85506 3.67916,-4.007514 0.51129,-1.224576 0.41134,-2.134076 0.41134,-2.134076 -0.0247,-0.20146 -0.2078,-0.344946 -0.4093,-0.320721 -0.20169,0.02473 -0.34526,0.20811 -0.32073,0.409807 0,0 0.091,0.678938 -0.36044,1.760423 -0.45153,1.081465 -1.44993,2.529313 -3.7046,3.929619 -1.15974,0.720264 -2.90913,0.968598 -4.10322,0.505514 -0.59708,-0.231537 -1.05516,-0.616776 -1.30682,-1.208056 -0.25165,-0.59127 -0.3019,-1.417722 0.0285,-2.548986 1.21971,-4.175766 2.92469,-13.71626 2.92469,-13.71626 0.0361,-0.200141 -0.0966,-0.391652 -0.2968,-0.427629 -0.20077,-0.03596 -0.39308,0.09842 -0.42814,0.299344 0,0 -1.71991,9.57595 -2.90636,13.637862 -0.36335,1.243925 -0.335,2.25776 0,3.044837 0.23779,0.558692 0.65883,0.943723 1.13119,1.248781 -0.68296,0.02167 -1.40097,0.134491 -2.35147,0.394538 -0.66877,0.18296 -1.29469,0.685134 -1.906,1.311909 -0.61129,0.626775 -1.19801,1.389919 -1.71562,2.130519 -1.03125,1.4755 -1.77704,2.86052 -1.78282,2.87123 -0.24281,-0.94984 -0.39193,-1.98967 -0.39657,-3.14461 v -0.0977 l -0.0489,-0.0835 v -0.002 c -0.23161,-0.401159 -0.47484,-0.764607 -0.68828,-1.103189 -0.34425,-0.546545 -0.67152,-1.075131 -1.1037,-1.771614 l -0.89598,-7.99823 c 0.23264,0.02955 0.46443,0.05832 0.70304,0.09014 2.81775,0.375801 6.70551,0.419689 9.28316,-2.097931 2.57762,-2.51763 1.98825,-11.394545 3.15428,-13.224991 0.54658,-0.858026 1.2276,-1.246998 1.91009,-1.247766 z m 7.66427,1.005442 c 2.90699,0.811379 8.52986,1.266267 12.22667,0.66486 0.87193,1.31843 1.38553,2.853956 1.38573,4.45449 2.3e-4,4.414859 -3.47885,7.977011 -7.77016,7.976844 -4.29116,-8.9e-5 -7.77036,-3.562153 -7.77015,-7.976844 0.002,-1.900095 0.73594,-3.683472 1.92791,-5.11935 z m 22.33963,0.129811 c -0.0313,0.130108 -0.058,0.284518 -0.0897,0.411857 -0.25216,0.04285 -0.48827,0.102494 -0.72443,0.16443 -0.0464,-0.121172 -0.0774,-0.232552 -0.12217,-0.352798 z m -47.44361,0.110474 0.12421,0.06009 c 0.23686,0.114641 0.78187,0.170882 1.13985,0.260648 0.0115,0.003 0.0245,0.0059 0.0362,0.0089 0.14384,0.0328 0.22825,0.07595 0.38792,0.106917 0.002,4.92e-4 0.006,-5.03e-4 0.008,0 0.0415,0.0079 0.11175,0.01044 0.15424,0.01832 0.40823,0.0794 0.6322,0.192151 1.12864,0.259121 1.25497,0.169276 2.73481,0.290419 4.16482,0.345665 0.19155,0.0079 0.37813,0.01025 0.56713,0.01527 l -0.44087,1.059408 -1.03243,-0.989148 0.33091,1.391321 -1.41627,-0.193954 1.08536,0.930601 -1.25998,0.676574 1.42544,0.115054 -0.62159,1.287467 1.22027,-0.745296 0.25403,1.407112 0.54931,-1.320056 1.03292,0.989148 -0.3314,-1.390818 1.41627,0.193452 -1.08538,-0.930602 1.26,-0.676573 -1.42544,-0.114552 0.62159,-1.287467 -1.22028,0.744784 -0.20618,-1.141874 c 1.16412,0.0267 2.264,0.0079 3.14106,-0.07586 0.5289,-0.05064 0.97659,-0.12394 1.32973,-0.232138 0.10609,-0.03251 0.1901,-0.08068 0.28101,-0.123201 0.17092,0.339272 0.2778,0.704374 0.40217,1.062462 -0.075,1.494928 -0.26283,4.159107 -0.72646,6.446027 -1.31445,2.067254 -3.57807,3.437936 -6.16195,3.437847 -1.01331,-2e-5 -1.97779,-0.210987 -2.85648,-0.590541 -0.01,-0.0039 -0.0181,-0.01054 -0.0275,-0.01478 -2.63184,-1.150484 -4.47839,-3.825234 -4.47842,-6.955107 0,-1.447937 0.47429,-2.823614 1.22994,-4.034497 z m 31.31124,0.688789 -0.57832,1.389804 -1.08689,-1.041075 0.34872,1.464123 -1.49111,-0.203638 1.14289,0.979996 -1.32617,0.711693 1.50028,0.12066 -0.65418,1.355176 1.28442,-0.783993 0.26727,1.481442 0.57833,-1.389804 1.08689,1.041084 -0.34873,-1.464132 1.49112,0.203638 -1.1429,-0.979484 1.32667,-0.712206 -1.50027,-0.120659 0.65418,-1.355177 -1.28494,0.784496 z m -19.47035,9.240904 c -0.25874,0.790623 -0.57098,1.429426 -0.94791,1.797572 -1.96813,1.92236 -5.16816,1.772441 -7.31962,1.48551 -0.48732,-0.06502 -0.9624,-0.106927 -1.42849,-0.159346 l -0.21839,-1.951323 c 0.32293,0.203244 0.65448,0.3871 1.00544,0.543196 0.0243,0.01074 0.0448,0.02611 0.0693,0.03665 0.96934,0.419748 1.99877,0.715752 3.1161,0.715782 2.24593,7.8e-5 4.25981,-0.953614 5.72364,-2.468048 z m 31.27612,11.1184 c -0.0514,0.509396 -0.26481,1.977084 -0.50146,3.628758 -0.25989,1.684554 -0.5507,3.519794 -0.94791,4.712084 -1.03521,3.10747 -2.58977,6.93575 -4.73907,9.28671 -0.83767,0.91625 -1.75925,1.77867 -2.74396,2.57088 -0.2486,0.20005 -0.50048,0.39703 -0.75701,0.58749 -0.016,0.0118 -0.0314,0.0238 -0.0474,0.0357 v 5.2e-4 c -0.26818,0.19806 -0.54249,0.3884 -0.81861,0.57526 -0.15353,0.10391 -0.30691,0.20773 -0.46275,0.308 -0.0191,0.0122 -0.0379,0.0244 -0.057,0.0366 -0.20986,0.13421 -0.42157,0.26518 -0.63534,0.39251 -0.037,0.0221 -0.0743,0.0433 -0.11149,0.0651 -0.17333,0.10196 -0.34812,0.20107 -0.52385,0.29832 -0.0532,0.0295 -0.10647,0.0591 -0.15985,0.0881 -0.19328,0.10497 -0.38803,0.20743 -0.58392,0.30647 -0.0169,0.009 -0.0329,0.0179 -0.0498,0.0265 -0.0258,0.0129 -0.0521,0.0248 -0.0779,0.0376 -0.1858,0.0924 -0.37306,0.18139 -0.56101,0.26829 -0.0676,0.0312 -0.13525,0.0621 -0.20312,0.0926 -0.1593,0.0716 -0.31941,0.14116 -0.48007,0.20872 -0.0592,0.0249 -0.11828,0.051 -0.17767,0.0754 -0.21032,0.0862 -0.42139,0.16805 -0.63381,0.24691 -0.0656,0.0243 -0.13177,0.0471 -0.19752,0.0707 -0.15402,0.0554 -0.30881,0.10847 -0.46377,0.15985 -0.0827,0.0275 -0.1654,0.0547 -0.24845,0.081 -0.17682,0.0559 -0.35459,0.10968 -0.53249,0.16036 -0.0368,0.0105 -0.0731,0.0224 -0.10996,0.0326 -0.0765,0.0213 -0.15413,0.0399 -0.23113,0.0601 -0.0901,0.0236 -0.18005,0.0478 -0.27083,0.0697 -0.0979,0.0237 -0.19671,0.0457 -0.29528,0.0677 -0.0841,0.0188 -0.16839,0.0375 -0.25301,0.055 -0.0968,0.02 -0.19379,0.0388 -0.2912,0.057 -0.085,0.016 -0.17014,0.0307 -0.25555,0.0453 -0.094,0.0161 -0.18815,0.0328 -0.28255,0.0474 -0.0977,0.0151 -0.19611,0.0279 -0.29425,0.0413 -0.14318,0.0194 -0.28676,0.0371 -0.43068,0.0529 -0.11544,0.0127 -0.23032,0.0258 -0.34618,0.0362 -0.0893,0.008 -0.17924,0.0133 -0.2688,0.0199 -0.0978,0.007 -0.19569,0.0149 -0.29374,0.0204 -0.0886,0.005 -0.17702,0.009 -0.26574,0.0122 -0.1021,0.004 -0.20426,0.008 -0.30647,0.0101 -0.0908,0.002 -0.18194,0.004 -0.27287,0.005 -0.0924,7.9e-4 -0.18498,2.1e-4 -0.27745,-5.2e-4 -0.0985,-7.8e-4 -0.19681,-9.9e-4 -0.29527,-0.003 0,-1e-5 -2e-5,3e-5 -0.002,0 -0.0542,-9.8e-4 -0.10826,-0.004 -0.1624,-0.006 -0.11336,-0.004 -0.22634,-0.007 -0.33956,-0.0127 -0.0979,-0.005 -0.19594,-0.0131 -0.29373,-0.0199 -0.0892,-0.006 -0.17824,-0.0117 -0.26727,-0.0193 -0.10173,-0.009 -0.20346,-0.0195 -0.30495,-0.0301 -0.0832,-0.009 -0.16645,-0.0172 -0.24945,-0.027 -0.0992,-0.0117 -0.19793,-0.0243 -0.29679,-0.0376 -0.0855,-0.0115 -0.17086,-0.0242 -0.25608,-0.0371 -0.10444,-0.0158 -0.20907,-0.0312 -0.31308,-0.0489 -0.0484,-0.008 -0.0962,-0.0178 -0.14458,-0.0265 -0.11866,-0.0213 -0.23742,-0.0425 -0.35534,-0.0662 l -0.0728,-0.0148 c -0.58326,-0.12017 -1.15704,-0.26984 -1.71561,-0.45155 -3.21801,-1.04693 -6.20884,-3.1936 -8.35714,-5.82291 -2.23666,-2.73748 -4.80293,-6.79145 -4.90095,-14.677925 0.35096,0.547372 0.72265,1.115655 1.07621,1.724785 0.016,1.19156 0.1582,2.29063 0.4205,3.28054 0.0573,0.21647 0.16856,0.37819 0.23571,0.58544 l -0.0143,0.027 0.0214,-0.009 c 8e-5,2.3e-4 0.002,-2.2e-4 0.002,0 0.57139,1.75332 1.42814,3.23009 2.4548,4.37304 0.57587,0.6411 1.18907,1.19311 1.80063,1.6647 1.22311,0.94318 2.44599,1.57423 3.36404,1.96965 0,1.6e-4 0.002,-1.5e-4 0.002,0 0.91644,0.39451 1.52929,0.55643 1.52929,0.55643 l 0.35686,0.0921 0.0921,-0.35687 c 0,0 0.27714,-1.06724 0.55439,-2.27765 0.24672,-1.07691 0.44736,-2.12189 0.49993,-2.8473 0.0726,-0.0239 0.15146,-0.10141 0.22297,-0.11811 0.15796,-0.0522 0.31386,-0.10355 0.48923,-0.112 0.45889,-0.0118 0.90187,0.0627 1.29715,0.23011 0.26501,0.11997 0.5344,0.47224 0.74072,0.99983 0.2074,0.53036 0.35069,1.20461 0.4424,1.86224 0.18338,1.31526 0.16849,2.55254 0.16849,2.55254 l -0.005,0.34772 0.34772,0.0239 c 0,0 4.70297,0.35179 7.23917,-0.15935 1.47017,-0.2963 2.75389,-1.20661 3.85734,-2.3988 1.10344,-1.1922 2.02713,-2.66649 2.78061,-4.08744 0.22822,-0.43043 0.15582,-0.42356 0.35178,-0.83847 l 0.0489,0.0127 -0.0387,-0.0382 c 1.05839,-2.24791 1.87879,-4.4566 1.90804,-4.55274 z m -23.91933,1.907543 c 0.71584,0.002 1.55363,0.07861 2.50418,0.201087 0.63168,0.08137 1.67871,0.619327 2.8132,1.404049 1.13453,0.784722 2.37708,1.804843 3.52541,2.813713 1.70469,1.49771 2.47032,2.301 3.12833,2.96032 -2.03841,-0.54971 -9.98038,-2.72789 -15.44003,-5.282764 -0.006,-0.003 -0.013,-0.0069 -0.0219,-0.01478 l -0.28967,-0.24792 0.28967,-0.601743 c 0.01,-0.02089 0.0156,-0.03212 0.0158,-0.03261 0.22662,-0.406675 0.67634,-0.712156 1.29613,-0.91279 0.61979,-0.200633 1.3917,-0.289295 2.17887,-0.286606 z m -4.16126,0.24996 c 0.25076,0.02679 0.48855,0.0858 0.74479,0.07635 -0.11439,0.0929 -0.2605,0.149593 -0.35534,0.260648 -0.11886,-0.134944 -0.25446,-0.234887 -0.38945,-0.337016 z m -1.63569,0.187343 c 0.082,-0.002 0.16024,-9.85e-4 0.2352,0.003 0.59967,0.03212 0.97622,0.217578 1.36078,0.7285 0.0184,0.02473 0.0402,0.05615 0.0616,0.09211 l 0.34057,0.577804 -0.2245,0.300871 c 0,-0.002 -0.20207,0.172478 -0.49687,0.342611 -0.2948,0.170144 -0.69178,0.37249 -1.15358,0.59258 -0.92359,0.44017 -2.10276,0.94921 -3.2612,1.43052 -1.79145,0.74432 -2.82134,1.13495 -3.5198,1.40457 0.29225,-0.51124 0.4929,-0.91756 1.1663,-1.88108 0.50323,-0.71998 1.07245,-1.454666 1.63977,-2.036322 0.56728,-0.581655 1.14158,-0.99758 1.57409,-1.115915 0.95522,-0.261328 1.70375,-0.42424 2.27764,-0.439342 z m 2.0847,2.350946 h 5.2e-4 c 3.09255,1.44035 7.1939,2.82572 10.59761,3.87872 -0.0157,0.007 -0.0304,0.016 -0.0448,0.0254 -0.12606,0.15871 -0.10015,0.38945 0.058,0.51621 0.77357,0.62022 0.99059,1.07058 0.99628,1.30988 0.006,0.23929 -0.1559,0.43119 -0.49229,0.62668 -0.6728,0.39098 -1.83372,0.54167 -1.83372,0.54167 -0.2021,0.0219 -0.34815,0.20362 -0.32633,0.40574 0.0219,0.20232 0.20346,0.34843 0.40574,0.32633 0,0 1.2239,-0.11312 2.1234,-0.63585 0.44978,-0.26137 0.87291,-0.6889 0.85882,-1.28086 -0.0123,-0.51307 -0.38225,-1.03851 -1.01817,-1.61074 3.03474,0.91666 5.61623,1.61431 5.61623,1.61431 l 0.51417,0.13388 c -0.16378,0.34045 -0.10069,0.33355 -0.2861,0.68319 -0.73397,1.38421 -1.63908,2.78428 -2.67423,3.90213 -0.51755,0.55894 -1.0667,1.04777 -1.64485,1.42798 -0.57816,0.38022 -1.18443,0.65215 -1.81336,0.7789 -2.15265,0.43384 -6.21419,0.19107 -6.72501,0.15935 0,-0.27992 0.0168,-1.10758 -0.15017,-2.30463 -0.0819,-0.58666 -0.22969,-1.17324 -0.41135,-1.72121 0.008,0.009 0.13084,0.0927 0.13084,0.0927 0.13545,0.15041 0.36649,0.16352 0.51774,0.0291 0.15133,-0.13558 0.16446,-0.36832 0.0291,-0.51978 0,0 -0.72882,-0.82484 -1.84085,-1.30834 -0.012,-0.005 -0.0297,-0.002 -0.0418,-0.007 -0.002,-7.8e-4 -0.002,-0.003 -0.003,-0.004 -0.52434,-0.23254 -1.11805,-0.30547 -1.70696,-0.26065 -0.16534,0.0101 -0.31955,0.0849 -0.48923,0.12115 -0.2024,0.0566 -0.41956,0.0354 -0.60683,0.15018 l -0.17564,0.10691 v 0.1395 c -0.37245,0.17925 -0.74235,0.20879 -1.10675,0.56202 -0.14578,0.141 -0.15038,0.37351 -0.0102,0.51978 0.14117,0.14595 0.37409,0.14961 0.52028,0.009 0.15994,-0.15501 0.30032,-0.12735 0.45665,-0.24028 -0.0897,0.63781 -0.19842,1.36576 -0.40217,2.25524 -0.22659,0.98924 -0.38038,1.58075 -0.45258,1.86223 -0.46541,-0.13738 -2.24146,-0.69457 -4.27988,-2.26645 -1.1611,-0.89535 -2.31868,-2.07619 -3.18839,-3.62671 -0.34712,-0.61884 -0.60267,-1.34377 -0.83999,-2.08572 l 0.22603,-0.0845 c 0,0 2.01281,-0.78598 4.00701,-1.60006 -0.3012,0.255 -0.7654,0.49992 -0.87053,0.77942 -0.19533,0.5191 0.0155,1.02813 0.31665,1.36536 0.6023,0.67444 1.58529,0.99322 1.58529,0.99322 0.19166,0.0689 0.40253,-0.0311 0.4709,-0.22298 0.0687,-0.19222 -0.0319,-0.40333 -0.22451,-0.4709 0,0 -0.88902,-0.34701 -1.2829,-0.78807 -0.19694,-0.22052 -0.26452,-0.3818 -0.17563,-0.61803 0.0889,-0.23622 0.42915,-0.61987 1.2661,-1.04871 0.18151,-0.0928 0.25333,-0.31519 0.15985,-0.49636 -0.007,-0.003 -0.0136,-0.005 -0.0204,-0.007 0.93004,-0.3931 1.88137,-0.79623 2.63655,-1.15613 0.47209,-0.22499 0.88142,-0.43311 1.20449,-0.61956 0.19886,-0.11476 0.3059,-0.2254 0.43985,-0.33142 z m 0.23825,2.86564 c -1.37482,0.0107 -2.93692,0.0655 -4.71106,0.17614 -0.20333,0.0128 -0.35754,0.1882 -0.34414,0.39149 0.0128,0.20252 0.18691,0.35644 0.38944,0.34414 7.04956,-0.43976 10.67748,0.0204 12.49497,0.56305 0.90877,0.27133 1.36143,0.56129 1.5746,0.75243 0.10661,0.0956 0.15391,0.16506 0.17411,0.20057 0.0201,0.0355 0.007,-0.002 0.007,-0.002 0.036,0.20016 0.22748,0.33335 0.42762,0.29731 0.20017,-0.036 0.33336,-0.22749 0.29731,-0.42763 0,0 -0.0288,-0.12351 -0.0906,-0.23214 -0.0618,-0.10864 -0.16453,-0.24223 -0.3248,-0.38589 -0.32046,-0.28733 -0.87294,-0.61613 -1.85459,-0.90922 -0.98165,-0.29309 -2.39427,-0.55111 -4.4494,-0.68116 -1.02757,-0.065 -2.21525,-0.0978 -3.59006,-0.0871 z"
     sodipodi:nodetypes="ssccccscscccccccssccccccsccssscccccccsccccccccsscccccsssssccccccsscccccccsscscccccccccccsscccccscscscscccscccccscccsssscscscccccsssssssscsssssssssssssssssssssscssssccscccccsccssccccccssccccccccccccccsccccscccccccsssscscccccccscscsccccssscccsccccccccscccccsccsscccccccscccsscssccccsscsscccccccssscccccsscsccccccscscsscccscscccsssscccccccsccccccccccccccsccsccscssccccccccccccccccccccccccsccsccccccccccccccccccccsscsccccccscssscccccccsssccccscccssssccccsscsssccccccccsssccccccccccccccscccccscccccccccccccccccccccsscccsccsccccccccccccccsccccccccssccccscccsscsccsccsccccccsssssscssssscscssccccccccsscccccccsccsccssccsccccssccccccccccsscccsssccccccsssccccccscccccscccccssscssssccccccscscscccccssscsccccscccccccccccscssccccscccsscccsscscccssccccccssscccccssccccccsscc" />
</svg>
