<?xml version="1.0" encoding="UTF-8" standalone="no"?>
<!-- Created with Inkscape (http://www.inkscape.org/) -->

<svg
  version="1.1"
  width="1328.6699"
  height="612.03528"
  inkscape:version="1.1.2 (0a00cf5339, 2022-02-04)"
  sodipodi:docname="not-found.svg"
  id="svg825"
  xmlns:inkscape="http://www.inkscape.org/namespaces/inkscape"
  xmlns:sodipodi="http://sodipodi.sourceforge.net/DTD/sodipodi-0.dtd"
  xmlns="http://www.w3.org/2000/svg"
  fill="currentColor"
  xmlns:svg="http://www.w3.org/2000/svg"
>
  <sodipodi:namedview
    id="namedview7"
    pagecolor="#ffffff"
    bordercolor="#666666"
    borderopacity="1.0"
    inkscape:pageshadow="2"
    inkscape:pageopacity="0.0"
    inkscape:pagecheckerboard="0"
    inkscape:document-units="mm"
    showgrid="false"
    inkscape:zoom="0.63606902"
    inkscape:cx="429.98478"
    inkscape:cy="257.83365"
    inkscape:window-width="1920"
    inkscape:window-height="1044"
    inkscape:window-x="0"
    inkscape:window-y="0"
    inkscape:window-maximized="1"
  />
  <defs id="defs2" />
  <path
    d="M 418.85934,1.9293642e-4 C 406.38599,0.03706194 386.89419,7.9034945 377.97458,16.500193 c -8.29641,7.996086 -10.09025,11.349364 -12.69922,23.751954 -2.41731,11.491521 -1.61532,38.797925 1.33789,45.535156 1.71726,3.91796 1.84364,3.978789 1.94531,0.933594 0.0948,-2.837371 0.3225,-2.986379 1.77539,-1.160157 2.29259,2.881705 8.57749,4.204694 9.92969,2.089844 0.58881,-0.920897 2.26964,-2.33651 3.73633,-3.144531 1.86878,-1.029547 2.7905,-3.127192 3.07812,-7.011719 0.48265,-6.516057 -0.66844,-7.271953 -11.2832,-7.419922 -6.60612,-0.09208 -7.10907,-0.337595 -7.87695,-3.820312 -1.65816,-7.520708 3.15546,-30.02332 6.52343,-30.498047 0.85773,-0.120911 5.76511,-0.323172 10.90625,-0.449219 5.14118,-0.126036 10.71486,-0.959812 12.38477,-1.853516 3.81997,-2.044388 21.51809,-5.478515 28.23828,-5.478515 8.30649,0 10.41775,2.907672 11.19531,15.410156 0.56463,9.078444 1.48767,12.384649 5.95117,21.333984 4.06371,8.147728 5.59244,13.168687 6.63086,21.771485 0.74234,6.149981 2.05328,11.616421 2.91407,12.148441 1.98723,1.22817 1.70354,2.410571 -1.73828,7.244141 -1.74955,2.45705 -2.06645,3.53316 -0.85352,2.90039 1.42186,-0.74168 1.38705,-0.54149 -0.13281,0.75976 -1.1342,0.97104 -2.9017,3.82785 -3.92969,6.34766 -2.891,7.08646 -9.72648,13.41797 -14.48438,13.41797 -2.21786,0 -4.33997,0.49782 -4.71679,1.10742 -0.61255,0.99092 -9.1367,1.0398 -33.14649,0.18555 -8.52011,-0.30316 -12.34779,1.59684 -10.42968,5.17968 0.6458,1.20632 4.26879,6.06402 8.05078,10.79493 l 6.87695,8.60156 -3.08008,2.49609 c -3.27307,2.65352 -18.55248,10.03466 -31.48633,15.40039 -8.1209,-5.01991 -21.56857,-10.43164 -27.4414,-10.43164 -1.69826,0 -4.82703,-0.54566 -6.95313,-1.21093 -2.12606,-0.66532 -10.16528,-3.13459 -17.86523,-5.48829 -25.46869,-7.78522 -24.76895,-7.10214 -23.39649,-22.83593 0.7338,-8.41225 0.5548,-10.46485 -0.91211,-10.46485 -1.00372,0 -2.39511,0.50379 -3.09179,1.1211 -0.69665,0.61727 -4.71693,1.85973 -8.9336,2.76171 -4.21666,0.90199 -7.66601,2.19818 -7.66601,2.87891 0,0.68073 -0.75609,1.23828 -1.67969,1.23828 -0.9236,0 -2.3917,1.14084 -3.26367,2.53711 -1.33879,2.14356 -1.23268,2.47202 0.67969,2.10352 1.24558,-0.24012 2.26367,-0.52838 2.26367,-0.64063 0,-0.11221 1.16441,-0.42337 2.58789,-0.68945 1.42356,-0.26623 3.93776,-0.82266 5.58594,-1.23633 1.64817,-0.41367 3.36736,-0.15009 3.82226,0.58594 0.45487,0.73602 -0.25737,1.35818 -1.58398,1.38086 -2.28779,0.0402 -2.29138,0.13438 -0.0781,1.81445 3.04422,2.31099 2.95428,3.47656 -0.26758,3.47656 -1.43024,0 -3.2115,1.05065 -3.95898,2.33399 -0.74748,1.28334 -1.37771,1.63617 -1.40039,0.7832 -0.0301,-1.15102 -1.02009,-1.18154 -3.83984,-0.11719 -3.04668,1.14996 -4.42513,0.99435 -6.96289,-0.7832 -1.7421,-1.21901 -2.53175,-2.2168 -1.75782,-2.2168 1.52243,0 1.60104,-4.69778 0.10352,-6.19531 -0.83505,-0.83505 -1.46075,1.41536 -1.07422,3.86328 0.26544,1.68125 -0.64765,1.1334 -3.30274,-1.97851 -2.5147,-2.94732 -2.51308,-2.95727 0.12696,-1 2.4494,1.81617 2.52221,1.79364 0.89648,-0.28321 -1.35828,-1.73514 -2.52169,-1.97547 -5,-1.0332 -3.95561,1.50391 -11.36884,0.28495 -13.37304,-2.19922 -0.87825,-1.08854 -3.19446,-1.6308 -5.71094,-1.33789 -3.12476,0.36382 -4.58872,-0.17233 -5.58985,-2.04297 -0.74596,-1.39381 -1.90105,-2.19633 -2.5664,-1.78515 -1.21372,0.75012 -6.11186,-7.13215 -5.59766,-9.00782 0.15077,-0.54999 -0.32525,-1 -1.05859,-1 -0.73331,0 -1.33399,-0.63549 -1.33399,-1.41211 0,-0.77654 0.5029,-1.10035 1.11719,-0.7207 0.61433,0.37965 1.21493,-1.79347 1.33399,-4.82812 0.19967,-5.09575 -0.45513,-8.2297 -3.97852,-19.039067 -2.53349,-7.772504 -2.42223,-9.695168 0.92383,-15.988282 2.18041,-4.100734 3.19878,-7.833867 2.87109,-10.517578 -0.27934,-2.288326 0.29651,-6.485927 1.2793,-9.328125 2.19779,-6.356481 2.22723,-7.137406 0.1875,-5.097656 -2.93794,2.937925 -3.88247,1.651185 -3.47266,-4.724609 0.3879,-6.035059 0.67932,-6.455537 6.40625,-9.253906 6.40789,-3.131109 10.66602,-3.869983 10.66602,-1.84961 0,0.757595 1.6359,0.771975 4.20508,0.03516 2.58115,-0.740262 7.85516,-0.689098 13.65039,0.132813 8.08497,1.146659 10.05334,1.010755 13.68554,-0.945313 6.26998,-3.376594 6.80218,-9.963477 1.35743,-16.796875 -1.02301,-1.283886 -6.59347,-4.536774 -12.37891,-7.2285155 -8.65055,-4.024774 -12.44142,-5.000272 -21.33594,-5.490235 -10.36112,-0.57075 -11.34038,-0.363952 -23.33203,4.896485 -30.07884,13.1948225 -42.81456,31.9808215 -41.66211,61.4570315 0.25017,6.39877 1.40723,14.273663 2.57227,17.5 4.12543,11.424941 7.39403,25.735282 6.59961,28.900392 -0.44281,1.76432 -3.61035,8.89458 -7.03907,15.8457 l -6.23437,12.63867 2.39648,6.24023 c 4.53392,11.80218 4.70176,11.30596 -5.37695,15.88282 -5.0095,2.27486 -16.00807,6.83085 -24.44141,10.12304 -33.10019,12.92164 -38.907605,16.9779 -40.615234,28.36524 -0.526261,3.5094 -2.072876,9.20896 -3.435547,12.66601 -1.362633,3.45706 -3.429063,10.0914 -4.591796,14.74415 -1.162772,4.65278 -3.889624,12.40114 -6.060547,17.21679 -2.170923,4.81565 -4.290616,11.71431 -4.710938,15.33203 -1.184201,10.19263 -3.072282,18.36925 -8.894531,38.52539 -4.924573,17.04904 -5.307143,19.49821 -4.5625,29.1543 0.687987,8.92169 0.382744,11.5385 -1.978516,17.02734 -3.502261,8.1413 -2.619405,13.41622 3.38086,20.20508 l 4.419922,5.00196 8.052734,-9.8125 c 8.68029,-10.57607 26.415893,-24.17513 34.404303,-26.38086 3.25379,-0.8984 5.99798,-0.80738 9.0625,0.30078 3.74604,1.35458 5.4969,1.17761 11.84961,-1.19922 10.67338,-3.99345 19.46291,-4.83802 29.87695,-2.87305 6.10174,1.15132 10.01044,2.71356 12.16016,4.86328 1.7424,1.7424 6.87542,4.44604 11.40625,6.00782 8.77663,3.02531 16.45836,7.34167 19.41992,10.91015 2.48296,2.99203 0.65237,2.75286 -2.67774,-0.34961 -1.49427,-1.39215 -5.49692,-2.94755 -8.89453,-3.45703 -3.3976,-0.50952 -8.45776,-1.84019 -11.24414,-2.95508 -2.78638,-1.11477 -6.31262,-1.69963 -7.83789,-1.30078 -2.56925,0.67189 -2.61908,0.55193 -0.6543,-1.61914 1.95304,-2.15803 1.87716,-2.57215 -0.96289,-5.24023 -1.69617,-1.59349 -4.24466,-2.84885 -5.66406,-2.79102 -1.93013,0.0787 -1.65637,0.44179 1.08594,1.44336 2.01668,0.73655 3.66601,1.76561 3.66601,2.28711 0,0.52154 -2.8487,3.02263 -6.33203,5.55664 -6.10454,4.44087 -7.37119,5.29417 -15.26953,10.29883 -1.98149,1.25556 -3.94903,3.66009 -4.37109,5.3418 -0.4221,1.68173 -2.11068,3.66928 -3.75391,4.41796 -1.64319,0.74869 -4.41389,3.44159 -6.15625,5.98438 -1.74236,2.54283 -3.50589,4.28704 -3.91797,3.875 -0.41204,-0.41212 -1.80066,1.22443 -3.08789,3.63672 -3.85935,7.23269 -6.94312,13.66014 -7.0293,14.65234 -0.0446,0.51334 -0.83136,1.68292 -1.74804,2.59961 -0.91665,0.91665 -1.66602,2.74641 -1.66602,4.06641 0,1.32 -1.15107,3.55146 -2.55664,4.95703 -1.40549,1.40553 -2.1549,2.95448 -1.66601,3.44336 0.48888,0.48865 -0.0113,0.68985 -1.11133,0.44531 -1.28281,-0.28505 -1.85876,0.39209 -1.60742,1.88867 0.21547,1.28334 -0.27134,2.33203 -1.08008,2.33203 -0.80893,0 -1.08947,0.61571 -0.625,1.36719 0.46435,0.75152 0.34864,1.28085 -0.25586,1.17578 -2.58406,-0.44889 -4.53606,0.21175 -3.85938,1.30664 0.40188,0.65027 -0.31264,2.00024 -1.58789,3 -2.09038,1.63881 -2.14088,1.59124 -0.51757,-0.48047 1.69009,-2.15716 1.54833,-2.17017 -2.332043,-0.23437 -4.73136,2.36031 -4.859223,2.83793 -2.142574,8.04687 1.095454,2.10048 1.935594,6.21902 1.867184,9.15235 -0.10836,4.63393 -0.26582,4.89617 -1.193356,2 l -1.066406,-3.33399 -0.132813,3.70899 c -0.0731,2.03966 -1.032819,4.05446 -2.132813,4.47656 -2.651867,1.0176 -2.536304,3.71949 0.25586,5.98438 1.562872,1.26772 1.944928,1.31534 1.246094,0.15234 -1.206993,-2.00859 0.161081,-6.98828 1.919922,-6.98828 0.683902,0 1.244142,0.93485 1.244142,2.07812 0,1.18141 -0.63834,1.68415 -1.476564,1.16602 -0.992278,-0.61327 -1.183581,0.0128 -0.582032,1.9082 1.120936,3.53174 -2.47069,9.53341 -3.734375,6.24024 -0.434796,-1.13307 -1.743869,-2.0586 -2.910156,-2.0586 -1.207219,0 -1.728657,-0.635 -1.210937,-1.47265 0.732888,-1.18587 -1.605717,-0.009 -7.185547,3.61328 -0.238375,0.15473 -0.606265,1.38579 -0.816407,2.73633 -0.227716,1.46332 -1.445281,2.42218 -3.013671,2.37304 -2.034407,-0.0636 -2.560186,0.69361 -2.316407,3.33399 0.17333,1.87857 0.374699,3.63885 0.447266,3.91211 0.07272,0.2731 1.045335,-0.2626 2.162109,-1.18946 1.684309,-1.39789 1.895895,-1.3344 1.242188,0.36914 -0.433436,1.12955 -0.137085,2.45574 0.658203,2.94727 0.79355,0.49149 1.162611,1.35168 0.816406,1.91211 -0.346393,0.56043 0.218429,1.01953 1.253906,1.01953 1.035364,0 1.647439,-0.37903 1.361329,-0.8418 -0.286035,-0.4628 0.03138,-1.71235 0.705078,-2.77734 1.060951,-1.67675 1.231609,-1.66763 1.265625,0.0645 0.03628,1.77778 0.185121,1.77778 1.333984,0 0.755906,-1.16965 1.301162,-1.34777 1.3125,-0.42969 0.01122,0.86348 -1.564983,2.81617 -3.501953,4.33985 -2.906835,2.2865 -3.895723,2.47697 -5.666016,1.0957 -1.886173,-1.47167 -1.932279,-1.40217 -0.380859,0.58008 1.00902,1.28927 2.671462,1.90701 3.884766,1.44141 1.345247,-0.51629 1.790201,-0.27668 1.214843,0.65429 -0.498935,0.80731 -0.319219,1.82991 0.398438,2.27344 1.520315,0.93959 -1.000685,7.37695 -2.888672,7.37695 -0.658772,0 -0.826288,0.60065 -0.373047,1.33399 0.453203,0.73334 0.153877,1.33398 -0.666016,1.33398 -0.819968,0 -1.118525,0.60328 -0.662109,1.3418 0.456416,0.73852 -0.11786,1.70738 -1.277344,2.15234 -1.159445,0.44489 -2.027514,1.49103 -1.927734,2.32422 0.410381,3.42369 -0.220827,4.95267 -1.673828,4.05469 -0.907276,-0.56066 -1.178922,-0.36946 -0.662109,0.4668 1.035855,1.67607 -0.336124,5.89745 -1.652344,5.08398 -0.499351,-0.30864 -1.022267,0.59499 -1.16211,2.00781 -0.594519,6.01365 -0.837401,6.65351 -2.316406,6.08594 -0.855534,-0.32829 -1.55664,0.17837 -1.55664,1.12695 -10e-7,0.94863 -1.043513,3.92655 -2.320313,6.61719 -1.993474,4.20095 -2.972277,8.06513 -3.365234,13.29297 -0.05053,0.67238 -0.486218,0.82824 -0.96875,0.3457 -1.646703,-1.6467 -4.181774,1.85611 -3.484375,4.81446 0.686551,2.91227 0.668854,2.91691 -1.38086,0.28515 -1.155175,-1.48342 -1.571327,-3.18344 -0.9375,-3.83008 1.546205,-1.57757 0.08784,-5.04096 -1.666015,-3.95703 -0.837204,0.51742 -1.000871,0.2207 -0.408203,-0.73828 0.546255,-0.88176 0.556653,-2.62482 0.02344,-3.87304 -1.833298,-4.29177 1.203295,-23.08905 4.833984,-29.91797 0.677027,-1.2734 1.232422,-4.04954 1.232422,-6.16993 0,-2.12039 0.810987,-5.87869 1.802735,-8.35156 0.99171,-2.47291 2.28983,-5.69542 2.884765,-7.16211 0.594936,-1.46664 1.13377,-3.01519 1.197266,-3.4414 0.154583,-1.04024 5.735831,-13.92447 8.90625,-20.5586 1.401827,-2.93333 2.546621,-5.93462 2.539062,-6.66797 -0.04127,-5.06248 13.700461,-32.98238 20.671875,-42 0.850356,-1.09999 2.587703,-4.8256 3.861326,-8.27929 1.27359,-3.4537 3.77462,-8.42971 5.5586,-11.0586 1.78401,-2.62885 3.24414,-5.97089 3.24414,-7.42578 0,-3.10582 12.06594,-14.79804 21.22461,-20.56836 3.49183,-2.19998 8.39384,-5.36492 10.89453,-7.0332 2.50068,-1.66828 5.59752,-2.77533 6.88086,-2.45899 1.28334,0.31631 2.33398,-0.003 2.33398,-0.71093 0,-0.70806 0.58654,-0.92434 1.30469,-0.48047 1.84146,1.13805 6.69531,-1.70634 6.69531,-3.92383 0,-3.03836 -12.21471,-5.07234 -19.33398,-3.21875 -2.19999,0.57279 -5.74828,1.34685 -7.88477,1.71875 -2.13649,0.37206 -4.51988,1.3109 -5.29687,2.08789 -0.99481,0.99492 2.12644,1.19639 10.55078,0.67969 l 11.96484,-0.73438 -4.66797,2.28516 c -2.56667,1.25684 -8.86668,4.26902 -14,6.69336 -11.98639,5.66079 -21.94808,11.47674 -21.91406,12.79492 0.0142,0.56814 -1.02755,2.81812 -2.31641,5 -1.60097,2.71021 -3.414,3.97953 -5.72265,4.00977 -4.094629,0.0514 -8.647656,3.23672 -7.433596,5.20117 0.483364,0.7821 0.179299,1.42187 -0.675782,1.42187 -0.855722,0 -1.250811,0.79438 -0.878906,1.76368 0.371981,0.96929 -0.463695,2.47261 -1.855468,3.34179 -1.391812,0.86918 -2.435147,2.02741 -2.31836,2.57227 0.4608,2.15134 -2.998004,8.46628 -6.83789,12.48437 -2.225915,2.32921 -4.046876,5.22432 -4.046876,6.43555 1e-6,1.21126 -0.749329,2.95936 -1.666015,3.88281 -1.335988,1.34589 -1.224044,1.51026 0.568359,0.82813 1.756611,-0.66849 2.08195,-0.26141 1.515625,1.90429 -0.396548,1.51624 -1.35433,2.36544 -2.128906,1.88672 -0.859427,-0.53125 -1.096531,-0.0558 -0.607422,1.21875 0.44092,1.1486 0.393996,2.49659 -0.105469,2.9961 -0.901644,0.9016 -1.088077,1.5973 -1.408203,5.25781 -0.09165,1.04761 -1.193558,2.92992 -2.447265,4.18359 -1.253707,1.25371 -2.458963,3.46377 -2.679688,4.91016 -0.220724,1.44639 -1.497304,4.21283 -2.835937,6.14844 -1.338671,1.93564 -2.876703,4.41953 -3.417969,5.51953 -0.87481,1.77777 -0.786535,1.77777 0.787109,0 0.97372,-1.1 2.5176,-2.15068 3.431641,-2.33399 1.994192,-0.39995 2.220971,1.83057 0.30664,3.01368 -0.745474,0.46061 -1.035107,1.35435 -0.644531,1.98632 1.180007,1.90931 -1.984772,3.00826 -3.955078,1.37305 -1.514721,-1.25703 -1.72258,-0.75065 -1.185547,2.88477 0.641424,4.34184 0.618051,4.36489 -1.482422,1.45507 l -2.132812,-2.95703 -2.671875,2.67188 c -1.469102,1.46895 -2.254768,3.34026 -1.748047,4.16015 0.560126,0.90634 0.31667,1.11936 -0.619141,0.54102 -1.025045,-0.63352 -1.59396,0.41095 -1.705078,3.12695 -0.238753,5.84243 -0.364569,6.39871 -1.714843,7.63477 -0.705298,0.64554 -0.81116,0.41167 -0.253907,-0.55664 0.527509,-0.91665 0.359943,-1.66602 -0.371093,-1.66602 -0.731037,0 -1.241349,1.15837 -1.134766,2.57422 0.106658,1.41589 0.668898,2.28093 1.25,1.92188 0.581102,-0.35913 1.05664,-0.0188 1.05664,0.75781 10e-7,0.77662 -0.598689,1.41211 -1.332031,1.41211 -0.733304,0 -1.333984,0.68369 -1.333984,1.51953 0,0.8358 -0.966617,2.22765 -2.148438,3.0918 -1.286551,0.94076 -2.248704,3.78834 -2.396484,7.09765 -0.252057,5.64371 -2.121094,9.69019 -2.121094,4.5918 0,-1.5456 -0.544052,-3.14569 -1.208984,-3.55664 -1.555918,-0.96163 -0.198324,4.65694 1.734375,7.17773 1.138507,1.48468 1.074655,1.68296 -0.28125,0.86719 -1.133972,-0.68228 -1.650543,-0.41867 -1.457031,0.74414 0.164711,0.99024 -0.140878,2.80329 -0.679688,4.0293 -0.538847,1.22604 -0.375087,3.3586 0.363281,4.73828 1.055358,1.97197 0.770445,2.86469 -1.332031,4.17773 -2.011692,1.25632 -2.316099,2.10473 -1.224609,3.41993 1.063673,1.28144 0.969924,2.14772 -0.353516,3.24609 -0.993184,0.8242 -2.184475,1.12021 -2.646484,0.6582 -1.241159,-1.24116 -3.839985,6.39619 -3.117188,9.16016 0.341556,1.30632 0.07708,2.0379 -0.58789,1.62695 -1.559282,-0.96374 -1.53914,1.03837 0.05469,5.23047 1.233525,3.24442 1.16502,3.29275 -2.767578,1.92188 -3.041046,-1.06016 -4.41697,-0.99079 -5.597656,0.2871 -0.861203,0.93185 -0.965726,1.36993 -0.232422,0.97266 0.733342,-0.39726 2.169977,0.18276 3.193359,1.28906 1.625159,1.75684 1.498456,1.8964 -1.005859,1.10157 -2.811742,-0.89239 -3.948676,0.28304 -4.675781,4.83593 C 17.007341,544.69568 12.137839,551.18038 6,556.86743 l -6,5.56055 v 12.54492 12.54492 l 5.6210937,7.44336 c 6.8334383,9.05083 10.8543433,13.39116 14.3769533,15.51563 h 0.002 c 1.9256,1.15946 8.424328,1.40505 23.332031,0.8789 11.366702,-0.40127 21.266658,-0.63928 22,-0.52929 0.733342,0.10979 64.698612,0.4257 142.144532,0.70312 l 140.81055,0.50391 0.0254,-0.20899 c 20.51783,0.0665 39.70342,0.15039 65.02148,0.15039 h 139.33194 v -0.52739 c 21.37658,0.30957 61.04097,0.52734 107.88282,0.52734 h 124.39062 l 0.0234,-0.084 73.50586,0.0527 127.15429,0.0918 0.0215,-0.0606 h 59.65623 133.9688 l 0.2539,-32.33398 0.2539,-32.33203 0.1113,-46.66797 0.1113,-46.66602 -1.6835,-16 -1.6856,-16 -1.2227,-10.97656 -1.2226,-10.97851 -0.3516,-28.0293 -0.3515,-28.03125 1.5547,-1.55664 1.5566,-1.55469 3.0918,1.4082 3.0898,1.40821 3.2793,4.91211 3.2774,4.91211 11.041,6.57617 11.041,6.57617 h 0.5879 0.5879 l 10.1484,6 10.1485,6 h 0.914 0.9121 l 4.6446,3.08789 4.6425,3.08789 12,5.04492 12,5.04492 8.2168,4.53516 8.2168,4.5332 h 1.8536 1.8554 l 4.4141,-4.55273 4.4141,-4.55469 -4.1915,-2.16797 -4.1914,-2.16601 -1.1523,0.71094 -1.1524,0.71289 -4.6757,-1.95313 -4.6758,-1.95312 -2.1328,-2.13282 -2.1328,-2.13281 v -5 -4.99805 l 2.6757,-12.52148 2.6758,-12.51953 3.3438,-5.05274 3.3418,-5.05273 h -1.8574 -1.8594 l -10.8555,-5.50586 -10.8555,-5.50781 -3.0839,-3.66602 -3.084,-3.66601 -7.5528,-5.01368 -7.5547,-5.01562 -1.3281,-4.93359 -1.3281,-4.9336 -2.3379,-2.10742 -2.3398,-2.10742 -3.5411,-0.88477 -3.539,-0.88281 -2.6289,-2.88672 -2.6289,-2.88867 -0.8711,-4.89063 -0.8711,-4.89062 -5.959,-7.67578 -5.9609,-7.67383 -0.049,-6.76758 -0.047,-6.76758 -0.7891,-8 -0.7891,-8 -3.8281,-12.94922 -3.8262,-12.95117 -1.3047,-9.18945 -1.3027,-9.19141 -0.8965,-2.52539 -0.8965,-2.52734 -3.2265,-4.36328 -3.2285,-4.36524 -10.627,-5.34179 -10.625,-5.34375 -8.2832,-2.03711 -8.2812,-2.03516 -10,-3.46484 -10,-3.46485 -1.7149,-1.55468 -1.7168,-1.55469 0.8281,-2.15625 0.8262,-2.1543 3.8535,-0.8457 3.8516,-0.84766 4.0371,-3.76953 4.0352,-3.76953 0.02,-3.13281 0.018,-3.13086 0.8437,-3.14844 0.8418,-3.14844 -4.5273,0.97461 -4.5274,0.97656 -3.666,1.87305 -3.668,1.875 v -0.8789 -0.87696 l 2.8614,-2.48047 2.8594,-2.48046 4.8066,-1.33594 4.8066,-1.33594 1.5235,-0.006 1.5254,-0.008 0.7168,-1.8711 0.7168,-1.86914 -0.586,-0.58593 -0.5859,-0.58594 -7.6543,2.57226 -7.6563,2.57032 -2.2578,2.02343 -2.2597,2.02344 -0.4083,2.7793 -0.4082,2.78125 -6.3242,1.60742 -6.3261,1.60742 0.8418,-1.36133 0.8398,-1.35937 -4.7559,0.55469 -4.7539,0.55468 0.6524,-1.05468 0.6504,-1.05469 -1.7442,-0.10352 -1.7461,-0.10351 -7.6523,-0.2461 -7.6543,-0.24804 -2.3047,-3.28907 -2.3047,-3.29101 -0.1152,-3.35938 -0.1153,-3.35937 1.4063,-1.92188 1.4062,-1.92187 -2,1.12305 -2,1.12109 4.4239,-4.68945 4.4219,-4.6875 -1.8067,-10.675781 -1.8086,-10.673832 0.961,-3.59375 0.9609,-3.59375 3.3594,-3.361329 3.3613,-3.359375 0.8789,-5.861328 0.8789,-5.859375 -0.2812,-1.021484 -0.2813,-1.023438 -1.4121,0.404297 -1.4102,0.404297 -1.1015,-1.738281 -1.1035,-1.736328 -0.018,-5.41211 -0.02,-5.412109 1.666,-2.107422 1.6679,-2.107422 4.7969,-1.515625 4.7949,-1.517578 2.2051,0.845703 2.2031,0.845703 v 0.857422 0.857422 h 7.0019 7 l 3,1.089844 3,1.089844 v -5.59961 -5.599609 l -2.6601,-4.304688 -2.6602,-4.304687 -5.0058,-3.457031 -5.0059,-3.457032 -6.668,-3.046875 -6.666,-3.0468755 -16,-0.01563 -16,-0.01367 -6.666,2.5781265 -6.668,2.580078 -5.332,3.591796 -5.334,3.591797 -7.4765,7.421875 -7.4766,7.421875 -4.5234,12.40625 -4.5235,12.408203 0.1758,16 0.1777,16.000001 1.4571,3.66602 1.457,3.66601 -1.3789,3.667971 -1.377,3.66602 -5.0058,5.33398 -5.0059,5.33203 -3.5625,4.88477 -3.5644,4.88477 -2.35348,2.33398 -2.35359,2.33594 -3,4.03906 -3,4.03906 0.004,3.4082 0.002,3.40821 3.99414,4.66601 3.99215,4.66797 -0.4394,1.32813 -0.4395,1.32812 -8.55661,3.62305 -7.61328,3.22266 c -3.56416,-1.37433 -7.34406,-2.76088 -11.61328,-4.21289 -23.30113,-7.92492 -25.7707,-9.54099 -43.20899,-28.28907 -3.44655,-3.70541 -5.92607,-3.90926 -4.81055,-0.39453 0.53617,1.68934 -1.27302,6.73407 -5.14257,14.33399 -3.28392,6.44972 -6.99843,15.02722 -8.25391,19.06054 -1.25545,4.03333 -3.10004,7.99832 -4.09961,8.8125 -0.99953,0.81419 -1.81836,2.49549 -1.81836,3.73438 0,1.23893 -0.87588,3.94767 -1.94726,6.01953 -1.07139,2.07186 -3.12443,7.89185 -4.5625,12.93359 -2.81689,9.87583 -7.10921,22.24631 -16.83008,48.5 -3.39413,9.16664 -8.49936,23.26539 -11.34375,31.33203 -2.84444,8.06669 -7.32541,20.66666 -9.95899,28 -8.14148,22.66995 -8.79224,24.91186 -7.97265,27.49414 0.43744,1.37821 1.50579,2.52616 2.37304,2.54883 0.86725,0.023 5.16159,1.82303 9.54297,4 4.38134,2.17701 8.7415,3.95703 9.69141,3.95703 2.78661,0 12.09695,6.38675 13.71289,9.40625 0.81736,1.5272 1.36004,4.98542 1.20508,7.68555 -0.15489,2.70017 0.1667,6.55721 0.71484,8.57227 0.54977,2.015 0.54723,4.71499 -0.004,6 -0.55113,1.28496 -1.06667,3.53726 -1.14453,5.0039 -0.083,1.56227 -0.92455,2.49706 -2.0332,2.25781 -1.5422,-0.33297 -1.58293,-0.0362 -0.21875,1.60743 2.42804,2.92562 0.9045,4.37943 -5.61719,5.35742 -9.3312,1.39941 -22.54972,2.09572 -23.90234,1.25976 -0.68935,-0.42602 0.74644,-2.50363 3.18945,-4.61718 l 4.44141,-3.84375 -7.66797,0.32226 c -4.21667,0.17628 -7.66602,0.81867 -7.66602,1.42774 0,0.60926 -1.73734,0.72432 -3.86132,0.25781 -3.14007,-0.68969 -4.57413,-0.11655 -7.66797,3.06445 -4.10469,4.22037 -9.38155,6.38758 -16.63672,6.81641 2.52864,-1.98745 6.10421,-4.67792 9.5957,-7.15235 7.37998,-5.23017 10.47031,-8.69012 11.73438,-15.80273 6.82416,-2.1528 12.41002,-4.9613 18.08007,-9.0332 l 5.85157,-4.20313 -4.66797,-4.53125 c -2.56645,-2.49233 -5.21125,-4.19386 -5.87891,-3.78125 -0.66761,0.41261 -1.21484,-0.18485 -1.21484,-1.32812 0,-1.14331 -1.04869,-2.09842 -2.33203,-2.1211 -3.18898,-0.0579 -5.90263,-2.40384 -9.38867,-8.11523 -0.56279,-0.92204 -0.83489,-1.51444 -1.22657,-2.23828 -0.2061,-1.62885 -0.41129,-3.25932 -0.66406,-5.03906 0.74412,-0.40732 1.97324,-0.56446 3.83398,-0.56446 2.68891,0 4.52284,-0.36587 4.07618,-0.8125 -0.44663,-0.44666 0.35139,-3.76526 1.77343,-7.37304 3.49278,-8.86122 7.50634,-32.30747 15.37305,-89.81446 0.40127,-2.93333 1.64028,-9.38763 2.75195,-14.34179 2.16446,-9.64581 2.06236,-12.1484 -0.43164,-10.59766 -0.86282,0.5365 -2.14563,4.8664 -2.84961,9.62305 -2.76298,18.66878 -5.67106,39.04646 -8.93359,62.58203 -7.57274,54.62891 -10.31763,47.01657 -10.12109,-28.0625 0.0863,-32.95132 0.5515,-44.72004 1.92578,-48.66602 1.22717,-3.52327 1.60851,-8.97335 1.17969,-16.87109 -0.3484,-6.41666 -0.24079,-11.66602 0.24023,-11.66602 0.48102,0 2.71908,2.09934 4.97266,4.66602 2.25358,2.56668 4.90011,4.66601 5.88086,4.66601 2.97615,0 3.35439,2.14469 1.26367,7.14844 -1.09512,2.62103 -1.92098,6.43634 -1.83594,8.47656 0.111,2.66155 0.31967,2.95632 0.73633,1.04297 0.76271,-3.50222 3.35068,-8.66797 4.34375,-8.66797 0.43124,0 0.56894,2.69998 0.30664,6 -0.26245,3.29998 0.0641,6 0.72461,6 2.48662,0 4.40039,-3.35401 4.40039,-7.71093 0,-5.4254 3.11058,-5.3024 3.75586,0.14843 0.23206,1.9601 0.8327,3.5707 1.33398,3.58204 0.50132,0.01 2.41081,0.4032 4.24414,0.875 3.33086,0.85712 3.33219,0.85649 0.76563,-2.04883 -1.98289,-2.24459 -2.84809,-2.51999 -3.79297,-1.20899 -0.8524,1.18269 -0.98215,0.95365 -0.42773,-0.7539 0.46892,-1.44431 -0.28697,-3.82717 -1.8379,-5.79883 -2.50798,-3.18815 -2.52277,-3.49245 -0.33593,-6.40821 1.26274,-1.68362 4.09493,-4.29985 6.29492,-5.8125 7.18499,-4.94014 20.33436,-18.57539 25.52539,-26.46874 2.79515,-4.25023 5.84632,-8.51925 6.7793,-9.48829 0.93297,-0.96907 1.69531,-2.64384 1.69531,-3.7207 0,-1.07682 1.16743,-4.24515 2.59375,-7.04101 2.3393,-4.58537 2.46774,-7.24358 0.63867,-13.20704 -0.35051,-1.14281 -1.88038,-0.35177 -4.50391,2.33204 -2.18483,2.23506 -4.51728,4.06445 -5.18554,4.06445 -0.66826,0 -1.91719,0.84326 -2.77344,1.875 -1.20321,1.44979 -2.62533,1.58163 -6.25977,0.57812 -4.76303,-1.31512 -14.99444,-0.77681 -19.85351,1.04493 -1.46052,0.54757 -6.06907,3.31186 -10.24024,6.14257 -8.50556,5.77229 -12.24993,6.94261 -14.76562,4.61328 -1.55732,-1.44192 -3.1593,-2.06172 -6.98438,-2.69921 -0.73334,-0.12223 -2.51694,-2.02072 -3.96484,-4.22071 -1.4479,-2.20002 -3.39855,-4.79265 -4.33398,-5.76172 -0.93547,-0.96903 -1.70118,-2.80074 -1.70118,-4.06836 0,-1.26761 -0.51326,-2.87363 -1.14062,-3.57031 -1.40731,-1.56283 -5.52539,-14.3472 -5.52539,-17.15234 0,-1.12782 -1.19819,-4.014961 -2.66211,-6.416021 -2.6468,-4.341143 -3.22058,-10.78222 -1.50781,-16.902344 0.49168,-1.762228 0.49954,-6.862879 0.0176,-11.333985 -0.86551,-8.029413 0.82262,-18.128906 3.0293,-18.128906 0.61727,0 1.1211,-0.771006 1.1211,-1.71289 0,-0.941889 1.78607,-2.767308 3.96875,-4.056641 4.3912,-2.593943 23.66361,-6.403448 27.55664,-5.447266 1.36195,0.334519 6.55096,-0.834684 11.53125,-2.597656 7.96921,-2.821009 9.69476,-3.016345 14.40039,-1.626953 5.81718,1.717606 12.76562,7.435485 12.76562,10.503906 0,3.192956 3.42732,14.812614 4.94336,16.759766 1.99045,2.556487 4.44406,9.571593 8.22461,23.511718 l 3.25586,12.000001 -0.66797,-8.667969 c -0.36676,-4.766665 -0.62114,-13.932953 -0.56445,-20.369141 0.1183,-13.42967 -1.21577,-18.469597 -7.8457,-29.630859 -8.72171,-14.67941 -16.2464,-20.497442 -30.26142,-23.401911 -18.52543,-3.839195 -22.27852,-3.395196 -39.97461,4.726562 -12.9713,5.953289 -24.21946,18.001668 -29.45312,31.548829 -4.26532,11.040638 -4.44849,15.745366 -1.2461,32.042968 3.24253,16.501791 6.75108,24.459002 12.20313,27.675782 2.95903,1.74588 5.48111,4.8199 7.15234,8.71875 1.41993,3.31257 3.21853,6.02344 3.99609,6.02344 0.77753,0 1.98462,1.50065 2.68164,3.33398 0.69702,1.83334 2.09087,3.33203 3.09766,3.33203 1.00679,0 2.75905,2.24998 3.89453,5 1.13552,2.74999 3.84028,9.20063 6.00977,14.33399 8.49441,20.09922 8.51223,20.06008 -16.15625,32.48437 -11.6439,5.86445 -19.57821,10.34591 -25.04883,14.91211 -2.40398,-4.34884 -4.72174,-8.23901 -6.76563,-11.16601 -10.25782,-14.69004 -15.89666,-19.28199 -34.70703,-28.27149 -9.72083,-4.6456 -18.02445,-9.3614 -18.45312,-10.47851 -0.42868,-1.11712 -0.15641,-4.90662 0.60547,-8.42188 1.1825,-5.4562 1.00467,-7.18722 -1.21875,-11.82617 -3.56848,-7.44518 -10.88319,-15.71121 -19.59961,-22.15039 l -7.30274,-5.39648 0.89453,-6.175791 C 721.41648,61.52717 716.70649,43.979932 697.62887,24.197459 681.92123,7.9095735 669.24117,3.1106265 645.00778,4.2775365 c -11.5869,0.557945 -14.05947,1.150667 -22.67188,5.433594 -5.31681,2.6440525 -12.81795,7.5815815 -16.66796,10.9726565 -6.63988,5.848271 -7,6.499548 -7,12.650391 0,3.566521 0.50048,6.792422 1.11132,7.169922 0.61081,0.377514 3.17723,-0.717209 5.70313,-2.433594 4.91168,-3.337569 13.62522,-6.639532 21.3457,-8.087891 6.07801,-1.140245 15.83985,1.400616 15.83985,4.123047 0,1.237905 0.64834,1.658187 1.66601,1.080078 0.91669,-0.52072 -0.67233,1.123374 -3.5332,3.654297 -4.62267,4.089525 -5.27047,5.424294 -5.81445,11.984375 -0.6062,7.309633 2.06129,15.818359 4.95898,15.818359 0.66455,10e-7 2.45588,1.751518 3.98047,3.892579 2.0053,2.816163 2.9738,6.756949 3.50195,14.251953 0.83108,11.794176 1.00453,12.244706 5.35938,13.900386 4.65036,1.768081 7.21484,0.26281 7.21484,-4.23437 0,-4.545994 3.48241,-10.478516 6.15234,-10.478516 1.01568,0 1.84766,-0.899999 1.84766,-2 0,-3.423821 2.41164,-2.189308 3.25977,1.667968 0.59705,2.715455 1.66369,3.71501 4.10742,3.857422 3.70537,0.215921 4.33885,-1.80451 1.26953,-4.048828 -1.71292,-1.252497 -1.7656,-2.054941 -0.33399,-5.136718 1.84313,-3.967571 3.60453,-4.565382 6.09766,-2.072266 0.88891,0.888869 1.59961,1.006367 1.59961,0.265625 0,-2.306098 -3.07974,-4.533203 -6.26758,-4.533203 -1.68669,0 -3.0664,-0.598697 -3.0664,-1.332032 0,-2.552432 7.85304,-1.380854 10.61523,1.583985 3.79744,4.076035 3.46046,11.14293 -0.94727,19.833984 -3.86214,7.615339 -13.93155,16.60909 -17.19336,15.35742 -1.29739,-0.49787 -1.80664,0.56181 -1.80664,3.75586 0,3.67701 -0.86629,5.00632 -5,7.67383 -2.74998,1.7746 -7.70193,4.36599 -11.00195,5.75977 -3.30002,1.39377 -6.89997,3.20673 -8,4.02734 -1.09999,0.82061 -3.6822,2.20964 -5.74023,3.08789 -2.05803,0.87825 -3.36485,2.20865 -2.90235,2.95703 0.46254,0.74846 0.34673,1.20246 -0.25781,1.00781 -1.99786,-0.64369 -13.79748,4.49119 -13.06055,5.6836 0.39727,0.64278 -1.63386,2.3707 -4.51367,3.83984 l -5.23633,2.67188 -3.625,-3.36133 c -4.36694,-4.04712 -5.716,-3.39352 -2.65039,1.28516 2.4658,3.76327 2.30395,3.69906 17.32032,6.88671 14.76306,3.13391 17.43347,4.28531 21.98632,9.47071 7.43226,8.46482 7.0305,15.62464 -1.13672,20.21484 -8.15527,4.58351 -20.15099,17.20412 -23.68164,24.91602 -2.93958,6.42084 -4.46001,14.2063 -5.54296,31.07617 -2.10236,-4.26346 -4.25634,-8.10218 -6.31055,-11.08789 -2.10633,-3.06142 -4.2381,-7.30827 -4.73828,-9.4375 -0.81264,-3.45922 -11.21727,-26.58596 -15.83789,-35.20313 -2.64492,-4.93262 -12.85612,-12.27069 -21.66211,-15.5664 -4.25934,-1.59406 -19.44415,-6.62684 -33.74414,-11.18555 -27.93105,-8.90423 -35.24803,-12.74319 -46.61133,-24.45508 -3.26933,-3.36964 -6.79294,-6.12695 -7.83008,-6.12695 -1.57814,0 -1.59618,0.34795 -0.11328,2.13476 3.83255,4.61791 0.58481,27.74919 -7.37695,52.53125 -2.47378,7.7 -8.54686,28.70131 -13.49414,46.66797 -4.94725,17.96667 -12.20091,44.0667 -16.11915,58 -2.92894,10.41541 -6.17633,22.58116 -8.76171,32.54297 -2.17797,-6.09674 -5.35669,-11.94758 -9.08985,-16.46094 -0.5814,-0.70291 -0.95642,-1.27827 -1.46679,-1.92968 0.74333,-8.78641 1.56657,-20.12936 2.23046,-31.48633 1.72199,-29.45654 4.18162,-51.49716 6.79883,-60.91211 0.37652,-1.35443 1.62712,-2.05148 3.15235,-1.75781 1.87835,0.36173 2.31335,-0.0719 1.69336,-1.6875 -0.45895,-1.19604 -1.0531,-1.51851 -1.32032,-0.7168 -0.26725,0.80262 -1.56843,1.17395 -2.89062,0.82812 -5.38401,-1.40795 -6.2319,1.99531 -7.91602,31.75977 -1.18545,20.95132 -3.13546,48.20157 -4.26367,60.66406 -3.3835,-5.03049 -5.01625,-9.77597 -7.38867,-19.72851 -0.4606,-1.93222 -1.23953,-4.41204 -2.11328,-6.99805 -0.40293,-2.61639 -0.85101,-5.78157 -1.13281,-7.45117 -0.68077,-4.03332 -1.59957,-10.33337 -2.04102,-14 -0.44149,-3.66667 -1.14721,-8.16667 -1.56836,-10 -0.42119,-1.83334 -0.88334,-12.93266 -1.02734,-24.66602 -0.14419,-11.73331 -0.9238,-24.63464 -1.73243,-28.66797 -0.80859,-4.03332 -1.82978,-11.23333 -2.26953,-16 -0.73561,-7.97272 -0.63472,-8.45903 1.25977,-6.07812 1.13269,1.42348 2.05859,3.27714 2.05859,4.11914 0,1.50338 8.52036,9.95898 10.03516,9.95898 0.42512,0 2.98167,1.50065 5.67969,3.33399 2.69797,1.83333 4.23839,3.33398 3.42382,3.33398 -2.37354,0 -6.26625,10.95152 -5.92382,16.66602 0.0881,1.46664 0.20458,4.16461 0.25976,5.99609 l 0.0996,3.33008 2.42774,-2.99609 c 1.33458,-1.64818 3.47199,-2.9961 4.75,-2.9961 2.01395,0 1.94122,-0.33231 -0.54688,-2.49023 -1.5789,-1.36936 -2.80184,-3.9187 -2.7168,-5.66602 0.1335,-2.74129 0.24494,-2.81273 0.81055,-0.51172 1.0529,4.28353 3.09995,6 7.15625,6 2.7035,0 3.58997,-0.5365 3.08008,-1.86523 -0.39364,-1.02584 -0.0613,-2.27024 0.74023,-2.76563 0.81351,-0.50275 1.29627,-0.1205 1.0918,0.86524 -0.20152,0.97119 0.38413,1.6169 1.30078,1.43359 0.91669,-0.1833 1.66602,0.83054 1.66602,2.25391 0,1.42341 0.74933,3.01937 1.66601,3.54687 0.91676,0.52755 1.21099,0.45694 0.6543,-0.15625 -0.55673,-0.61315 0.28726,-2.4974 1.875,-4.1875 l 2.88672,-3.07226 -3.71289,-3.69336 c -8.98987,-8.93885 -9.17028,-8.20932 5.63281,-22.68555 12.38615,-12.11267 21.77743,-25.01106 26.75,-36.73633 1.92922,-4.54892 2.06252,-11.14814 0.24805,-12.26953 -2.08649,-1.28953 -1.57508,-5.63171 1.33398,-11.33398 2.699,-5.29043 3.57937,-12.000001 1.57422,-12.000001 -0.6011,0 -2.43161,1.53777 -4.06641,3.417971 -4.16874,4.79446 -7.40663,3.79512 -7.92382,-2.445321 -0.36333,-4.38382 0.0901,-5.2916 3.6582,-7.322261 2.24012,-1.274922 4.07825,-2.884922 4.08203,-3.578125 0.005,-0.693207 1.56616,-2.887075 3.4707,-4.875 3.22031,-3.361142 3.46535,-4.486702 3.48047,-16.072266 0.0211,-16.065241 -2.18778,-27.755719 -6.99609,-37.033203 C 463.51278,19.559378 461.45176,17.234831 452.07419,10.742381 442.39928,4.0441085 429.79336,-0.03231106 418.85934,1.9293642e-4 Z M 226.13083,38.642771 c -0.70534,0 -2.56432,1.800002 -4.13086,4 -1.56677,2.199999 -2.31919,4 -1.67383,4 0.64535,0 2.50235,-1.800001 4.1289,-4 1.62649,-2.199998 2.38116,-4 1.67579,-4 z m 55.86914,19.69336 -3.66602,2.310547 c -8.24852,5.200006 -9.02008,9.784453 -2.73828,16.265625 2.34384,2.418244 4.74254,4.396484 5.33203,4.396484 0.58949,0 1.07227,-5.168651 1.07227,-11.486328 z m 609.64453,4.701172 c -4.34858,0.147259 -9.18726,1.207817 -11.7168,2.865234 -3.36049,2.201881 -5.02963,8.592372 -2.91211,11.152344 0.97769,1.18196 3.05955,1.471115 6.44922,0.898437 5.23276,-0.884061 11.2062,1.195273 9.83008,3.421875 -0.43049,0.696541 -0.0913,1.267578 0.75391,1.267578 0.84529,0 1.84142,-1.168311 2.21484,-2.595703 0.37326,-1.427387 1.5883,-2.777385 2.69922,-3 1.32181,-0.26488 2.19714,-2.373522 2.53125,-6.103515 0.46503,-5.192576 0.18271,-5.826819 -3.15821,-7.117188 -1.65,-0.637282 -4.08225,-0.877418 -6.6914,-0.789062 z m -474.11133,0.166015 c -0.63906,-0.04901 -1.16653,-0.04036 -1.5332,0.0332 -1.46665,0.294278 -4.64388,0.580631 -7.06055,0.636719 -2.79613,0.06492 -5.59198,1.299014 -7.6875,3.394531 -3.05409,3.054093 -3.16341,3.606621 -1.5293,7.611329 1.48196,3.631884 2.80922,4.567366 8.35352,5.882812 3.62543,0.860171 7.09719,1.635538 7.71484,1.722656 0.61765,0.08712 2.64717,-1.043097 4.51172,-2.509765 1.86456,-1.466665 4.47433,-2.666016 5.79883,-2.666016 2.87097,0 3.55897,-0.94961 4.48242,-6.191406 0.65605,-3.72367 0.31129,-4.103312 -5.60937,-6.191406 -2.60187,-0.917626 -5.52423,-1.57563 -7.44141,-1.722657 z m 190.10547,2.583985 c -1.41172,0.08131 -2.66837,0.335848 -3.53711,0.800781 -4.22173,2.25939 -3.42791,7.314061 2.11133,13.445313 2.90747,3.218222 5.64391,5.104106 6.77539,4.669921 1.04398,-0.400622 2.81316,-0.728515 3.93164,-0.728515 1.25854,0 1.74113,-0.760962 1.26562,-2 -0.57687,-1.50336 0.22359,-2 3.22461,-2 3.96764,0 3.98052,-0.0229 2.01172,-3.830078 -1.08979,-2.107027 -1.6042,-4.206376 -1.14453,-4.666016 0.45963,-0.459651 -0.10038,-0.835938 -1.24414,-0.835938 -1.14376,0 -2.40282,-0.840274 -2.79687,-1.867187 -0.73347,-1.911345 -6.36251,-3.232203 -10.59766,-2.988281 z m -349.42969,1.070312 c -2.21804,0.150678 -5.14469,0.759939 -7.40234,1.595703 -3.01025,1.114356 -7.95741,2.66842 -10.99414,3.453125 -5.75804,1.487883 -12.15559,8.06836 -7.84375,8.06836 1.11689,0 2.03125,0.899998 2.03125,2 0,1.348297 1.41267,2.030556 4.33398,2.09375 2.38333,0.05154 5.53336,0.609983 7,1.240234 4.31169,1.852789 7.72085,1.493256 12.29688,-1.296875 4.30439,-2.624492 5.55186,-5.229767 6.08398,-12.703125 0.24937,-3.502375 -0.19426,-4.055645 -3.57422,-4.441406 -0.53078,-0.06058 -1.19229,-0.05999 -1.93164,-0.0098 z m 636.80469,1.060547 c 1.40236,0.08074 2.44321,0.506602 2.72266,1.390625 0.34771,1.100009 0.14753,1.549646 -0.44336,0.998047 -0.5909,-0.551599 -2.02216,-0.184534 -3.18164,0.816406 -2.5163,2.172144 -10.7754,3.940274 -10.7754,2.306641 0,-2.891925 7.47066,-5.753955 11.67774,-5.511719 z m 234.20306,0.238281 -9.9394,3.402344 -9.9395,3.402344 -2.1504,1.880859 -2.1484,1.88086 0.1484,2.927734 0.1485,2.927734 4,1.1875 4,1.1875 4,1.759766 4.0019,1.757813 2.1797,0.08594 2.1797,0.08594 2.3203,-3.541015 2.3203,-3.542969 0.3946,-7.111328 0.3965,-7.109375 -0.9571,-0.591797 z m -710.54095,1.152344 c 2.71332,0 3.94681,2.786951 1.82812,4.128906 -2.39648,1.517881 -6.664,1.484227 -9.125,-0.07227 -1.56499,-0.989809 -1.21487,-1.517755 1.75391,-2.646485 2.03955,-0.775438 4.53402,-1.410156 5.54297,-1.410156 z m 714.20505,0.666016 -0.1055,2.55664 -0.1054,2.554688 0.8066,-0.804688 0.8047,-0.80664 -0.7012,-1.75 z m -519.65622,2.65625 c 0.23906,0.02615 0.50234,0.08979 0.77734,0.195312 1.10003,0.422109 2,1.002789 2,1.291016 0,0.288208 -0.89997,0.52539 -2,0.52539 -1.09999,10e-7 -2,-0.582651 -2,-1.292968 0,-0.532732 0.50547,-0.797208 1.22266,-0.71875 z m -16.95704,0.175781 c -0.58665,-0.362578 -1.0664,1.364002 -1.0664,3.835937 0,2.471936 0.47975,4.196555 1.0664,3.833985 0.5867,-0.362582 1.06641,-2.087212 1.06641,-3.833985 0,-1.746772 -0.47971,-3.473367 -1.06641,-3.835937 z m 259.98438,0.65625 c -2.99463,0.180603 -7.03302,1.238809 -12.28711,3.144531 -11.16321,4.049046 -12.9376,6.106337 -9.7168,11.263672 1.30216,2.085071 3.16355,2.521605 10.64649,2.490234 4.9878,-0.0208 8.74014,-0.569879 8.33789,-1.220703 -0.40222,-0.650823 0.35572,-1.534908 1.68555,-1.96289 6.42444,-2.067613 8.41796,-3.762085 8.41796,-7.160157 0,-4.717145 -2.09292,-6.855693 -7.08398,-6.554687 z m -7.29492,6.5625 c 1.451,-0.03738 2.4226,0.486139 2.05469,1.589844 -0.30048,0.901436 -2.55444,1.719373 -5.00977,1.818359 -4.08231,0.164591 -4.25135,0.02468 -1.97656,-1.638672 1.5511,-1.134179 3.48064,-1.732154 4.93164,-1.769531 z m -178.91406,9.283203 c -1.19335,0 -1.65699,0.781722 -1.18946,2 0.4221,1.100002 0.10279,2.000002 -0.70898,2.000002 -0.81181,0 -1.47656,0.69402 -1.47656,1.54101 0,0.87332 1.15375,0.49357 2.66601,-0.875 3.15303,-2.853407 3.42877,-4.666012 0.70899,-4.666012 z m 401.29486,6.132812 1.4571,1.45898 1.459,1.45899 -0.459,2.259771 -0.4571,2.26171 -1,-1.00781 -1,-1.00781 v -2.712891 z m -871.60541,0.5332 c 0.95267,0 2.39594,1.95066 3.20703,4.333991 2.29603,6.74613 3.3201,14.33398 1.93555,14.33398 -0.68508,0 -1.16222,0.98503 -1.06055,2.18946 0.18633,2.20357 -2.97056,4.32769 -3.34961,2.2539 -0.1118,-0.61111 -0.31839,-1.71002 -0.45898,-2.44336 -0.31265,-1.63033 -3.14299,-8.60342 -4.15821,-10.24609 -0.41132,-0.66554 0.78794,-0.81176 2.70703,-0.33008 3.7344,0.93727 4.97487,-1.587 1.44532,-2.94141 -2.44781,-0.93926 -2.68009,-7.150391 -0.26758,-7.150391 z m 83.3418,3.29883 c -2.93641,0.0704 -7.86026,1.537361 -11.30665,3.816411 -4.83794,3.19923 -4.58379,5.01158 0.64258,4.58398 1.97462,-0.16157 5.85906,0.56827 8.63282,1.6211 6.05824,2.29946 6.21209,5.82562 0.27929,6.40234 -6.57199,0.63882 -22.1689,7.99662 -23.10547,10.90039 h -0.002 c -0.53703,1.66511 -0.15221,1.64732 2.57813,-0.11719 4.44986,-2.87573 15.61006,-6.50586 20.00195,-6.50586 8.19677,0 9.7273,-3.23114 5.88476,-12.42773 -1.09269,-2.61523 -1.63902,-5.66022 -1.21484,-6.76563 0.41803,-1.089341 -0.62878,-1.550061 -2.39062,-1.507811 z m 601.6875,0.871101 c -0.69439,-0.0335 -1.58036,0.50003 -3.2168,1.57226 -1.89645,1.24259 -5.19603,2.25781 -7.33203,2.25781 -4.7774,0 -7.57986,3.44073 -5.70117,7 0.70881,1.34291 13.23768,0.51113 16.32226,-1.08398 4.2508,-2.19812 4.7466,-4.16105 1.99805,-7.91992 -0.87249,-1.19319 -1.37593,-1.7927 -2.07031,-1.82617 z m 31.29101,0.0957 c -0.21193,-0.268861 -0.36952,0.86836 -0.38086,3.06836 h 0.002 c -0.0148,2.93327 0.24439,4.29041 0.57812,3.01562 0.33335,-1.27478 0.34634,-3.67543 0.0273,-5.33398 -0.0797,-0.41464 -0.15591,-0.66038 -0.22656,-0.75 z m 229.0683,1.07422 -5.5449,2.33008 -5.543,2.33007 0.418,1.29688 0.416,1.29687 3.2344,0.9043 3.2344,0.9043 1.5156,0.13281 1.5156,0.13281 0.6602,-4.33398 0.6601,-4.33399 -0.2832,-0.33007 z m -555.83002,2.98633 c -0.48941,0.0259 -0.84424,0.11768 -1.01562,0.28906 -0.49569,0.4957 0.58973,2.06229 2.41211,3.48242 3.45845,2.69508 10.74597,3.0064 11.56836,0.49414 0.46147,-1.40965 -9.53896,-4.44672 -12.96485,-4.26562 z m -193.15234,0.22265 c -1.4626,-0.0615 -3.10099,0.0193 -4.86914,0.25391 -6.71252,0.89044 -6.73253,0.90566 -5.8457,5.04492 0.48937,2.28401 1.15498,4.60235 1.47851,5.15234 0.78569,1.33493 0.49503,1.39492 8.97852,-1.85156 4.09855,-1.56843 7.45312,-3.6467 7.45312,-4.61914 0,-2.34247 -2.80751,-3.79609 -7.19531,-3.98047 z m 715.19726,0.3418 -0.8887,0.88867 -0.8887,0.88867 h 1.7774 1.7793 l -0.8887,-0.88867 z m -421.25,4.79297 3.95704,5.26172 c 2.17674,2.89379 3.75776,5.59847 3.51171,6.00976 -0.24597,0.41133 0.30523,1.21378 1.22657,1.7832 1.30529,0.80675 1.18335,1.78595 -0.55274,4.43555 -3.08666,4.71081 -2.78219,5.77053 0.77344,2.70117 4.17725,-3.60601 11.82799,-8.86756 12.10352,-8.32422 0.12566,0.2479 0.92402,1.70396 1.77343,3.23633 1.3361,2.41036 0.65497,4.11786 -5.05468,12.66602 -17.27796,25.86754 -31.02528,56.37018 -52.52735,116.54687 -6.24544,17.47877 -11.23156,26.33284 -9.45703,16.79297 0.46466,-2.49793 1.74358,-11.49791 2.8418,-20 3.28675,-25.44514 7.78158,-44.82077 10.07031,-43.40625 0.67011,0.4142 0.86055,-0.17831 0.42383,-1.3164 -0.43676,-1.1381 -0.12821,-2.07032 0.68359,-2.07032 0.81181,0 1.47461,-0.84979 1.47461,-1.88867 0,-1.03888 0.68687,-2.1168 1.52539,-2.39648 1.13583,-0.37856 1.12387,-1.25776 -0.0469,-3.44531 -1.90175,-3.55344 -4.63808,-3.92269 -3.54493,-0.47852 0.46553,1.46668 -0.37315,3.92515 -2.08203,6.09766 -4.33084,5.50571 -7.45582,22.86053 -13.2207,73.44531 -0.75216,6.6 -2.33325,14.54938 -3.51367,17.66601 -3.42792,9.05076 -4.79385,6.92089 -3.84961,-6 3.36178,-46.00082 6.08087,-67.16871 9.47851,-73.79101 0.97588,-1.90201 2.18393,-6.55264 2.68555,-10.33399 0.87833,-6.62101 3.23633,-9.68549 3.23633,-4.20703 0,3.27969 3.60319,3.55601 4.32617,0.33203 0.28778,-1.28333 0.0551,-3.66113 -0.51758,-5.28515 -0.57267,-1.62407 -0.51928,-3.27464 0.11719,-3.66797 0.6364,-0.39337 0.86826,-1.81782 0.51563,-3.16602 -0.3526,-1.34823 1.17538,-5.80835 3.39453,-9.91015 2.49913,-4.61942 3.46895,-7.64623 2.54883,-7.95313 -0.81702,-0.27231 -1.69448,-1.66292 -1.94922,-3.08984 -0.5517,-3.08829 2.25688,-12.73449 3.48633,-11.97461 0.47176,0.29151 0.94829,-0.77971 1.06054,-2.37891 0.47773,-6.80621 3.4256,-19.62382 5.01172,-21.79297 0.94473,-1.29199 4.63031,-3.27123 8.18945,-4.39843 5.937,-1.88028 6.6948,-2.61139 9.18555,-8.87305 z m 334.873,3.08398 1.8555,2.53906 1.8555,2.53711 v 2.1875 2.18555 l 3.334,1.7832 3.3339,1.78516 v 2.19141 2.1914 l -3.6679,3.31641 -3.666,3.3164 -2.2403,1.68555 -2.2402,1.6875 -1.4277,-2.66601 -1.4258,-2.66407 v -9.25781 -9.25781 l 2.1445,-1.78125 z m 43.711,1.90039 h 1.334 1.3339 v 1.33203 1.33399 h -1.3339 -1.334 v -1.33399 z m -181.53712,3.15821 c -1.49862,0.069 -2.80644,0.31172 -3.6582,0.76757 -1.44643,0.77409 -3.96238,1.40625 -5.58985,1.40625 -4.4061,0 -17.21484,6.45262 -17.21484,8.67188 0,1.4061 2.43449,0.6562 9.00781,-2.77734 9.21094,-4.81138 17.79034,-6.16898 25.95703,-4.10547 2.81692,0.71172 3.47017,0.49646 2.91016,-0.96289 -0.71036,-1.85108 -6.91626,-3.20716 -11.41211,-3 z m -292.41016,3.18359 c -1.08972,0.011 -1.38867,0.3983 -1.38867,1.16601 0,1.07925 1.49954,1.86241 3.66797,1.91797 2.01668,0.0515 4.86539,0.61 6.33203,1.24024 1.46668,0.63027 3.83756,1.18845 5.26758,1.24023 4.93754,0.17798 0.003,-2.67408 -7.74219,-4.47461 -3.16518,-0.73576 -5.04699,-1.10084 -6.13672,-1.08984 z m 451.28128,0.32422 h 0.666 0.6679 v 0.66601 0.66797 h -0.6679 -0.666 v -0.66797 z m -648.91409,0.19922 c -11.11398,0.0243 -20.59017,2.96209 -18.21289,6.80859 0.38551,0.62358 1.39661,0.83826 2.24609,0.47656 0.84945,-0.36162 4.7525,-1.65457 8.67383,-2.87109 7.46279,-2.31523 9.54638,-2.20547 21.53516,1.12891 4.03234,1.12153 7.48485,1.88428 7.67383,1.69531 1.17962,-1.17959 -5.85813,-5.29504 -10.63477,-6.21875 -3.69009,-0.7136 -7.57659,-1.02762 -11.28125,-1.01953 z m 650.24799,2.46679 h 1.1661 1.166 v 3.33399 3.33398 h -0.2774 -0.2773 l -0.8887,-0.88867 -0.8887,-0.88867 v -2.44531 z m -448.91986,5.33399 c -2.92086,0 -2.98372,0.56323 -0.48243,4.38086 1.49439,2.28083 3.16212,2.92816 7.32618,2.84765 2.96534,-0.0572 5.75393,-0.46484 6.19531,-0.90625 1.03559,-1.03555 -9.86789,-6.32226 -13.03906,-6.32226 z m 444.33986,0.82812 2.3984,0.92188 2.3984,0.91992 2.2246,0.0195 2.2247,0.0176 -2,1.29297 -2,1.29492 -0.6661,-0.0293 -0.6679,-0.0312 -1.9551,-2.20312 z m 0.58,2.72852 0.8887,0.88867 0.8887,0.88867 -0.8887,0.88867 -0.8887,0.88868 v -1.77735 z m 92,0.50976 v 1.71094 1.71289 l -1.7285,2.36328 -1.7265,2.36133 -4.9571,0.46094 -4.957,0.46094 0.7988,-1.29297 0.7989,-1.29297 -1.4825,-1.78711 -1.4824,-1.78516 2.0352,-0.78125 2.0332,-0.77929 1.7695,0.67773 1.7715,0.67969 3.5625,-1.35547 z m -243.04096,0.50782 c 4.40194,-0.0831 9.14076,0.80676 9.4375,2.34765 0.72091,3.74332 -3.26279,6.35999 -7.73242,5.07813 -2.19908,-0.63065 -4,-0.66984 -4,-0.0859 0,0.5839 -3.51074,2.34325 -7.80273,3.9082 -8.50156,3.09982 -12.2035,3.36051 -17.95118,1.26563 -2.49653,-0.90992 -3.50214,-2.02934 -3,-3.33789 0.41553,-1.08261 0.75391,-2.58216 0.75391,-3.33399 0,-0.75193 0.86146,-1.03673 1.91406,-0.63281 1.05264,0.40392 2.13362,0.0737 2.40235,-0.73242 0.26872,-0.80617 2.25791,-1.63632 4.41992,-1.8457 2.162,-0.20931 5.13097,-0.5662 6.59765,-0.79297 1.46669,-0.22666 2.76616,0.12016 2.88672,0.77148 0.30248,1.63219 3.36751,3.44638 5.7793,3.41992 1.65819,-0.0183 1.62008,-0.31215 -0.23242,-1.7207 -2.09008,-1.58914 -2.09008,-1.78554 0,-3.03906 1.36757,-0.82021 3.88618,-1.21969 6.52734,-1.26953 z m 157.90626,0.72461 1.2343,0.76367 1.2325,0.76172 v 5.92187 5.91992 l 1.6679,-0.33203 1.6661,-0.33398 -0.334,1.66601 -0.3321,1.66797 h 1.92 1.9218 l 0.9649,1.5586 0.9629,1.56054 -2.5508,-0.89648 -2.5527,-0.89453 3,2.54883 3,2.55078 v 3.88672 3.88671 l 3,2.73047 3,2.73243 7.7695,5.08984 7.7676,5.0918 2.8984,-1.82618 2.8984,-1.82617 2.7735,-1.45508 2.7734,-1.45312 4.086,-3.43945 4.0878,-3.43946 2.1387,-4.13672 2.1406,-4.13672 v -2.23046 -2.22852 l 1.9668,1.63281 1.9688,1.63282 -0.207,15.53125 -0.2071,15.52929 2.3614,5.25 2.3613,5.25196 -0.1289,11.97656 -0.127,11.97656 -0.5976,6.77149 -0.5996,6.77343 -0.8614,14 -0.8613,14 -0.4727,26 -0.4726,26 -0.061,14.33203 v 0 l -0.061,14.33399 h -2.043 -2.041 l -0.7695,-2.33399 -0.7676,-2.33203 -3.1133,-6.66797 -3.1133,-6.66601 -6.0761,-14.5293 -6.0762,-14.53125 v -3.53711 -3.53515 l -1.2344,-1.26758 -1.2324,-1.26563 1.1348,-6 1.1367,-6 -0.7871,-37.31445 -0.7871,-37.3125 -1.7012,-1.70117 -1.7012,-1.69922 0.9199,5.01367 0.918,5.01367 v 36.55274 36.55273 l -1.334,0.43945 -1.332,0.4375 -6.584,-15.6582 -6.584,-15.6582 -5.2011,-12.66602 -5.2012,-12.66797 -7.1914,-17.83203 -7.1914,-17.83398 0.7265,-1.17578 0.7286,-1.17578 -2.7774,-3.90039 -2.7773,-3.9004 -1.9219,-4.42382 -1.9219,-4.42383 -0.053,3.58789 -0.051,3.58789 1.332,0.82422 1.334,0.82422 v 3.2539 3.25586 h 1.127 1.1289 l -0.1289,5.79883 -0.127,5.79688 -1.625,-2.13086 -1.623,-2.13282 -0.043,-2.46093 -0.043,-2.46094 -1.9511,-6.87305 -1.9532,-6.87109 -0.6621,-5.84961 -0.6621,-5.85156 1.9512,2.51757 1.9512,2.51758 -0.92,-2.66797 -0.9218,-2.66601 -2.0821,-1.76563 -2.082,-1.76562 1.4375,0.70312 1.4375,0.70313 -0.6016,-7.26367 -0.6035,-7.26368 1.6543,-3.99414 1.6543,-3.99218 3.1777,0.79687 3.1758,0.79688 0.02,-1.81055 0.019,-1.81055 1.293,2 1.291,2 0.019,-1.45312 0.02,-1.45313 3.4317,-1.56445 z m 66.4668,2.70117 h 0.6679 0.6661 v 0.66601 0.66797 h -0.6661 -0.6679 v -0.66797 z m -62.666,0.88867 0.7089,0.70898 0.7071,0.70899 0.5488,2.8457 0.5488,2.84766 h -0.3691 -0.3672 l -0.8887,-0.88867 -0.8886,-0.88868 v -2.66601 z m -642.93557,0.125 c 3.88769,-0.0421 7.70255,0.55607 8.47656,1.33008 2.12394,2.12394 -4.23195,5.72847 -9.66797,5.48242 -2.49887,-0.11316 -6.37612,0.23124 -8.61719,0.76562 -3.15224,0.75164 -4.50161,0.41744 -5.95703,-1.47656 -1.0348,-1.34645 -1.35653,-2.00259 -0.71484,-1.45898 0.64169,0.54365 1.97288,0.31871 2.95703,-0.49805 1.31614,-1.09258 1.78906,-1.08911 1.78906,0.0117 0,0.82311 0.54432,1.49609 1.20899,1.49609 0.66463,0 0.89331,-1.19933 0.50976,-2.66601 -0.76018,-2.9068 -0.89065,-2.86803 10.01563,-2.98633 z m 638.93557,0.32031 v 0.66602 0.66601 h 0.666 0.6679 v -0.66601 -0.66602 h -0.6679 z m -340.89846,0.11914 c 0.25324,0.0847 0.21583,0.90668 0.12304,2.54688 -0.43018,7.61129 -0.16649,8 5.43946,8 2.93332,0 5.33398,0.57932 5.33398,1.28711 0,1.67811 -7.93798,10.71289 -9.41211,10.71289 -2.06317,0 -7.87943,6.70267 -8.71875,10.04687 -0.45366,1.80749 -1.34028,3.28711 -1.9707,3.28711 -0.63043,0 -2.04266,1.64934 -3.13672,3.66602 -1.09406,2.0166 -2.02168,3.06729 -2.0625,2.33398 -0.0406,-0.73334 -0.71314,-0.43401 -1.49414,0.66602 -1.04606,1.47314 -1.24539,0.0127 -0.75586,-5.54297 0.65597,-7.44491 9.68424,-28.89329 14.7832,-35.12305 1.07403,-1.31215 1.61785,-1.96551 1.8711,-1.88086 z m -230.21485,6.99414 c 0.94054,0.94058 -1.82356,27.53883 -3.80664,36.625 -1.39173,6.37675 -1.26045,7.65587 1.33594,13 1.91115,3.93377 3.73334,5.92774 5.41992,5.92774 1.39775,0 2.86999,0.85594 3.27149,1.90234 0.40153,1.04636 -0.0286,2.53416 -0.95704,3.30469 -1.2489,1.03646 -2.73647,0.2795 -5.71875,-2.9043 -8.72802,-9.31767 -9.71822,-12.63274 -7.14062,-23.94922 2.03985,-8.95578 5.08469,-23.86773 6.02148,-29.49023 0.47067,-2.82493 1.17873,-4.81151 1.57422,-4.41602 z m -287.20703,1.78125 c 0.81531,0.10746 1.64284,1.7338 2.85547,5.38477 2.20002,6.62358 8.11297,12.75986 18.25586,18.94336 5.49623,3.35085 6.72199,3.47333 5.60351,0.55859 -0.61591,-1.60505 -0.36682,-1.91913 0.90235,-1.13476 1.36085,0.84106 1.55717,0.2172 0.875,-2.78125 -0.70246,-3.08765 -0.59274,-3.39482 0.54297,-1.52539 1.87529,3.08674 8.70043,10.24399 7.30468,7.66015 -0.90145,-1.669 -0.77262,-1.70969 0.78125,-0.24414 1.58786,1.49764 1.51562,2.01282 -0.49218,3.4961 -2.16813,1.60168 -2.03822,1.8707 1.64062,3.39453 2.19757,0.91045 5.35725,1.31248 7.02149,0.89258 5.56407,-1.40395 19.19987,-12.50505 23.41015,-19.0586 6.56875,-10.22472 8.31733,-12.48047 9.67774,-12.48047 1.8644,0 1.50945,18.1397 -0.52344,26.77539 -1.04738,4.4493 -1.51846,11.95543 -1.17188,18.66602 0.4503,8.72201 -0.6326,18.95291 -4.85546,45.89062 -2.98897,19.0667 -6.3106,42.16731 -7.38282,51.33399 -1.07221,9.16668 -2.93504,24.46667 -4.13867,34 -3.08372,24.42413 -3.8417,28.31311 -5.125,26.2832 -3.34915,-5.2978 -12.88435,-37.62104 -13.04687,-44.22656 -0.0999,-4.06405 -0.44235,-6.03006 -0.76172,-4.36914 -0.79098,4.11522 -3.05664,2.39356 -3.05664,-2.32227 0,-2.09559 -0.5277,-4.00937 -1.17188,-4.2539 -3.27719,-1.24358 -32.23196,-89.09165 -35.47461,-107.62891 -0.43461,-2.48436 -1.47715,-5.78303 -2.31836,-7.33203 -2.05727,-3.78818 -2.20601,-33.51273 -0.17773,-35.54102 0.28283,-0.28283 0.5544,-0.41667 0.82617,-0.38086 z m 895.83784,7.06055 1.2403,0.76758 1.2422,0.76758 v 0.36523 0.36524 h -1.9415 -1.9414 l 0.6993,-1.13282 z m -24.1836,8.04492 h 0.6661 0.666 v 0.66602 0.66601 h -0.666 -0.6661 v -0.66601 z m 4,4 h 0.6661 0.666 v 0.66602 0.66601 h -0.666 -0.6661 v -0.66601 z m -151.99408,0.66602 -0.78907,4 c -0.43487,2.20002 -1.39262,5.9751 -2.12695,8.38867 -0.73432,2.41357 -0.88394,5.41291 -0.33398,6.66602 0.54996,1.2531 0.88845,2.77245 0.7539,3.37695 -0.13459,0.60472 0.36961,0.72032 1.1211,0.25586 0.75148,-0.46443 1.36718,-1.3408 1.36718,-1.94727 0,-2.31171 10.95583,-17.38453 12.11524,-16.66797 0.66992,0.41401 1.21875,1.05136 1.21875,1.41797 0,0.36662 -0.7026,0.23336 -1.56055,-0.29687 -1.02482,-0.63338 -1.28891,-0.25779 -0.76953,1.0957 0.43484,1.13318 -0.59378,4.09685 -2.28516,6.58594 -1.69137,2.48908 -3.29377,5.53984 -3.5625,6.77929 -0.26883,1.23946 -3.19021,5.54536 -6.49023,9.56836 -3.29998,4.02297 -6.42268,7.34489 -6.93945,7.37891 -0.51674,0.0356 -1.32266,-1.97808 -1.79102,-4.47461 -0.84794,-4.51994 3.84512,-20.97021 8.21289,-28.79297 z m 118.66018,2 v 0.66601 0.66797 h 0.666 0.6679 v -0.66797 -0.66601 h -0.6679 z m 41.3339,2.66601 h 0.6661 0.666 v 0.66797 0.66602 h -0.666 -0.6661 v -0.66602 z m 5.3321,0 h 0.6679 0.6661 v 0.66797 0.66602 h -0.6661 -0.6679 v -0.66602 z m 5.334,1.33399 h 0.666 0.6679 v 0.66601 0.66797 h -0.6679 -0.666 v -0.66797 z m -583.40432,4.6582 c 0.39834,-0.0397 0.70924,1.37093 0.72851,4.67578 0.0193,3.30002 0.40718,8.24662 0.86133,10.99414 0.79544,4.81236 0.63644,5.07494 -4.34766,7.15039 -2.84553,1.18492 -5.47518,2.58052 -5.84179,3.10157 -0.36666,0.52108 -1.86539,1.35518 -3.33203,1.85351 -2.32037,0.78834 -2.3942,0.68937 -0.56446,-0.76367 10.27847,-8.16253 10.40045,-8.35487 10.70508,-16.79297 0.21869,-6.06023 1.12711,-10.15261 1.79102,-10.21875 z m -11.37305,0.71485 c 0.0386,0.0684 -0.2814,0.53013 -0.94531,1.41601 -0.87345,1.16746 -1.25676,2.45809 -0.84766,2.86719 0.4091,0.40909 0.15719,1.10718 -0.56055,1.55078 -1.96936,1.21712 -0.98567,-2.99057 1.14258,-4.88672 0.77429,-0.68993 1.17239,-1.01566 1.21094,-0.94726 z m 157.23828,0.68554 c 0.67835,0.0393 1.59984,0.55272 2.57422,1.64063 1.76991,1.97612 1.81109,2.86685 0.28711,6.30078 -1.62081,3.65253 -1.78379,3.73156 -1.88281,0.91211 -0.0596,-1.69822 -0.70997,-4.21197 -1.44532,-5.58594 -1.11593,-2.08514 -0.66378,-3.33302 0.4668,-3.26758 z M 186.5859,180.4123 c 0.48124,-0.0114 1.32597,2.41981 2.54297,7.31641 1.33323,5.36443 2.09322,10.61575 1.68946,11.66797 -1.25673,3.275 -3.15024,2.09314 -2.45703,-1.5332 0.36219,-1.89453 -0.0781,-5.67609 -0.97852,-8.4043 -0.90044,-2.72822 -1.42164,-6.4287 -1.1582,-8.22266 0.0801,-0.54583 0.20091,-0.82042 0.36132,-0.82422 z m 899.2383,0.89649 0.8984,2.83398 0.9004,2.83399 -1.5352,-0.94922 -1.5351,-0.94727 -1.9414,1.61133 -1.9414,1.61133 v 3.02734 3.02735 l 1.9023,0.72851 1.9024,0.73047 1.5957,-1.91992 1.5937,-1.92188 h 0.9551 0.957 l 1.4375,3.15821 1.4375,3.15625 -2.2226,2.32617 -2.2246,2.32617 3.0292,-1.81641 3.0293,-1.8164 -0.8007,-3.66602 -0.8028,-3.66601 h 1.3282 1.3281 l -2.8887,-5.32227 -2.8887,-5.32226 -1.7578,-0.0117 z m -7.8203,1.33398 v 1.29102 1.29101 l 2,-0.76757 2,-0.76758 v -0.52344 -0.52344 h -2 z m 5.3339,0 v 0.66602 0.66601 h 0.6661 0.666 v -0.66601 -0.66602 h -0.666 z m -846.00385,0.66602 2.53906,3 c 1.39699,1.65003 2.74715,3 3,3 1.067,0 0.2802,-1.07203 -2.53906,-3.45899 z m -71.20117,2.75195 c 1.9033,-0.0293 5.08425,6.51231 5.95703,14.7207 0.4597,4.32344 1.11448,8.31134 1.45313,8.86133 0.33849,0.55 0.0749,1 -0.58399,1 -0.96521,0 -4.01366,-4.9032 -4.97461,-8 -0.1138,-0.36665 -0.90649,-2.3555 -1.76172,-4.41992 -0.85523,-2.06442 -1.55664,-5.47895 -1.55664,-7.58789 0,-3.18885 0.60166,-4.56091 1.4668,-4.57422 z m 62.35937,0.6875 c -0.0847,-0.1599 -0.60169,0.227 -1.60742,1.05664 -1.22007,1.00649 -2.21875,2.3565 -2.21875,3 0,2.03668 1.18664,1.27254 2.83985,-1.83008 0.72474,-1.36015 1.07102,-2.06666 0.98632,-2.22656 z m 461.21485,0.39844 c 0.14019,-0.14019 0.32624,0.0463 0.53906,0.57812 0.38536,0.9625 0.33757,2.11357 -0.10547,2.55664 -0.44292,0.44304 -0.759,-0.34446 -0.70117,-1.75 0.032,-0.77663 0.12739,-1.24457 0.26758,-1.38476 z m 385.8457,1.93359 -1.5977,3.11524 -1.5957,3.11328 2.4082,-2.30078 2.4102,-2.30274 -0.8125,-0.8125 z m -840.35351,0.99219 c -0.34769,0.005 -0.72826,0.0606 -1.13868,0.16797 -3.64051,0.95206 -4.48713,2.52207 -3.49414,6.47851 1.11349,4.43645 5.76535,4.38597 6.88477,-0.0742 1.05192,-4.19108 0.18188,-6.60845 -2.25195,-6.57227 z m 786.71091,1.23828 2.1758,2.17578 2.1738,2.17383 -0.4082,1.98242 c -0.991,-1.78376 -2.2278,-3.63311 -3.6367,-5.47851 z m -775.43552,2.34375 c -0.17323,0.0732 -0.0464,0.55181 0.30468,1.4668 0.4619,1.2037 1.37442,2.1875 2.0293,2.1875 1.71462,0 1.47379,-0.77122 -0.83984,-2.69141 -0.8489,-0.70452 -1.32091,-1.03613 -1.49414,-0.96289 z m 685.63867,0.39453 c 0.18985,-0.0216 0.29981,0.45157 0.37109,1.39453 l -1.66992,5.19922 -0.39844,1.23828 c -0.5325,-1.24278 -0.24124,-3.87008 0.91992,-6.57226 0.34467,-0.80218 0.59563,-1.23906 0.77735,-1.25977 z m -90.63477,0.59375 c 0.28819,0 0.52344,0.90001 0.52344,2 0,1.1 -0.58069,2 -1.29102,2 -0.71036,0 -0.94553,-0.9 -0.52343,-2 0.42213,-1.09999 1.00263,-2 1.29101,-2 z m -595.125,5.56641 c -0.15716,-0.0318 -0.35798,-0.009 -0.60156,0.0723 -0.87133,0.29046 -1.82301,1.24049 -2.11328,2.11133 -0.79994,2.39985 1.95669,1.89433 2.88672,-0.52929 0.37372,-0.97376 0.29961,-1.55895 -0.17188,-1.6543 z m 54.83203,1.55078 c 0.47813,-0.0924 0.81446,0.1746 0.81446,0.72461 0,0.73334 -0.60065,1.70496 -1.33399,2.1582 -0.73334,0.45321 -1.33203,0.22354 -1.33203,-0.50976 0,-0.73334 0.59869,-1.70497 1.33203,-2.15821 0.18334,-0.1133 0.36016,-0.18405 0.51953,-0.21484 z m -66.61523,4.36328 c -1.28432,-0.49289 -1.64144,6.51747 -1.60742,31.60938 0.0237,17.73358 -0.59853,38.45587 -1.38282,46.04882 -1.08623,10.51631 -1.04682,14.21348 0.16407,15.51954 2.36292,2.54861 3.24075,-9.6478 3.90625,-54.26758 0.44175,-29.62084 0.19717,-38.42003 -1.08008,-38.91016 z m 679.43164,0.51953 c 0.73334,0 1.33398,0.86321 1.33398,1.91992 0,1.05672 -0.60064,2.29286 -1.33398,2.7461 -0.73334,0.4532 -1.33203,-0.41192 -1.33203,-1.92188 0,-1.50996 0.59869,-2.74414 1.33203,-2.74414 z M 1308.6699,339.9748 v 0.66797 0.66602 h 0.666 0.668 v -0.66602 -0.66797 h -0.668 z m -1152.11329,9.49805 c -0.4632,-0.019 -0.99141,0.0652 -1.47266,0.25781 -1.06363,0.42565 -0.74858,0.74277 0.80469,0.80664 1.40568,0.0579 2.19303,-0.25809 1.75,-0.70117 -0.22154,-0.22148 -0.61884,-0.34424 -1.08203,-0.36328 z m 917.61909,8.60352 0.4942,0.0195 -0.3789,1.74804 -0.3809,1.7461 1.3594,1.63672 1.3574,1.63672 h -1.9199 -1.9199 l 0.6875,-1.11133 0.6855,-1.10938 h -0.7891 c 0.3205,-1.38604 0.5693,-2.96515 0.8047,-4.5664 z m -869.6523,1.90039 c 2.61396,0 8.82084,9.16771 14.44141,21.33203 3.21902,6.96665 6.27391,13.47153 6.78906,14.45508 1.27374,2.43182 14.69148,8.09206 19.33985,8.1582 0.0717,10e-4 0.18439,-0.0439 0.25976,-0.0469 -1.6539,2.79536 -3.99733,7.53666 -6.25586,12.62891 -2.28983,-0.13558 -8.50752,-2.46508 -14.43164,-5.4668 -12.60124,-6.3849 -10.05968,-3.27641 4.56641,5.58594 3.44663,2.0884 6.01831,4.06283 7.4668,5.58984 -0.55891,1.61576 -0.79887,3.3725 -0.62305,4.4961 -1.46642,0.5446 -3.67797,0.50891 -6.41016,-0.22656 -5.60568,-1.50902 -4.16652,-0.21331 4.33594,4.13086 -0.78026,0.6884 -1.33398,1.83054 -1.33398,2.91601 0,1.43169 -0.59341,2.23709 -1.31836,1.78906 -0.75568,-0.46711 -0.98075,0.0673 -0.52539,1.25391 0.30593,0.79726 0.26557,1.47316 -0.0254,1.81836 -2.15435,0.87957 -4.91717,1.82334 -6.79883,2.24805 l -4,0.90234 4,3.23633 c 1.9764,1.5988 2.88006,2.52097 2.94726,3.22851 -0.0218,0.12222 -0.0427,0.28757 -0.0644,0.41211 -0.1239,0.28903 -0.3989,0.55588 -0.83789,0.83399 -1.24124,0.78618 -2.57963,0.72 -3.66602,-0.18164 -1.22007,-1.0125 -1.71289,-0.99079 -1.71289,0.0762 0,2.10644 -4.21832,1.8597 -7.49804,-0.4375 -1.51771,-1.06307 -7.50139,-3.81057 -13.29688,-6.10742 -10.72637,-4.25106 -19.50542,-8.97224 -20.32422,-10.92969 -0.2496,-0.59667 -2.23131,-2.00425 -4.40234,-3.12695 -3.12975,-1.61817 -3.77161,-2.64946 -3.10547,-4.97266 0.46216,-1.61189 1.15594,-4.05451 1.54297,-5.42969 0.42648,-1.51532 0.16255,-2.16681 -0.66992,-1.65234 -0.75549,0.46692 -1.7541,2.57972 -2.21875,4.69531 -0.46466,2.11552 -2.00719,4.90012 -3.42969,6.1875 -2.07285,1.87589 -2.26678,2.72662 -0.97656,4.28125 0.88546,1.06692 2.24953,3.22101 3.03125,4.78906 0.79313,1.59088 3.1388,3.14971 5.30859,3.52539 2.13865,0.37044 3.74568,1.27451 3.57031,2.00782 -0.48941,2.04434 -7.83809,1.20744 -11.71679,-1.33399 -3.10243,-2.03282 -3.39295,-2.90718 -2.80274,-8.46679 1.14765,-10.81134 8.6572,-28.91128 14.78906,-35.64844 5.2927,-5.81507 5.96975,-6.13386 15.51563,-7.31836 7.9268,-0.98359 11.45541,-0.81152 17.14258,0.8418 3.93887,1.14512 7.49816,1.74793 7.9082,1.33789 0.41008,-0.40997 0.0599,-0.7461 -0.77734,-0.7461 -0.96537,0 -1.2418,-1.40232 -0.75586,-3.83203 0.57414,-2.87063 0.10983,-4.29083 -1.85352,-5.66601 -2.59192,-1.8155 -2.98047,-2.49758 -2.98047,-5.24805 0,-0.77654 -0.56171,-1.06406 -1.25,-0.63867 -0.68825,0.42534 -1.82161,-0.24463 -2.51758,-1.48828 -1.47481,-2.63536 -5.54543,-3.60886 -5.60742,-1.3418 -0.0605,2.20872 -3.95703,-3.23611 -3.95703,-5.5293 0,-1.27181 0.92172,-1.65966 2.78711,-1.17187 2.40008,0.62763 2.67473,0.2778 1.97461,-2.51172 -0.44727,-1.78209 -0.25436,-3.23828 0.42773,-3.23828 z m -40.13281,4.41601 c 0.96147,-0.0847 1.85507,-0.009 2.52539,0.28125 2.26394,0.98136 2.24642,1.08465 -0.25,1.63672 -1.46668,0.32436 -3.23496,1.13279 -3.93164,1.79492 -1.7125,1.62769 -4.73437,1.52664 -4.73437,-0.1582 0,-1.61011 3.50622,-3.30057 6.39062,-3.55469 z m 41.60938,0.91602 c -0.0688,0.0688 0.33481,0.60863 1.16406,1.66601 1.74183,2.22101 2.83594,2.92747 2.83594,1.83008 0,-0.27689 -1.05065,-1.32558 -2.33399,-2.33203 -1.05736,-0.82925 -1.59719,-1.23288 -1.66601,-1.16406 z m -102.33399,0.60351 c -0.13072,-0.0101 -0.28197,0.0314 -0.44922,0.13477 -0.66893,0.4134 -1.21679,1.71754 -1.21679,2.89648 0,2.52675 1.72549,1.1753 2.14453,-1.67968 0.11911,-0.81168 -0.0864,-1.32135 -0.47852,-1.35157 z m 1042.23042,2.0625 h 2.6856 2.6836 l 6.0351,2.9336 6.0352,2.93164 v 1.1875 1.1875 l 3,2.43164 3,2.43164 -0.666,0.59766 -0.666,0.59765 -21.0196,10.91797 -21.0215,10.91602 -1.3125,-0.81055 -1.3144,-0.8125 v -2.01172 -2.01172 l -4.2402,3.01953 -4.2403,3.01953 1.1035,-1.92968 1.1016,-1.92774 -1.4941,1.36524 -1.4961,1.36718 -8.3672,-0.85742 -8.3672,-0.85742 -7,-1.98047 -7,-1.98047 v 0.97657 0.97656 l 4.334,1.60351 4.334,1.60157 6.2968,2.89257 6.2989,2.89258 0.7324,1.85742 0.7344,1.85743 -0.5176,0.51757 -0.5176,0.51758 -2.9082,0.5586 -2.9063,0.56054 -1.9336,-0.74023 -1.9316,-0.74219 0.666,-1.07617 0.666,-1.07813 -2.3398,0.37696 -2.3398,0.37695 -1.334,-0.7793 -1.334,-0.77929 -4.666,-0.2461 -4.666,-0.24609 -5.334,-0.88281 -5.334,-0.88477 -5.6543,-0.25 -5.6543,-0.25195 -0.092,1.31055 -0.09,1.31054 6.0957,1.55664 6.0976,1.55469 8.9824,0.89453 8.9825,0.89258 4.666,0.4668 4.666,0.46679 9.9707,2.1875 9.9707,2.1875 0.291,0.29102 0.291,0.29101 -1.0742,1.73633 -1.0723,1.73633 -6.5214,0.51953 -6.5215,0.51758 -3.334,0.54492 -3.332,0.54688 -2.668,-1.69141 -2.666,-1.69141 -10.666,-1.65429 -10.668,-1.65625 -2.7617,-0.25 -2.7637,-0.25196 -2.6582,-1.9082 -2.6582,-1.9082 -0.8828,-2.36524 -0.8828,-2.36523 -3.0293,-1.17969 -3.0293,-1.17773 -4.2657,4.54297 -4.2656,4.54492 h -1.4004 -1.4023 v -1.05274 -1.05468 l 1.9902,-7.63477 1.9883,-7.63672 3.4922,-6.97656 3.4687,-6.93359 c 4.7309,-2.50442 8.4831,-4.71172 11.5039,-6.84766 l 5.8731,-0.88086 7.2832,1.74805 7.2812,1.74609 1.1563,-1.86719 1.1543,-1.86718 0.8066,2.10546 0.8086,2.10547 4.9297,1.41797 4.9317,1.41797 5.4882,1.43945 5.4864,1.4375 h 2.5839 2.5821 l 11.8125,-7.41601 11.8144,-7.41797 5.0625,-2.58203 z m -843.88667,3.20118 c -0.24761,0.65012 -0.45406,1.20356 -0.81836,2.13281 -1.29373,3.29998 -3.81199,8.70002 -5.5957,12 -1.78371,3.30002 -4.15655,6.9 -5.27344,8 -1.11643,1.09999 -1.61091,1.25063 -1.09765,0.33398 0.521,-0.93055 0.21821,-1.66797 -0.68555,-1.66797 -1.05498,0 -0.85033,-0.84828 0.58789,-2.4375 1.21364,-1.34105 2.20703,-3.10621 2.20703,-3.92187 0,-0.81566 0.7026,-1.91704 1.56055,-2.44727 1.05838,-0.65412 1.27733,-0.22807 0.68164,1.32422 -0.5404,1.40961 -0.35055,1.96344 0.49414,1.44141 0.7547,-0.46647 1.01537,-1.97224 0.58008,-3.34375 -0.66499,-2.09516 1.15802,-6.02614 4.49023,-10.23047 0.93926,-0.38323 2.01218,-0.84153 2.86914,-1.18359 z m 1025.32617,0.79882 v 0.66797 0.66602 h 0.668 0.666 v -0.66602 -0.66797 h -0.666 z M 187.10739,372.01 c 2.3999,-0.12845 6.02111,0.68603 8.26367,2.2207 4.36324,2.98583 5.09714,4.21863 4.31055,7.22657 -0.36231,1.38549 -1.2542,2.51757 -1.98047,2.51757 -0.72635,0 -0.9963,-0.84043 -0.60156,-1.86914 1.2314,-3.20893 -2.38601,-6.44567 -7.67383,-6.86523 -4.68571,-0.37179 -4.98969,-0.17529 -4.41406,2.83594 0.73088,3.82337 -0.0536,4.10574 -2.48829,0.89843 -2.33642,-3.07793 -2.29612,-4.33203 0.14258,-4.33203 1.1,0 2,-0.60068 2,-1.33398 0,-0.80481 1.00147,-1.22176 2.44141,-1.29883 z m 19.82422,0.4082 c 0.15794,0.13157 0.2066,1.17176 0.26953,3.22461 0.0731,2.38337 -0.40372,4.33203 -1.0586,4.33203 -1.42238,0 -3.16992,-4.08203 -2.17382,-5.07812 0.38392,-0.38393 0.75908,0.15057 0.83203,1.18945 0.0731,1.03888 0.61207,0.38998 1.19922,-1.44336 0.50572,-1.5791 0.7737,-2.35618 0.93164,-2.22461 z m 245.0332,1.05078 c 1.64336,-0.0693 3.42266,-0.0187 5.63477,0.0879 11.17402,0.5385 14.97122,2.72958 19.86718,11.45507 3.66675,6.53477 4.08036,11.23974 1.19922,13.63086 -2.48334,2.06102 -2.62738,4.52688 -0.21094,3.59961 2.84323,-1.09103 5.3869,0.9959 3.2754,2.6875 -2.95174,2.36478 -7.73047,3.38362 -7.73047,1.64844 0,-1.10306 -0.90097,-0.99192 -3,0.37109 -4.82574,3.13357 -18.96109,7.58624 -27.13477,8.54688 -5.34066,0.6277 -7.72076,1.52375 -8.12109,3.05469 -0.41745,1.5962 -2.12432,2.15341 -6.49024,2.12695 -3.2578,-0.0203 -5.92259,-0.48516 -5.92187,-1.03516 6.8e-4,-0.54999 0.002,-1.58308 0.002,-2.29492 0,-1.40716 9.88248,-6.15588 21,-10.08984 3.85002,-1.36233 7,-3.03631 7,-3.72071 0,-1.41864 -5.36985,-0.56171 -16,2.55274 -12.46193,3.65114 -13.33398,3.74178 -13.33398,1.375 0,-1.18553 0.80909,-2.15625 1.79687,-2.15625 0.98778,0 3.00149,-1.05065 4.47656,-2.33399 10.55415,-9.1824 13.99572,-12.33203 13.47071,-12.33203 -1.87692,0 -14.91616,4.78197 -22.13672,8.11914 -4.61628,2.13358 -9.19265,3.88086 -10.16992,3.88086 -3.23637,0 -5.4375,4.32377 -5.4375,10.68555 0,5.48666 0.53246,6.67953 4.21875,9.46289 2.31964,1.75143 4.22001,4.08356 4.22265,5.18359 0.003,1.1 1.53617,7.4 3.40821,14 3.96132,13.966 3.96493,14 1.92773,14 -0.8555,0 -1.15356,-0.40112 -0.66211,-0.89257 0.49145,-0.49149 -10e-4,-2.25959 -1.0957,-3.92969 -1.09433,-1.6701 -1.6222,-3.99367 -1.17383,-5.16211 0.44837,-1.1684 0.25893,-1.94949 -0.42187,-1.73633 -1.75106,0.54864 -8.41402,-6.90197 -8.47071,-9.47266 -0.13916,-6.29907 -7.76998,-12.47951 -14.01172,-11.34765 -2.06271,0.37402 -4.8452,-0.38149 -7.01367,-1.9043 -1.97684,-1.38818 -6.52623,-3.80735 -10.10937,-5.37695 -1.65558,-0.72523 -3.83922,-1.8793 -6.06641,-3.1543 1.86942,-1.19886 4.19721,-2.52848 7.60547,-4.25586 4.54409,-2.30305 8.0727,-4.41229 11.74805,-7.17187 0.51523,0.31841 1.08013,0.70252 1.50586,0.92187 2.49199,1.28398 3.16769,1.09741 4.40624,-1.2168 0.72452,-1.35371 0.95713,-3.52998 0.62696,-5.14062 1.33999,-1.20613 2.91415,-2.72293 4.45312,-4.19336 0.14092,0.75127 0.23633,1.45303 0.23633,2.04688 0,2.53096 1.87315,2.54999 3.95703,0.0391 0.88936,-1.07157 2.91229,-2.3505 4.4961,-2.8418 1.58377,-0.49126 4.47457,-2.01625 6.42382,-3.38867 1.9493,-1.37238 10.34864,-5.24278 18.66602,-8.59961 10.45502,-4.21914 14.15783,-5.52054 19.08789,-5.72852 z m -310,0.89063 c 0.25162,0.0497 0.0936,0.81752 -0.54883,2.39844 -0.57044,1.40368 -2.22869,6.15077 -3.68554,10.55078 -1.45686,4.40001 -3.58267,10.08358 -4.72461,12.6289 -1.14195,2.54529 -2.18936,6.14531 -2.32618,8 -0.13689,1.85473 -0.67329,4.32817 -1.19335,5.49805 -0.52007,1.16984 -0.66381,3.68557 -0.31836,5.58984 0.34529,1.90432 -0.15093,6.81611 -1.10352,10.91407 -0.95259,4.09795 -1.58332,10.88165 -1.40039,15.07617 0.38434,8.80842 -0.9634,12.50308 -2.05273,5.62695 l -0.73829,-4.66601 -0.65039,4.83984 c -0.51435,3.83274 -0.22444,4.76961 1.39649,4.50391 1.12581,-0.18448 2.94688,0.33765 4.04687,1.16015 1.67312,1.25103 1.73992,1.15854 0.40235,-0.56054 -1.29404,-1.66315 -1.10339,-2.36413 1,-3.67774 1.42938,-0.89265 2.59765,-2.51753 2.59765,-3.61133 0,-1.09379 0.60065,-1.98828 1.33399,-1.98828 0.7333,0 1.33398,0.81923 1.33398,1.82031 0,1.00113 1.09761,3.2511 2.43945,5 3.95543,5.15532 4.17058,7.22958 1.10743,10.70508 -1.58381,1.79698 -2.3566,2.48842 -1.7168,1.53711 0.84227,-1.25231 0.32126,-1.72851 -1.88867,-1.72851 -1.67868,0 -2.65067,0.40011 -2.16016,0.89062 0.49047,0.49051 -0.10309,1.99116 -1.31836,3.33399 -1.21497,1.34286 -1.75101,2.4414 -1.18945,2.4414 0.56156,0 -0.3957,1.23818 -2.12695,2.75196 -2.16004,1.88874 -2.62416,2.97037 -1.48047,3.44531 0.91668,0.38063 1.66601,1.12094 1.66601,1.64648 h 0.002 c 0,0.52555 -1.40023,0.95504 -3.11133,0.95508 -1.71111,0 -3.11133,-0.75276 -3.11133,-1.67383 0,-0.92122 0.37943,-1.43921 0.84375,-1.15234 0.46435,0.28698 1.53747,-0.58861 2.38477,-1.94531 1.20343,-1.92696 1.13312,-2.80614 -0.32422,-4.01563 -1.44613,-1.20019 -1.53887,-2.2653 -0.41211,-4.73828 0.79948,-1.75465 2.02998,-2.8338 2.73437,-2.39844 0.77261,0.47751 0.6686,1.16846 -0.25976,1.74219 -1.08348,0.66966 -0.85306,1.50862 0.77539,2.83398 2.04094,1.66107 2.21157,1.61637 1.46289,-0.38281 -0.63742,-1.70226 -0.28407,-2.08538 1.41797,-1.54101 1.71609,0.54882 1.83317,0.41492 0.48437,-0.55078 -0.97931,-0.70118 -1.72875,-1.65898 -1.66601,-2.12696 0.42342,-3.16388 -0.0439,-4.00154 -1.21875,-2.18359 -0.71086,1.10018 -1.30312,1.4454 -1.31446,0.76758 -0.0112,-0.67786 -1.61676,0.22214 -3.56836,2 -1.95159,1.77773 -3.22903,2.63178 -2.83789,1.89843 0.39115,-0.73334 -0.3256,-2.39785 -1.59375,-3.69922 -2.173,-2.22969 -2.41192,-2.23303 -4.16211,-0.082 -1.65713,2.0366 -1.57096,2.18191 0.8086,1.36133 2.44426,-0.84287 2.47706,-0.77102 0.38086,0.86328 -1.80764,1.40931 -1.94867,2.14498 -0.66797,3.50977 0.89113,0.94968 -0.0531,0.66426 -2.09961,-0.63477 -5.55235,-3.52456 -6.94327,-6.86781 -3.60156,-8.65625 1.49113,-0.79797 3.39939,-1.0248 4.24218,-0.5039 1.03208,0.63787 1.24225,0.18689 0.64063,-1.38086 -0.4913,-1.28032 -0.89453,-3.51487 -0.89453,-4.96485 0,-1.44979 -0.59869,-2.26378 -1.33203,-1.81054 -2.25876,1.396 -1.47238,-0.92666 1,-2.95313 1.28333,-1.0532 1.58266,-1.53267 0.66601,-1.06836 -0.99092,0.50196 -1.66601,-0.0217 -1.66601,-1.29101 0,-4.51412 4.28149,-22.7103 5.44336,-23.13282 0.67215,-0.24446 1.22265,-1.62928 1.22265,-3.07812 0,-1.44888 0.60064,-2.26375 1.33399,-1.81055 1.45912,0.90187 1.72321,-0.44959 1.36718,-6.97461 -0.17469,-3.20073 2.03462,-8.07591 8.5918,-18.95898 6.13843,-10.18806 10.58302,-16.4987 11.33789,-16.34961 z m 170.67383,0.44922 c 0.6648,-0.0178 1.38402,0.01 2.16797,0.0742 l 5.19336,0.42578 -4.9336,2.45312 c -2.71347,1.3496 -6.47094,4.47189 -8.35156,6.9375 -0.68241,0.89469 -1.35532,1.93771 -2.01562,2.95117 -1.09655,0.59579 -2.12,1.08904 -2.9336,1.36524 0.36978,-1.29977 0.79383,-2.68547 1.32422,-4.08203 2.90501,-7.64909 4.89523,-10.00067 9.54883,-10.125 z m -29.50977,3.91211 c -0.49437,0.76463 -1.06766,1.2539 -1.59961,1.2539 -1.0289,0 -2.81191,1.35001 -3.96289,3 l -2.09179,3 -0.0703,-3.45117 c -0.008,-0.40322 0.0912,-0.88775 0.20508,-1.38086 2.26335,-0.63902 4.80581,-1.46135 7.51953,-2.42187 z m -131.16406,1.75976 c 1.36093,0.21932 0.78092,2.01889 -2.06445,4.92969 -2.17142,2.2213 -4.66097,6.70751 -5.53321,9.96875 -0.87227,3.26124 -2.06132,5.92969 -2.64257,5.92969 -1.42613,0 -1.33036,-2.59338 0.39257,-10.62695 1.15858,-5.40242 2.23496,-7.16532 5.3711,-8.78711 2.14452,-1.10897 3.66,-1.54566 4.47656,-1.41407 z m 1162.03909,0.38477 v 1.77734 1.77735 l 0.8886,-0.88868 0.8887,-0.88867 -0.8887,-0.88867 z m 6.2421,0.68945 -1.789,0.6875 -1.7871,0.68555 v 1.00586 1.00586 l 3.457,-0.66016 3.4551,-0.66211 -1.668,-1.03125 z m -16.7675,4.23633 0.6035,0.97852 0.6054,0.97851 -1.6757,0.71289 -1.6758,0.71485 4.6269,-0.66993 4.627,-0.67187 0.4355,-0.43555 0.4356,-0.43555 -3.9922,-0.58593 z m -1028.67189,0.85156 c 1.03219,0 1.45537,0.83874 1.00976,2 -0.42209,1.1 -1.3041,2 -1.95898,2 -0.65488,0 -1.18945,1.18092 -1.18945,2.625 0,1.56725 -0.66082,3.56971 -2.87891,8.34766 -2.71795,0.62765 -3.98993,2.29128 -3.25977,4.5918 0.14373,0.45281 0.32543,0.7952 0.53711,1.0957 -0.79836,1.63023 -1.47553,3.03109 -2.51953,5.13281 -0.40818,0.82173 -0.73974,1.6359 -1.02344,2.42188 -0.66421,0.0927 -1.29748,0.15252 -1.85742,0.15429 -4.14897,0.0144 -4.37503,0.58125 -1.66601,4.16016 0.19452,0.25698 0.2513,0.46961 0.40039,0.71289 -0.21078,0.26763 -0.39967,0.58792 -0.53516,1.00586 -0.3066,0.94574 -0.71674,2.03915 -1.08398,3.07617 -0.0362,6.8e-4 -0.0627,0.01 -0.0996,0.01 -1.00573,0 -2.02153,-1.3013 -2.25586,-2.89063 -0.0865,-0.58658 -0.2528,-1.05306 -0.47852,-1.45312 2.68441,-5.11946 5.43365,-10.12549 7.42969,-13.1543 2.71767,-4.12384 6.00114,-10.27512 7.29688,-13.66797 1.29573,-3.39281 3.15542,-6.16797 4.13281,-6.16797 z m 1043.86329,0.041 -2,1.29101 -2,1.29297 h 1.334 1.332 l 2,-1.29297 2,-1.29101 h -1.332 z m -696.59376,0.21484 c 0.0175,5.40056 0.2873,11.53626 0.83203,18.41016 0.49398,6.23331 0.6003,9.98251 0.23633,8.33203 -0.59203,-2.68464 -1.2192,-2.912 -5.94531,-2.15625 -5.78967,0.92564 -6.11975,0.93877 -18.19727,0.67383 -8.39267,-0.1841 -10.88959,-1.87124 -5.33398,-3.60547 1.65002,-0.51508 4.4316,-2.35745 6.18164,-4.0918 2.49681,-2.4745 2.64488,-3.40491 0.70507,-3.38086 1.0878,-0.61713 2.24633,-1.30357 3.25977,-1.86719 8.01143,-4.45551 13.17269,-7.82753 18.26172,-12.31445 z m -310.84961,1.17578 c 0.78033,0.0767 1.89568,0.86063 3.23437,2.33985 1.92475,2.12682 2.57036,4.15535 2.08399,5.75195 -0.37583,0.28381 -0.73877,0.57261 -1.05078,0.87109 -1.01125,0.96722 -2.62205,1.4576 -3.58008,1.08985 -0.95807,-0.36767 -1.92961,-0.25099 -2.16016,0.25781 -0.14505,0.31989 -0.78374,0.82446 -1.60742,1.38867 -4.42992,0.32068 -4.65553,-1.28783 -0.8125,-5.13086 1.46668,-1.46668 2.66602,-3.56797 2.66602,-4.66797 0,-1.34766 0.44622,-1.97708 1.22656,-1.90039 z m 994.77737,2.56836 v 0.66602 0.66601 h 0.666 0.666 v -0.66601 -0.66602 h -0.666 z M 285.96872,393.6506 c 0.50441,0.0621 1.12982,0.56538 2.10156,1.53711 v 0.002 c 0.14145,0.14145 0.19547,0.22297 0.31836,0.34961 -1.32741,0.58279 -2.2135,0.9701 -3.61914,1.58789 -0.0211,-0.009 -0.0393,-0.0337 -0.0606,-0.041 -0.7686,-0.26472 -0.81571,-1.20475 -0.11914,-2.32617 0.4917,-0.79157 0.87449,-1.17147 1.37891,-1.10938 z m -136.4336,1.12696 c 0.89948,-0.29577 2.38718,1.13383 3.92188,4.10156 2.06063,3.9851 2.04754,4.34143 -0.2207,6 -3.32436,2.43084 -7.88169,2.2084 -10.07227,-0.49219 -1.0066,-1.24093 -1.12929,-1.83658 -0.27149,-1.32226 2.03732,1.22158 5.7754,-2.56534 5.7754,-5.85157 0,-1.46046 0.3275,-2.25808 0.86718,-2.43554 z m 319.64844,0.3457 c -0.15607,0.0106 -0.33641,0.074 -0.53906,0.19922 -0.7454,0.46069 -2.99545,1.11404 -5,1.45117 -5.16987,0.86944 -6.97656,1.62125 -6.97656,2.90039 0,1.89971 10.98747,1.93312 12.1914,0.0352 1.3567,-2.13883 1.41675,-4.66028 0.32422,-4.58594 z m -361.48242,1.00391 c -0.0699,0.0699 0.22792,0.72273 0.8457,2.00586 0.74816,1.55353 0.98069,3.2049 0.51758,3.66797 -0.46299,0.4631 -0.51631,0.84179 -0.11719,0.84179 0.39908,0 1.52946,-1.05064 2.51172,-2.33398 0.98222,-1.28338 1.26553,-1.8921 0.62891,-1.35352 -0.63666,0.53862 -1.99964,-0.0621 -3.0293,-1.33398 -0.85037,-1.05052 -1.28756,-1.56401 -1.35742,-1.49414 z m 922.30276,0.28515 v 0.14258 2.08789 h -3.2559 -1.0645 c 1.163,-0.63162 2.9592,-1.51475 4.3204,-2.23047 z m -636.75784,0.92188 c 0.36493,1.04201 0.41924,2.1067 0.082,2.65234 -1.22903,1.98856 -3.28269,1.56979 -2.92187,-0.29101 0.92404,-0.74827 1.85398,-1.49956 2.83984,-2.36133 z m 223.46289,3.12109 c -0.4699,0.0317 -1.03422,0.12266 -1.70703,0.26953 -6.04535,1.31974 -11,3.49498 -11,4.82813 0,0.73497 2.61713,0.87257 6.33203,0.33398 7.54269,-1.0936 8.33399,-1.47434 8.33399,-4.01562 0,-1.07175 -0.54928,-1.51116 -1.95899,-1.41602 z m -300.10351,1.01563 c 0.0238,0.13896 0.0625,0.26133 0.0625,0.42578 0,2.34202 -0.8004,2.68729 -1.94336,0.83789 -0.0417,-0.0675 -0.0477,-0.14509 -0.0762,-0.2168 0.77348,-0.39814 1.25005,-0.67444 1.95704,-1.04687 z m 88.14062,1.17187 c -0.77662,0 -1.41211,0.59873 -1.41211,1.33203 0,0.73335 0.26436,1.33399 0.58789,1.33399 0.32342,0 0.95887,-0.60064 1.41211,-1.33399 0.45324,-0.7333 0.18873,-1.33203 -0.58789,-1.33203 z m 716.08204,0 h 0.666 0.666 l -0.8223,1.33203 -0.8242,1.33399 h -0.6679 -0.6661 l 0.8243,-1.33399 z m -783.12306,0.18946 c 0.18492,0.13297 0.28532,0.98308 0.2754,2.58789 -0.01,1.57071 -0.49045,3.54799 -1.09961,4.7539 -0.32046,-0.0384 -0.61019,-0.0405 -0.92383,-0.0664 0.0304,-0.55146 0.0287,-1.00115 0.23633,-2.13282 0.6595,-3.594 1.20352,-5.3642 1.51171,-5.14257 z m -226.04687,0.46093 c -0.0659,-0.0714 -0.22256,-0.0358 -0.47656,0.12305 -1.01602,0.6353 -2.59156,1.17251 -3.5,1.19141 -0.90849,0.0194 -1.71833,0.63384 -1.79883,1.36718 -0.0805,0.73335 -0.7009,2.3699 -1.37891,3.63672 -2.05995,3.84911 2.02228,1.44492 5.47461,-3.22461 1.25816,-1.70175 1.87745,-2.87946 1.67969,-3.09375 z m 44.20703,4.51758 c 0.46009,-0.13082 0.80078,0.22197 0.80078,1.24414 0,0.59316 -0.84237,2.23105 -1.87304,3.64063 -1.75284,2.39716 -1.82884,2.32783 -1.17774,-1.07813 0.38795,-2.02939 1.48319,-3.58861 2.25,-3.80664 z m 657.50781,2.10352 c 0.34282,0.1487 0.86289,0.50319 1.73438,1.26758 1.59273,1.39683 2.89453,1.89124 2.89453,1.09765 0,-1.58895 7.85481,-1.03664 9.41602,0.66211 1.08415,1.17967 5.25195,17.49846 5.25195,20.56445 0,1.11428 -0.87365,2.02539 -1.94141,2.02539 -1.06775,0 -1.56995,-0.60213 -1.11523,-1.33789 0.48506,-0.78485 -0.0504,-1.00098 -1.29492,-0.52343 -2.87883,1.10471 -4.47581,-1.47435 -4.15039,-6.70118 0.17374,-2.7911 -0.23886,-4.02669 -1.1543,-3.46093 -0.84076,0.51961 -1.03257,0.24893 -0.4707,-0.66016 0.52312,-0.84665 0.48083,-2.28839 -0.0918,-3.20508 -0.57268,-0.91665 -1.16163,-2.47314 -1.31055,-3.45703 -0.14895,-0.98385 -0.63005,-2.14571 -1.06836,-2.58398 -1.17139,-1.17143 -0.1928,4.03798 1.19727,6.37304 0.72892,1.22442 0.0678,1.01595 -1.70508,-0.53906 -1.59273,-1.39684 -2.90468,-1.99763 -2.91602,-1.33398 -0.0112,0.66364 -0.6016,0.30702 -1.3125,-0.79297 -1.14875,-1.77778 -1.30508,-1.77778 -1.39843,0 -0.0344,0.65526 -0.27178,0.6257 -0.58203,0.26172 l 0.0137,-6.40235 c 0.002,-0.005 -10e-4,-0.0151 0,-0.0215 z m 235.29689,2.06054 h 0.6679 0.6661 v 0.66797 0.66602 h -0.6661 -0.6679 v -0.66602 z m -681.88087,2.33789 c 0.54007,0.40793 0.97535,0.77776 1.52148,1.18165 11.0126,8.1442 12.09911,10.78712 4.68946,11.40039 l -5,0.41406 8.66797,3.13672 c 4.76662,1.72509 10.16666,4.09409 12,5.26367 l 3.33203,2.125 -3.33203,0.9375 c -5.23216,1.47144 -13.08805,1.34571 -14.0586,-0.22461 -0.53287,-0.86241 -2.86148,-1.09181 -5.8789,-0.58203 -0.55884,0.0944 -0.97425,0.10637 -1.44922,0.15625 -0.24827,-1.03082 -0.40859,-1.88105 -0.70313,-3.03516 -2.0205,-7.91694 -3.17206,-15.22943 -2.69531,-17.1289 0.29866,-1.18994 1.19102,-2.32284 2.90625,-3.64454 z m -170.12305,0.33008 c -0.73334,0 -1.33203,0.60068 -1.33203,1.33399 0,0.73334 0.59869,1.33203 1.33203,1.33203 0.73331,0 1.33399,-0.59869 1.33399,-1.33203 0,-0.73331 -0.60068,-1.33399 -1.33399,-1.33399 z m 7.37696,0 c -1.19335,0 -1.6589,0.78171 -1.19141,2 0.42213,1.1 1.30215,2 1.95703,2 0.65484,0 1.19141,-0.9 1.19141,-2 0,-1.10003 -0.88002,-2 -1.95703,-2 z m 844.62696,0 h 0.6679 0.6661 v 0.66602 0.66601 h -0.6661 -0.6679 v -0.66601 z m -946.57228,0.47071 c -2.983713,0.12196 -3.571253,0.5553 -2.501953,1.84375 1.702373,2.05133 3.738283,2.20046 3.738283,0.27343 0,-0.77658 0.59869,-1.04109 1.33203,-0.58789 0.73334,0.45324 1.33399,0.25738 1.33399,-0.43359 0,-0.69097 -1.75644,-1.18339 -3.90235,-1.0957 z m 98.05078,0.0391 c -0.47812,0.0212 -0.81445,0.55466 -0.81445,1.41211 0,1.14327 0.59869,2.07812 1.33203,2.07812 0.73334,0 1.33399,-0.56384 1.33399,-1.2539 0,-0.69003 -0.60065,-1.62684 -1.33399,-2.08008 -0.18333,-0.1133 -0.3582,-0.16331 -0.51758,-0.15625 z m 388.81055,2.15625 c 1.67259,0 3.04297,0.52612 3.04297,1.16992 0,2.19621 -4.26084,11.491 -6.33984,13.83008 -1.2247,1.37793 -4.03352,2.28768 -6.03125,2.36523 -0.0665,-1.66084 -0.12446,-3.40411 -0.21485,-4.84765 0.24873,-0.40917 0.43634,-0.76607 0.70703,-1.1836 1.42636,-2.19998 3.31251,-5.65129 4.19336,-7.66797 1.07456,-2.46009 2.60224,-3.66601 4.64258,-3.66601 z m 459.71095,0 h 0.6679 0.6661 v 0.66601 0.66797 h -0.6661 -0.6679 v -0.66797 z m -840.78712,0.80273 c -0.25008,-0.0475 -0.43323,-0.0297 -0.52734,0.0645 -0.37645,0.37647 0.48003,1.53612 1.90234,2.57617 3.92685,2.87138 5.8911,2.20132 2.0957,-0.71485 -1.36678,-1.05015 -2.72047,-1.78338 -3.4707,-1.92578 z m 390.86328,0.53125 c 0.77666,0 1.02768,0.62259 0.55664,1.38477 -0.47108,0.76218 -0.85742,4.03161 -0.85742,7.26367 0,3.44209 -0.78274,6.52554 -1.88867,7.44336 -1.57489,1.30707 -1.7625,0.93041 -1.13672,-2.26367 1.37371,-7.01152 1.7097,-9.14387 1.8125,-11.4961 0.0561,-1.28333 0.73702,-2.33203 1.51367,-2.33203 z m 12.14453,1.63867 c 0.42148,0.0132 1.00464,0.10669 1.77344,0.2461 5.21427,0.94552 6.00391,1.93564 6.00391,7.52734 0,5.57885 -1.91663,7.05251 -3.33985,2.56836 -0.50785,-1.60006 -1.48813,-2.30529 -2.42383,-1.74414 -0.86388,0.51806 -0.6703,-0.18874 0.42969,-1.57031 1.09999,-1.38165 1.33876,-2.11528 0.5293,-1.63086 -0.82107,0.49141 -2.13993,-0.58446 -2.98242,-2.43359 -1.05764,-2.32132 -1.25468,-3.00253 0.01,-2.9629 z m 427.21681,0.85157 2.2715,0.4375 2.2714,0.4375 1.6797,3.50781 1.6817,3.50586 3.3828,0.84961 3.3847,0.84961 -0.8007,1.29297 -0.7989,1.29492 -2.2539,-0.1543 -2.2558,-0.1543 -2.666,-0.64257 -2.6661,-0.64063 -1.0742,-1.00976 -1.0722,-1.00977 -0.5411,-4.28125 z m 24.8965,2.17578 1.8339,0.45898 1.8321,0.46094 2,0.42969 2,0.42968 6,1.39258 6,1.39258 8.2461,3.25 8.2441,3.25195 0.7559,-0.5332 0.7539,-0.5332 -0.7051,0.92773 -0.7051,0.92774 -1.6289,0.38086 -1.6269,0.38281 -3.334,0.64844 -3.3321,0.64648 -10.5488,-3.27734 -10.5469,-3.27735 -3.2011,-2.09765 -3.2032,-2.09766 0.5821,-1.58203 z m -964.382843,0.66601 c 2.169983,0 4.982083,3.28742 3.812503,4.45704 -0.48253,0.48249 -0.27826,0.87695 0.45508,0.87695 0.73334,0 1.33398,0.9 1.33398,2 0,2.59366 -0.4519,2.52179 -2.11523,-0.33399 -1.07501,-1.84596 -1.37716,-1.91425 -1.44141,-0.33203 -0.0584,1.43985 -0.52081,1.25184 -1.654293,-0.66797 -2.238732,-3.79181 -2.383045,-6 -0.39063,-6 z m 122.966803,0.0215 c -0.95414,0.0123 -0.78959,0.53588 0.41211,1.3125 2.5615,1.65536 3.02308,1.65536 2,0 -0.45324,-0.73334 -1.53874,-1.32384 -2.41211,-1.3125 z m 885.74994,1.3125 h 0.6661 0.666 v 0.66601 0.66797 h -0.666 -0.6661 v -0.66797 z m -280.76361,0.44531 c -0.908,0 -1.34406,0.79958 -0.96875,1.77734 0.37519,0.97777 1.11774,1.77735 1.65039,1.77735 0.53268,0 0.96875,-0.79958 0.96875,-1.77735 0,-0.97776 -0.74255,-1.77734 -1.65039,-1.77734 z m -726.802743,0.0879 c -0.1906,0.0292 -0.37908,0.0958 -0.55273,0.20313 -0.69483,0.42927 -0.90975,1.35032 -0.48047,2.04492 0.42931,0.69483 1.348333,0.91174 2.042973,0.48242 0.69479,-0.42928 0.91174,-1.35032 0.48242,-2.04492 -0.32196,-0.52112 -0.92039,-0.77309 -1.492193,-0.68555 z m 20.884773,0.21094 c -0.59643,0.0197 -1.4669,0.94505 -2.29492,2.52539 -1.61469,3.08213 -1.63595,4.30629 -0.13672,7.85742 1.68782,3.99799 1.79691,4.04835 2.22461,1.02344 0.24752,-1.75038 -0.29843,-3.64454 -1.21485,-4.21094 -1.27982,-0.79094 -1.14917,-1.54805 0.5625,-3.25976 1.22589,-1.22567 1.83296,-2.86565 1.35156,-3.64454 -0.12629,-0.20435 -0.29337,-0.29756 -0.49218,-0.29101 z m -27.392584,1.16406 c -1.028817,-0.0796 -0.819279,1.85141 0.783203,4.8457 0.95142,1.77778 0.95142,2.58008 0,2.58008 -0.759156,0 -1.38086,-0.7011 -1.38086,-1.55664 1e-6,-0.85549 -0.44723,-1.10546 -0.996093,-0.55664 -0.548863,0.54886 0.167658,1.84977 1.59375,2.89258 3.151483,2.30438 5.990041,0.33804 3.625,-2.51172 -0.842608,-1.01522 -1.221779,-2.15517 -0.84375,-2.5332 0.378028,-0.37803 -0.227984,-1.44739 -1.345703,-2.375 -0.612756,-0.50855 -1.092608,-0.75861 -1.435547,-0.78516 z m 102.324224,2.13281 c -4.10328,0.0722 14.97839,8.194 20.11718,8.5625 2.77081,0.19881 5.42062,0.74484 5.88868,1.21289 1.14138,1.14135 1.44038,1.08156 2.4082,-0.48437 1.28209,-2.07447 -4.50572,-3.94383 -18.89453,-6.10156 -3.19336,-0.47887 -6.13426,-1.40207 -6.53516,-2.05078 -0.40093,-0.64868 -1.74431,-1.16135 -2.98437,-1.13868 z m 633.60937,1.63282 c -0.41345,-0.0428 -1.004,-0.0381 -1.76953,0.0195 -1.41589,0.10666 -2.29643,0.64231 -1.95703,1.1914 0.33933,0.54917 1.4977,0.66112 2.57422,0.24805 2.03587,-0.78123 2.39269,-1.33068 1.15234,-1.45898 z m 272.80667,2.32617 h 0.666 0.6679 v 0.66601 0.66797 h -0.6679 -0.666 v -0.66797 z M 101.28903,433.9241 c 0.0804,0.0299 0.16921,0.1556 0.26172,0.38477 0.37001,0.91665 0.37001,2.41733 0,3.33398 -0.36975,0.91669 -0.67383,0.16537 -0.67383,-1.66797 0,-1.375 0.17094,-2.14063 0.41211,-2.05078 z m -13.289066,0.0508 2.541015,3 c 1.396989,1.65003 3.146751,3 3.888672,3 0.741959,0 1.098355,-0.15641 0.792969,-0.34765 -0.305575,-0.19117 -2.055336,-1.54114 -3.888672,-3 z m 0,4.73047 2.943359,2.47071 c 1.61881,1.35817 2.518816,2.93839 2,3.51367 -0.518815,0.57535 -0.193992,0.6154 0.722656,0.0879 2.5392,-1.46124 2.005076,-2.64223 -2.009765,-4.4375 z m 1.96875,6.70703 c -0.323746,0.0475 -0.739002,0.21534 -1.234375,0.52149 -0.793928,0.49077 -1.06013,1.51446 -0.589844,2.27539 0.553663,0.89582 1.240746,0.75961 1.949219,-0.38672 0.991786,-1.60469 0.846236,-2.55255 -0.125,-2.41016 z m 744.490236,4.61719 c 0.32012,0.0167 0.43164,0.35965 0.43164,1.0332 0,0.94152 -1.16637,1.80087 -2.59375,1.90821 -1.4273,0.10734 -2.3774,0.0569 -2.11133,-0.11133 0.26623,-0.16819 1.43456,-1.02543 2.59571,-1.90625 0.83066,-0.63012 1.35761,-0.94056 1.67773,-0.92383 z m -718.45117,1.33985 c -0.20214,0.11029 -0.29456,1.34842 -0.21094,3.27343 0.17065,3.93249 -0.21573,4.61941 -2.46289,4.3711 -1.46664,-0.16199 -1.91345,0.0393 -0.99219,0.44726 0.92134,0.40796 1.3174,1.32103 0.88086,2.02735 -0.47924,0.77548 -1.62469,0.59826 -2.89258,-0.44727 -1.8641,-1.53721 -1.92124,-1.39597 -0.50195,1.26758 0.8792,1.64999 2.27767,3 3.10742,3 0.82965,0 1.10766,-0.40016 0.61719,-0.89063 -0.49051,-0.49047 0.11039,-2.00122 1.33594,-3.35547 2.15977,-2.3865 2.32598,-2.37008 5.41016,0.52735 2.76298,2.59566 3.05476,2.65751 2.21484,0.46875 -0.62589,-1.63109 -0.47018,-2.21381 0.4414,-1.65039 0.77488,0.4789 2.13199,0.002 3.01368,-1.06055 1.31701,-1.5868 1.14119,-1.84295 -0.98438,-1.43359 -2.75036,0.52966 -7.37528,-3.69982 -5.875,-5.37305 0.48975,-0.54614 0.19191,-0.59232 -0.66211,-0.10352 -0.85402,0.48881 -1.84596,0.13412 -2.20312,-0.78711 -0.0893,-0.23031 -0.16895,-0.31801 -0.23633,-0.28124 z m -59.001957,2.0371 c 0.561101,-0.13151 0.994141,0.12607 0.994141,0.96094 0,0.70466 -0.85147,1.98944 -1.892578,2.85352 -1.519937,1.2621 -1.826309,1.11068 -1.550781,-0.76563 0.224173,-1.52735 1.514051,-2.82964 2.449218,-3.04883 z m 59.835937,1.27344 c 0.16167,-0.0578 0.87421,0.57275 2.29688,1.83594 1.57338,1.39699 2.86133,2.74715 2.86133,3 0,1.68076 -2.84678,-0.0623 -4.14649,-2.53906 -0.78289,-1.49197 -1.17338,-2.23907 -1.01172,-2.29688 z m -64.906249,5.39649 c 0.258496,-0.11081 0.676446,0.50017 1.197265,1.85742 0.413178,1.07652 0.301043,2.23482 -0.248047,2.57422 -0.549051,0.33932 -1.084823,-0.54119 -1.191406,-1.95703 -0.115332,-1.53105 -0.01631,-2.36381 0.242188,-2.47461 z m 39.33789,0.0351 c 0.798094,-0.25084 1.066441,1.68632 0.541016,5.53125 -0.944617,6.91272 -0.931516,6.89498 -2.539062,3.26758 -0.853456,-1.92567 -0.838279,-3.96191 0.04492,-5.92383 0.804076,-1.78614 1.474269,-2.72449 1.953126,-2.875 z m 34.484379,7.86524 c -0.88411,0 -0.78216,0.76405 0.26953,2.03125 0.92761,1.11779 1.96125,1.75749 2.29688,1.42187 0.92462,-0.92466 -0.95501,-3.45312 -2.56641,-3.45312 z m 45.53906,0.0391 c 1.60426,0.0319 1.52495,0.33839 -0.37109,1.44141 -2.02428,1.17762 -2.12972,1.74232 -0.66602,3.54882 1.05347,1.3002 1.12728,1.78021 0.1875,1.2168 -0.85402,-0.51201 -1.85699,-0.17712 -2.22851,0.74414 -0.52354,1.29834 -0.69766,1.2825 -0.7793,-0.0703 -0.0579,-0.95985 -0.70611,-1.37316 -1.43945,-0.91992 -2.05183,1.26807 -1.58429,-0.34346 0.96289,-3.31836 1.26296,-1.47504 3.21362,-2.66526 4.33398,-2.64258 z m -51.31836,0.4043 c 1.49787,0 1.62072,0.43168 0.50391,1.77734 -0.81147,0.97776 -1.70148,1.7793 -1.97852,1.7793 -0.277,0 -0.5039,-0.80154 -0.5039,-1.7793 0,-0.9778 0.89016,-1.77734 1.97851,-1.77734 z m -38.056641,0.88867 c 0.776617,0 1.412109,0.60064 1.412109,1.33398 0,0.73334 -0.264363,1.33399 -0.58789,1.33399 -0.323377,0 -0.958869,-0.60065 -1.41211,-1.33399 -0.453203,-0.73334 -0.188726,-1.33398 0.587891,-1.33398 z m 52.078131,0 c 0.7333,0 1.33398,1.5355 1.33398,3.41211 0,1.87661 -0.54405,3.07696 -1.20898,2.66601 -0.66482,-0.41094 -0.91973,0.36238 -0.56446,1.72071 0.3552,1.35836 -0.27055,3.38969 -1.39257,4.51172 -1.12196,1.12199 -1.74408,2.336 -1.38086,2.69921 0.36336,0.36337 -0.1603,0.97616 -1.16407,1.36133 -2.22293,0.85297 -2.12988,-2.47119 0.1875,-6.73242 0.90562,-1.66515 1.28368,-3.61385 0.83985,-4.33203 -0.44387,-0.71815 -0.17115,-1.30664 0.60547,-1.30664 0.77661,0 1.41015,-0.90001 1.41015,-2 0,-1.1 0.60065,-2 1.33399,-2 z m 75.59961,0.12305 c 0.33176,-0.07 0.70898,0.4654 1.13672,1.58007 0.48257,1.2576 1.9484,1.88723 3.69726,1.58789 1.59405,-0.27288 4.09777,0.40074 5.56445,1.49805 1.95365,1.46166 2.4864,3.33188 2.64844,10.50781 -0.532,3.80318 -1.07406,7.23532 -1.54297,9.36914 -1.12804,5.13336 -2.35585,10.98332 -2.72851,13 -0.37274,2.01665 -1.11443,3.66797 -1.64844,3.66797 -0.53405,0 -1.72928,2.54934 -2.65625,5.66602 -0.92697,3.11667 -3.75899,10.1085 -6.29297,15.53711 -3.63709,7.79183 -6.14798,18.86226 -6.53906,27.63867 -2.44814,0.49845 -1.47428,-9.07976 4.79883,-48.17578 0.70597,-4.39998 1.46608,-15.32973 1.68945,-24.28906 0.29256,-11.72897 0.87776,-17.37799 1.87305,-17.58789 z m -86.46289,1.91015 c 0.13541,-0.0149 0.28563,0.0209 0.4414,0.11719 0.62325,0.38506 0.78714,1.25875 0.36524,1.9414 -1.07815,1.74452 -1.49805,1.549 -1.49805,-0.69921 0,-0.80079 0.28516,-1.31469 0.69141,-1.35938 z m -36.91407,4.63477 c 0.611112,0 1.111328,0.56384 1.111328,1.2539 0,0.69007 -0.500216,1.56383 -1.111328,1.94141 -0.611112,0.37769 -1.111328,-0.18615 -1.111328,-1.25391 0,-1.06771 0.500216,-1.9414 1.111328,-1.9414 z m 84.57422,0.0859 c 0.27834,-0.12968 1.00576,0.97588 1.93946,3.43165 0.73564,1.93504 1.09142,3.76599 0.78906,4.06835 -0.3024,0.3024 -1.18877,-1.28212 -1.96875,-3.51953 -0.86693,-2.48689 -1.03811,-3.85079 -0.75977,-3.98047 z m -5.5625,0.0645 c 0.54688,0.0469 0.76564,0.51563 0.51563,1.26562 -0.32085,0.9625 -1.37149,2.0131 -2.33399,2.33399 -0.99998,0.33335 -1.49937,-0.16798 -1.16601,-1.16797 0.32084,-0.9625 1.37149,-2.01115 2.33398,-2.33203 0.25,-0.0833 0.4681,-0.11524 0.65039,-0.0996 z m 12.38867,2.13867 c 0.0625,-0.018 0.19365,0.032 0.37696,0.1543 0.36669,0.24446 0.69254,1.14442 0.72656,2 0.0333,0.85545 0.82973,1.3909 1.76758,1.18945 0.93777,-0.20149 1.32384,0.24852 0.85937,1 -0.46443,0.75152 -0.28978,1.36719 0.38672,1.36719 0.67639,0 1.13525,1.35001 1.02149,3 -0.11384,1.64999 0.59259,4.27906 1.56835,5.84375 0.97573,1.56468 1.60033,3.66402 1.38868,4.66601 -0.21177,1.00199 0.32206,1.68583 1.1875,1.51953 0.86543,-0.16626 2.26375,1.78939 3.10742,4.34571 0.84366,2.55636 1.95753,4.3881 2.47461,4.06836 0.51708,-0.3196 0.9414,0.5735 0.9414,1.98632 h -0.002 c 0,1.41283 -0.19391,2.56836 -0.43164,2.56836 -0.23788,0 -2.9297,-2.3987 -5.98242,-5.33203 -3.05276,-2.93333 -4.83027,-5.33398 -3.94922,-5.33398 3.14683,0 1.52734,-2.43094 -2.57031,-3.85938 -3.53027,-1.23069 -3.91139,-1.76569 -2.48828,-3.48047 1.29396,-1.55913 2.10876,-1.6721 3.53515,-0.48828 1.47905,1.22748 1.68482,1.09811 1.01758,-0.64062 -0.58817,-1.53275 -1.78432,-1.94086 -4.03125,-1.37696 -2.3469,0.58904 -3.19531,0.24959 -3.19531,-1.27734 0,-1.14308 -1.04869,-2.68811 -2.33203,-3.43555 -1.2833,-0.74747 -1.7036,-1.37771 -0.9336,-1.40039 0.77001,-0.0223 2.11998,0.67857 3,1.5586 0.87999,0.88017 1.6448,1.32995 1.69922,1 0.0545,-0.32999 0.35547,-1.98506 0.66992,-3.67969 0.40929,-2.20626 0.0986,-2.79688 -1.09765,-2.07813 -1.33297,0.80115 -1.33661,0.59141 -0.0156,-1.04101 0.9103,-1.1249 1.50892,-2.29051 1.33203,-2.58984 -0.0884,-0.14948 -0.0938,-0.23586 -0.0312,-0.25391 z m 1.63086,5.71094 c -0.7768,0 -1.06644,0.55757 -0.64453,1.24023 0.42191,0.68266 0.1574,1.61752 -0.58789,2.07813 -0.74528,0.46061 -1.34532,1.55237 -1.33398,2.42578 0.0139,1.08151 0.3796,1.02148 1.14843,-0.19141 0.62075,-0.97927 1.51249,-1.73071 1.98047,-1.66797 0.46802,0.0627 0.84961,-0.18612 0.84961,-0.55273 v -2 c 0,-0.73334 -0.63549,-1.33203 -1.41211,-1.33203 z m -22.20507,12.10547 c 0.27768,-0.0215 0.54892,0.01 0.80468,0.10156 0.70239,0.25266 0.18433,1.80008 -1.15234,3.43945 -1.87627,2.30113 -2.59445,2.55149 -3.15234,1.09766 -0.69145,-1.8019 1.55621,-4.48834 3.5,-4.63867 z m -98.218758,4.41211 c -0.48592,0.0163 -0.830078,0.54489 -0.830078,1.40234 0,2.34202 0.800355,2.68725 1.943359,0.83789 0.421909,-0.6827 0.157395,-1.61751 -0.58789,-2.07813 -0.186322,-0.11515 -0.363418,-0.16756 -0.525391,-0.1621 z m 126.791018,0.81445 c -0.62517,0 0.14635,1.80001 1.71289,4 1.56654,2.20002 3.1417,4 3.5,4 0.35819,0 -0.4133,-1.79998 -1.71289,-4 -1.29955,-2.19999 -2.87483,-4 -3.5,-4 z m 14.64844,2.86914 c 0.0576,0.0947 -0.25789,0.78485 -0.91016,2.13086 -1.67138,3.44904 -2.16749,3.63931 -3.49414,1.33398 -0.52751,-0.91684 -0.472,-1.22608 0.12305,-0.6875 0.59505,0.53862 1.9235,-0.0621 2.95312,-1.33398 0.83993,-1.0376 1.27048,-1.5381 1.32813,-1.44336 z m 44.46289,8.77344 c 0.14345,0.11108 0.0976,0.0542 0.26758,0.1875 1.28334,1.00645 2.33398,2.05694 2.33398,2.33398 0,1.09739 -1.09606,0.39089 -2.83789,-1.83008 -0.032,-0.0409 -0.0142,-0.0251 -0.0449,-0.0644 0.11538,-0.16952 0.21484,-0.33326 0.21484,-0.45313 0,-0.0706 0.0448,-0.11524 0.0664,-0.17382 z m -2.15039,2.76757 c 0.70947,-0.12586 1.58965,0.30516 2.55078,1.36719 2.13434,2.35862 2.13469,2.61736 0.004,4.36524 -0.0475,0.0389 -0.0659,0.047 -0.11133,0.084 -0.91081,0.424 -1.54875,0.41828 -1.64453,-0.043 0.0633,-0.33175 0.13113,-0.66926 0.26367,-1.18359 0.42468,-1.64845 0.27045,-2.99748 -0.3418,-3 h -0.002 c -0.61342,0.002 -1.37576,1.35136 -1.69336,3 -0.0311,0.16164 -0.0344,0.10815 -0.0625,0.25 -0.21368,0.005 -0.44149,0.0283 -0.67578,0.0645 -0.17405,-2.94432 0.53327,-4.69503 1.71289,-4.9043 z m -185.169927,1.58985 c -0.323376,0 -0.958868,0.60064 -1.412109,1.33398 -0.453203,0.73334 -0.188727,1.33203 0.587891,1.33203 0.776617,0 1.412109,-0.59869 1.412109,-1.33203 0,-0.73334 -0.264363,-1.33398 -0.587891,-1.33398 z m 181.576177,0.42578 c 0.13716,0.0534 0.22127,0.36858 0.25195,1.07812 0.025,0.58002 -0.13937,1.18985 -0.4043,1.77149 -0.74961,-0.28065 -0.92278,-0.95085 -0.55468,-1.77539 0.10307,-0.21306 0.18604,-0.34583 0.26758,-0.47852 0.12979,-0.19685 0.25522,-0.39311 0.43945,-0.5957 z m -149.099614,2.25977 c 1.03903,-0.01 1.488554,0.38253 0.998047,0.87304 -0.49047,0.49047 0.158433,2.13984 1.443359,3.66602 2.2848,2.71366 2.277758,2.7261 -0.330078,0.54883 -2.508435,-2.09428 -2.864504,-2.06135 -6,0.55468 -2.074054,1.73042 -2.45183,2.46208 -1,1.93555 2.835175,-1.02811 3.161789,1.50275 0.333984,2.58789 -2.87588,1.10358 -2.46313,2.82306 0.9375,3.90234 3.58594,1.13817 7.023785,4.39614 5.863281,5.55665 -0.467187,0.46718 -3.989384,0.96001 -7.826171,1.0957 -4.031509,0.14252 -9.340506,1.44441 -12.578125,3.08594 -6.401537,3.2457 -6.994885,3.32917 -9.730469,1.36132 -1.744668,-1.2551 -1.729994,-1.35251 0.113281,-0.77148 1.310362,0.41303 3.58938,-1.11413 6,-4.01953 2.137928,-2.57669 5.193825,-6.10328 6.791016,-7.83789 1.597228,-1.73462 3.950456,-4.92684 5.230468,-7.09375 2.173115,-3.67877 5.259708,-5.40185 9.753907,-5.44531 z m -32.580078,2.42773 c -0.05909,0.0605 -0.132861,0.24723 -0.21875,0.57031 -0.343597,1.29222 -1.239243,1.96999 -1.990235,1.50586 -0.887924,-0.54879 -0.868386,0.0838 0.05469,1.8086 0.780775,1.45874 1.139741,3.03103 0.798828,3.49414 -0.340914,0.46299 -0.2223,0.54327 0.263672,0.17968 0.486009,-0.36378 1.022461,-2.61379 1.191406,-5 0.126595,-1.78968 0.07766,-2.74021 -0.09961,-2.55859 z m -5.445313,15.62695 c 1.44691,0.12183 3.471896,1.98781 3.449219,3.75586 -0.01194,0.88154 -0.496738,0.75318 -1.171875,-0.3125 -0.936529,-1.47828 -1.25944,-1.49117 -1.734375,-0.0664 -0.443188,1.32948 -0.823302,1.36543 -1.574219,0.15039 -0.54429,-0.88052 -0.600238,-2.22911 -0.125,-2.99805 0.256573,-0.41515 0.673947,-0.56991 1.15625,-0.5293 z m 83.771485,21.47266 c 0.93758,0.1906 2.30904,1.14376 3.48828,2.5 1.57403,1.80831 2.2936,3.28711 1.60157,3.28711 -0.69207,0 -1.73779,-0.81222 -2.32422,-1.80469 -0.58643,-0.99247 -1.93809,-2.08209 -3.00196,-2.42187 -1.21285,-0.38756 -1.41107,-0.94179 -0.5332,-1.48438 0.19251,-0.11897 0.45701,-0.13971 0.76953,-0.0762 z m -32.88867,11.12109 c 1.14316,0 1.70715,0.59873 1.25391,1.33203 -0.45324,0.73335 -1.38806,1.33399 -2.07813,1.33399 -0.69003,0 -1.25586,-0.60064 -1.25586,-1.33399 0,-0.7333 0.93681,-1.33203 2.08008,-1.33203 z m -9.042971,0.77149 c 0.956257,-0.066 1.630859,0.18704 1.630859,0.68554 0,0.66467 -1.201285,1.20899 -2.667969,1.20899 -1.466645,0 -2.666015,-0.23052 -2.666015,-0.51172 0,-0.28116 1.19937,-0.82349 2.666015,-1.20703 0.366671,-0.0959 0.718358,-0.1538 1.03711,-0.17578 z"
    id="path823"
  />
</svg>
