<?xml version="1.0" encoding="UTF-8" standalone="no"?>
<!-- Created with Inkscape (http://www.inkscape.org/) -->

<svg
   width="150mm"
   height="150mm"
   viewBox="0 0 150 150"
   version="1.1"
   id="svg5"
   inkscape:version="1.1.2 (0a00cf5339, 2022-02-04)"
   sodipodi:docname="usa.svg"
   xmlns:inkscape="http://www.inkscape.org/namespaces/inkscape"
   xmlns:sodipodi="http://sodipodi.sourceforge.net/DTD/sodipodi-0.dtd"
   xmlns="http://www.w3.org/2000/svg"
   xmlns:svg="http://www.w3.org/2000/svg">
  <sodipodi:namedview
     id="namedview7"
     pagecolor="#ffffff"
     bordercolor="#666666"
     borderopacity="1.0"
     inkscape:pageshadow="2"
     inkscape:pageopacity="0.0"
     inkscape:pagecheckerboard="0"
     inkscape:document-units="mm"
     showgrid="false"
     inkscape:zoom="0.44976872"
     inkscape:cx="198.99116"
     inkscape:cy="551.3945"
     inkscape:window-width="2560"
     inkscape:window-height="1044"
     inkscape:window-x="1920"
     inkscape:window-y="0"
     inkscape:window-maximized="1"
     inkscape:current-layer="svg5" />
  <defs
     id="defs2" />
  <path
     id="path2152"
     style="fill:#ffffff;stroke-width:2.23691;stroke-linecap:round"
     d="M 142.81301,75.000005 A 67.813004,67.757004 0 0 1 75.000002,142.75701 67.813004,67.757004 0 0 1 7.187001,75.000005 67.813004,67.757004 0 0 1 75.000002,7.243004 67.813004,67.757004 0 0 1 142.81301,75.000005 Z" />
  <path
     style="fill:#0051b3;stroke-width:0.264583"
     d="m 7.369477,71.596075 0.182699,-3.4607 0.154196,-0.77099 0.154197,-0.77098 1.612635,-1.19837 1.612634,-1.19837 0.33479,0.12847 0.334789,0.12847 2.398681,1.76059 2.398681,1.76058 0.105994,-0.10599 0.105994,-0.106 -0.912968,-2.87685 -0.912968,-2.87686 v -0.30191 -0.30191 l 2.711979,-1.97163 2.711979,-1.97164 -3.500425,-0.0738 -3.500426,-0.0738 -0.942068,-2.99119 -0.942068,-2.99118 1.09994,-2.55395 1.099941,-2.55395 0.299845,0.18124 0.299845,0.18125 1.256771,0.89843 1.256771,0.89844 v -0.23977 -0.23977 l -0.790181,-2.33767 -0.79018,-2.33766 0.822834,-1.48228 0.822833,-1.48228 1.750821,-1.25677 1.75082,-1.25677 H 19.50043 18.642998 v -0.20349 -0.20352 l 2.164177,-2.90534 2.164178,-2.90533 4.187518,-4.20959 4.187518,-4.20959 0.128609,0.12861 0.128608,0.12861 -0.908587,2.69797 -0.908586,2.69797 0.315261,-0.19021 0.315262,-0.19022 2.470697,-1.81958 2.470698,-1.81958 0.369366,0.14174 0.369366,0.14174 2.398681,1.76058 2.39868,1.76058 0.116639,-0.11663 0.116639,-0.11664 -1.04244,-3.10291 -1.042439,-3.10291 2.785406,-2.03685 2.785406,-2.036843 -2.984759,-0.07531 -2.984759,-0.07531 1.574951,-0.950155 1.57495,-0.950155 2.778125,-1.397383 2.778125,-1.397383 2.248958,-0.923003 2.248958,-0.923003 2.645834,-0.842934 2.645833,-0.842934 2.778125,-0.623766 2.778125,-0.623767 2.778121,-0.406569 2.77813,-0.406569 3.37344,-0.179013 3.37343,-0.179012 v 33.906989 33.90698 H 41.093012 7.186778 Z m 25.296437,-5.40962 2.248958,-1.62757 0.341879,-0.19752 0.341878,-0.19751 2.766976,2.00662 2.766975,2.00663 v -0.21058 -0.21057 l -1.039233,-3.09337 -1.039233,-3.09336 2.818947,-2.05362 2.81895,-2.05362 -3.480146,-0.0737 -3.480146,-0.0737 -0.978358,-2.96902 -0.97836,-2.96901 -0.178036,-0.19777 -0.178035,-0.19776 -1.033444,3.17433 -1.033445,3.17432 h -3.568919 -3.56892 l 2.36596,1.72762 2.36596,1.72761 0.529167,0.35696 0.529166,0.35696 -1.101816,3.34099 -1.101817,3.34099 0.308067,-0.1834 0.308067,-0.1834 z m 24.537184,-0.17738 2.444475,-1.80021 0.201359,0.008 0.201355,0.008 2.645834,1.95065 2.645831,1.95065 0.069,-0.0657 0.069,-0.0657 -0.4013,-1.13743 -0.40131,-1.13742 -0.64331,-2.09477 -0.64331,-2.09477 2.78269,-2.0346 2.78269,-2.0346 -3.51946,-0.13229 -3.519448,-0.13229 -1.054264,-3.30729 -1.054266,-3.30729 -1.064043,3.37343 -1.064043,3.37344 H 54.108944 50.53731 l 2.839786,2.05052 2.839788,2.05052 -0.132429,0.52917 -0.132427,0.52917 -0.903768,2.84527 -0.903772,2.84529 0.307096,-0.18518 0.307097,-0.18516 z m -22.859819,-20.78023 1.176576,-0.85605 2.728447,1.97025 2.728446,1.97026 0.0671,-0.0671 0.0671,-0.0671 -1.01192,-3.20631 -1.01192,-3.20631 2.785149,-2.00798 2.78515,-2.00797 h -3.473101 -3.4731 l -0.966031,-3.10886 -0.966033,-3.10885 -0.153734,-0.25785 -0.153736,-0.25784 -1.077187,3.30055 -1.077187,3.30055 -3.383214,0.1323 -3.383214,0.13229 2.525205,1.8061 2.525204,1.8061 0.146942,0.23776 0.146941,0.23775 -0.937539,2.96078 -0.937539,2.96077 v 0.23644 0.23644 l 1.573312,-1.14003 1.573312,-1.14003 z m 22.494702,1.34552 2.418556,-1.75949 0.283703,-0.21825 0.283699,-0.21825 2.734688,1.98002 2.734685,1.98001 0.088,-0.088 0.088,-0.088 -1.06026,-3.15538 -1.06026,-3.15538 0.46738,-0.35133 0.46737,-0.35133 2.24896,-1.63305 2.24896,-1.63304 -3.35411,-0.0739 -3.354109,-0.0739 -1.121622,-3.36568 -1.121619,-3.36568 -1.102042,3.30729 -1.102043,3.3073 -3.371214,0.13229 -3.371213,0.13229 2.665132,1.9325 2.665132,1.9325 v 0.19656 0.19656 l -1.040275,3.09646 -1.040273,3.09646 h 0.143071 0.143073 z m 0.339196,-20.02892 2.418556,-1.7595 h 0.203314 0.203314 l 2.735942,1.98413 2.735939,1.98412 -0.003,-0.0659 -0.004,-0.0659 -1.04405,-3.29606 -1.04405,-3.29606 0.0553,-0.0325 0.0553,-0.0325 2.73119,-1.96309 2.73119,-1.963082 -3.51262,-0.132291 -3.512611,-0.132292 -1.046832,-3.307291 -1.046832,-3.307292 -1.082159,3.367106 -1.082161,3.367106 -3.556585,0.0063 -3.556585,0.0063 2.36596,1.727616 2.36596,1.72761 0.502158,0.33725 0.50216,0.33724 -0.986052,3.02837 -0.986051,3.02837 -0.117478,0.36815 -0.117475,0.36816 0.336786,-0.26231 0.336785,-0.2623 z"
     id="path1333" />
  <path
     style="fill:#d70026;stroke-width:0.264583"
     d="m 68.781532,142.51662 -2.38125,-0.24098 -2.51354,-0.41801 -2.513538,-0.41801 -3.042708,-0.76063 -3.042708,-0.76063 -3.155313,-1.12169 -3.155312,-1.12168 -4.120729,-2.0461 -4.120729,-2.0461 -3.175,-2.14322 -3.175,-2.14323 -0.79375,-0.66013 -0.79375,-0.66014 42.201037,0.008 42.201038,0.008 -0.79375,0.65969 -0.79375,0.6597 -2.91041,1.9559 -2.91042,1.95592 -2.40107,1.29688 -2.40107,1.29688 -3.02289,1.33929 -3.022888,1.33929 -3.04263,0.97935 -3.04264,0.97937 -2.7782,0.62219 -2.77819,0.6222 -2.77813,0.42181 -2.77812,0.42181 -5.29167,0.10742 -5.29167,0.10742 z m -52.166739,-33.13015 -0.711927,-1.12448 -1.91114,-3.96875 -1.911139,-3.96875 -1.046894,-3.042715 -1.046894,-3.04271 -0.174858,-0.7276 -0.174858,-0.7276 H 74.999242 140.3614 l -0.17485,0.7276 -0.17486,0.7276 -1.04689,3.04271 -1.0469,3.042715 -1.91114,3.96875 -1.91114,3.96875 -0.71192,1.12448 -0.71193,1.12448 H 74.999242 17.326719 Z M 74.999242,66.192195 v -8.86457 l 32.735958,0.0672 32.73595,0.0672 0.58208,2.6241 0.58207,2.6241 0.40896,2.79986 0.40896,2.79986 0.18,3.37344 0.18,3.37343 H 108.90623 74.999242 Z m 0,-35.32083 v -8.73125 h 21.15746 21.157458 l 1.0014,0.84105 1.00139,0.84105 2.873,2.79697 2.873,2.79697 1.91912,2.28127 1.91912,2.28126 1.71433,2.48123 1.71433,2.48124 0.1899,0.33073 0.18989,0.33073 h -28.8552 -28.855198 z"
     id="path1331" />
</svg>
